SplineFontDB: 3.0
FontName: Caudex-BoldItalic
FullName: Caudex Bold Italic
FamilyName: Caudex
Weight: Bold
Copyright: Copyright (c) 2011 Hjort Nidudsson
Version: 1.01
ItalicAngle: -13
UnderlinePosition: -100
UnderlineWidth: 30
Ascent: 1638
Descent: 410
LayerCount: 2
Layer: 0 1 "Back"  1
Layer: 1 1 "Fore"  0
NeedsXUIDChange: 1
XUID: [1021 997 1545580258 14268423]
FSType: 0
OS2Version: 0
OS2_WeightWidthSlopeOnly: 0
OS2_UseTypoMetrics: 1
CreationTime: 936868149
ModificationTime: 1305227697
PfmFamily: 17
TTFWeight: 700
TTFWidth: 5
LineGap: 0
VLineGap: 0
Panose: 2 4 5 2 5 5 5 9 3 4
OS2TypoAscent: 2034
OS2TypoAOffset: 0
OS2TypoDescent: -606
OS2TypoDOffset: 0
OS2TypoLinegap: 0
OS2WinAscent: 2034
OS2WinAOffset: 0
OS2WinDescent: 606
OS2WinDOffset: 0
HheadAscent: 2034
HheadAOffset: 0
HheadDescent: -606
HheadDOffset: 0
OS2SubXSize: 1285
OS2SubYSize: 1230
OS2SubXOff: 0
OS2SubYOff: 0
OS2SupXSize: 655
OS2SupYSize: 860
OS2SupXOff: 0
OS2SupYOff: 550
OS2StrikeYSize: 100
OS2StrikeYPos: 530
OS2FamilyClass: 260
OS2Vendor: 'PfEd'
Lookup: 258 0 0 "'kern' Horizontal Kerning in Latin lookup 0"  {"'kern' Horizontal Kerning in Latin lookup 0 subtable"  } ['kern' ('latn' <'dflt' > ) ]
MarkAttachClasses: 1
DEI: 91125
KernClass2: 17 18 "'kern' Horizontal Kerning in Latin lookup 0 subtable" 
 134 A Agrave Aacute Acirc Atilde Auml Aring Amacr Abreve Aogon Aringacute Adotbl Ahook uni1EA4 uni1EA6 uni1EA8 uni1EAA uni1EAC Abreveacute
 14 F uni03DC Fdot
 49 L Lacute Lcommaaccent Ldot Ldotbl Lbrk Lhighstrok
 44 P Rho Pacute Pdot Pbardes Pflour Psquirrel54
 40 R Racute Rcommaaccent Rcaron Rdot Rdotbl
 33 T Tcommaaccent Tcaron Tdot Tdotbl
 53 V W Wcirc Vdotbl Wgrave Wacute Wuml Wdot Wdotbl YYlig
 62 Y Ycirc Yuml Ymacr Upsilondieresis Ygrave Ydotbl Yhook uni1EF8
 21 r rcommaaccent rdotbl
 65 v w wcirc vscap wscap vdotbl wgrave wacute wuml wdot wdotbl yylig
 46 y ycirc ydot yring ygrave ydotbl yhook uni1EF9
 8 ldquolow
 5 lsquo
 5 rsquo
 5 ldquo
 8 lsquolow
 5 space
 12 comma period
 6 hyphen

StartChar: .notdef
Encoding: 65536 -1 0
Width: 772
Flags: W
LayerCount: 2
Fore
SplineSet
303 1424 m 1,0,-1
 1126 1424 l 1,1,-1
 793 -20 l 1,2,-1
 -30 -20 l 1,3,-1
 303 1424 l 1,0,-1
328 244 m 2,5,-1
 312 175 l 2,6,7
 310 164 310 164 310 155 c 0,8,9
 310 102 310 102 388 102 c 0,10,11
 480 102 480 102 496 175 c 2,12,-1
 512 244 l 2,13,14
 515 255 515 255 515 265 c 0,15,16
 515 317 515 317 437 317 c 0,17,4
 345 317 345 317 328 244 c 2,5,-1
515 504 m 1,18,-1
 553 653 l 2,19,20
 568 713 568 713 592 744 c 0,21,22
 614 773 614 773 673 805 c 0,23,24
 697 819 697 819 715 829 c 0,25,26
 880 917 880 917 912 1059 c 0,27,28
 920 1094 920 1094 920 1125 c 0,29,30
 920 1192 920 1192 879 1237 c 0,31,32
 818 1302 818 1302 684 1302 c 0,33,34
 554 1302 554 1302 464 1235 c 0,35,36
 374 1169 374 1169 347 1054 c 0,37,38
 345 1045 345 1045 345 1038 c 0,39,40
 345 1024 345 1024 353 1016 c 0,41,42
 364 1005 364 1005 394 1005 c 0,43,44
 420 1005 420 1005 441 1016 c 0,45,46
 458 1026 458 1026 464 1046 c 0,47,48
 500 1162 500 1162 542 1204 c 1,49,50
 583 1248 583 1248 651 1248 c 0,51,52
 728 1248 728 1248 757 1201 c 0,53,54
 772 1175 772 1175 772 1135 c 0,55,56
 772 1102 772 1102 762 1059 c 0,57,58
 742 971 742 971 688 908 c 1,59,60
 631 844 631 844 509 771 c 1,61,-1
 448 505 l 2,62,63
 441 476 441 476 441 453 c 0,64,65
 441 444 441 444 442 436 c 0,66,67
 444 411 444 411 459 411 c 0,68,69
 476 411 476 411 490 433 c 256,70,71
 504 455 504 455 515 504 c 1,18,-1
EndSplineSet
Validated: 1
EndChar

StartChar: excl
Encoding: 33 33 4
Width: 498
GlyphClass: 2
Flags: W
LayerCount: 2
Fore
SplineSet
405 371 m 1,0,1
 395 331 395 331 350 331 c 2,2,-1
 329 331 l 2,3,4
 285 331 285 331 285 366 c 0,5,6
 285 371 285 371 286 378 c 2,7,-1
 436 1333 l 1,8,-1
 438 1343 l 1,9,10
 457 1424 457 1424 551 1424 c 2,11,-1
 614 1424 l 2,12,13
 701 1424 701 1424 701 1359 c 0,14,15
 701 1348 701 1348 698 1335 c 2,16,-1
 696 1326 l 1,17,-1
 405 371 l 1,0,1
312 250 m 0,18,19
 430 250 430 250 430 168 c 0,20,21
 430 154 430 154 427 140 c 2,22,-1
 408 58 l 2,23,24
 384 -45 384 -45 253 -45 c 0,25,26
 135 -45 135 -45 135 37 c 0,27,28
 135 50 135 50 138 64 c 2,29,-1
 157 146 l 2,30,31
 181 250 181 250 312 250 c 0,18,19
EndSplineSet
Validated: 1
EndChar

StartChar: quot
Encoding: 34 34 5
Width: 834
GlyphClass: 2
Flags: W
LayerCount: 2
Fore
SplineSet
470 965 m 1,0,1
 463 937 463 937 424 937 c 2,2,-1
 409 937 l 2,3,4
 369 937 369 937 369 966 c 2,5,-1
 369 970 l 1,6,-1
 418 1412 l 1,7,-1
 419 1417 l 1,8,9
 430 1463 430 1463 505 1463 c 2,10,-1
 552 1463 l 2,11,12
 625 1463 625 1463 625 1420 c 0,13,14
 625 1415 625 1415 624 1410 c 2,15,-1
 622 1405 l 1,16,-1
 470 965 l 1,0,1
842 965 m 1,17,18
 835 937 835 937 797 937 c 2,19,-1
 782 937 l 2,20,21
 742 937 742 937 742 966 c 2,22,-1
 742 970 l 1,23,-1
 791 1412 l 1,24,-1
 792 1417 l 1,25,26
 803 1463 803 1463 878 1463 c 2,27,-1
 925 1463 l 2,28,29
 998 1463 998 1463 998 1419 c 0,30,31
 998 1414 998 1414 996 1408 c 2,32,-1
 995 1404 l 1,33,-1
 842 965 l 1,17,18
EndSplineSet
Validated: 1
EndChar

StartChar: numbersign
Encoding: 35 35 6
Width: 1128
GlyphClass: 2
Flags: W
LayerCount: 2
Fore
SplineSet
362 21 m 2,0,-1
 441 361 l 1,1,-1
 192 361 l 2,2,3
 155 361 155 361 155 389 c 2,4,-1
 155 393 l 1,5,-1
 175 479 l 2,6,7
 181 506 181 506 216 506 c 2,8,-1
 474 506 l 1,9,-1
 529 741 l 1,10,-1
 280 741 l 2,11,12
 243 741 243 741 243 769 c 2,13,-1
 243 773 l 1,14,-1
 263 859 l 2,15,16
 269 886 269 886 304 886 c 2,17,-1
 562 886 l 1,18,-1
 642 1232 l 2,19,20
 650 1266 650 1266 681 1266 c 2,21,-1
 766 1266 l 2,22,23
 798 1266 798 1266 798 1237 c 0,24,25
 798 1233 798 1233 797 1226 c 2,26,-1
 718 886 l 1,27,-1
 854 886 l 1,28,-1
 934 1232 l 2,29,30
 942 1266 942 1266 974 1266 c 2,31,-1
 1058 1266 l 2,32,33
 1091 1266 1091 1266 1091 1237 c 0,34,35
 1091 1233 1091 1233 1090 1226 c 2,36,-1
 1011 886 l 1,37,-1
 1259 886 l 2,38,39
 1297 886 1297 886 1297 858 c 2,40,-1
 1297 854 l 1,41,-1
 1277 768 l 2,42,43
 1271 741 1271 741 1235 741 c 2,44,-1
 978 741 l 1,45,-1
 923 506 l 1,46,-1
 1171 506 l 2,47,48
 1209 506 1209 506 1209 478 c 2,49,-1
 1209 474 l 1,50,-1
 1189 388 l 2,51,52
 1183 361 1183 361 1147 361 c 2,53,-1
 890 361 l 1,54,-1
 810 15 l 2,55,56
 802 -20 802 -20 770 -20 c 2,57,-1
 686 -20 l 2,58,59
 653 -20 653 -20 653 10 c 0,60,61
 653 14 653 14 654 21 c 2,62,-1
 733 361 l 1,63,-1
 597 361 l 1,64,-1
 517 15 l 2,65,66
 509 -20 509 -20 478 -20 c 2,67,-1
 393 -20 l 2,68,69
 361 -20 361 -20 361 9 c 0,70,71
 361 14 361 14 362 21 c 2,0,-1
685 741 m 1,72,-1
 630 506 l 1,73,-1
 766 506 l 1,74,-1
 821 741 l 1,75,-1
 685 741 l 1,72,-1
EndSplineSet
Validated: 1
EndChar

StartChar: dollar
Encoding: 36 36 7
Width: 1024
GlyphClass: 2
Flags: W
LayerCount: 2
Fore
SplineSet
814 1524 m 2,0,-1
 860 1524 l 2,1,2
 904 1524 904 1524 904 1489 c 0,3,4
 904 1483 904 1483 903 1477 c 2,5,-1
 879 1377 l 1,6,7
 1061 1377 1061 1377 1216 1259 c 1,8,-1
 1144 1051 l 2,9,10
 1133 1018 1133 1018 1101 1018 c 0,11,12
 1093 1018 1093 1018 1089 1019 c 0,13,14
 1062 1022 1062 1022 1052 1061 c 0,15,16
 1033 1140 1033 1140 975.5 1194.5 c 128,-1,17
 918 1249 918 1249 848 1249 c 1,18,-1
 743 785 l 1,19,20
 768 781 768 781 822.5 772 c 128,-1,21
 877 763 877 763 927 747 c 0,22,23
 1021 716 1021 716 1062 658 c 1,24,25
 1091 615 1091 615 1100 567 c 0,26,27
 1105 540 1105 540 1105 512 c 0,28,29
 1105 471 1105 471 1095 425 c 0,30,31
 1046 217 1046 217 846 79 c 1,32,33
 742 6 742 6 627 -27 c 0,34,35
 583 -40 583 -40 551 -46 c 1,36,-1
 512 -216 l 2,37,38
 503 -256 503 -256 459 -256 c 2,39,-1
 413 -256 l 2,40,41
 369 -256 369 -256 369 -221 c 0,42,43
 369 -215 369 -215 370 -209 c 2,44,-1
 405 -59 l 1,45,46
 260 -59 260 -59 132 -16 c 1,47,-1
 98 246 l 1,48,-1
 106 273 l 1,49,50
 119 305 119 305 154 305 c 2,51,-1
 159 305 l 1,52,53
 186 299 186 299 198 262 c 1,54,55
 224 151 224 151 283 109 c 128,-1,56
 342 67 342 67 434 67 c 1,57,-1
 557 598 l 1,58,59
 529 603 529 603 478 615.5 c 128,-1,60
 427 628 427 628 382 653 c 0,61,62
 300 697 300 697 275 781 c 0,63,64
 261 825 261 825 261 871 c 0,65,66
 261 913 261 913 271 956 c 0,67,68
 313 1138 313 1138 468 1255 c 1,69,70
 588 1348 588 1348 735 1368 c 1,71,-1
 761 1484 l 2,72,73
 770 1524 770 1524 814 1524 c 2,0,-1
694 574 m 1,74,-1
 579 77 l 1,75,76
 693 92 693 92 787 203 c 0,77,78
 845 272 845 272 867 367 c 1,79,-1
 870 377 l 1,80,81
 875 402 875 402 875 423 c 0,82,83
 875 484 875 484 833 520 c 0,84,85
 806 543 806 543 765 556 c 0,86,87
 726 568 726 568 694 574 c 1,74,-1
605 810 m 1,88,-1
 704 1235 l 1,89,-1
 677 1223 l 1,90,91
 633 1205 633 1205 602 1177 c 1,92,93
 574 1155 574 1155 548 1118 c 0,94,95
 525 1084 525 1084 510 1049 c 0,96,97
 497 1020 497 1020 491 995 c 0,98,99
 486 972 486 972 486 952 c 0,100,101
 486 942 486 942 487 931 c 0,102,103
 491 877 491 877 525 846 c 1,104,105
 551 824 551 824 587 815 c 0,106,107
 592 813 592 813 605 810 c 1,88,-1
EndSplineSet
Validated: 1
EndChar

StartChar: percnt
Encoding: 37 37 8
Width: 1024
GlyphClass: 2
Flags: W
LayerCount: 2
Fore
SplineSet
902 581 m 0,0,1
 824 580 824 580 792.5 511.5 c 128,-1,2
 761 443 761 443 750 393 c 2,3,-1
 706 198 l 1,4,5
 693 149 693 149 693 79 c 0,6,7
 693 78 693 78 694 75 c 1,8,9
 694 17 694 17 762 17 c 0,10,11
 812 17 812 17 853.5 70.5 c 128,-1,12
 895 124 895 124 914 205 c 2,13,-1
 958 399 l 2,14,15
 969 445 969 445 969 483 c 0,16,17
 969 512 969 512 963 537 c 0,18,19
 952 581 952 581 902 581 c 0,0,1
910 658 m 0,20,21
 1036 658 1036 658 1087 579 c 1,22,23
 1118 528 1118 528 1118 467 c 0,24,25
 1118 437 1118 437 1111 404 c 2,26,-1
 1061 187 l 2,27,28
 1037 84 1037 84 947.5 12.5 c 128,-1,29
 858 -59 858 -59 754 -59 c 0,30,31
 618 -59 618 -59 572 20 c 0,32,33
 544 67 544 67 544 126 c 0,34,35
 544 158 544 158 552 193 c 2,36,-1
 602 410 l 2,37,38
 626 511 626 511 708 584.5 c 128,-1,39
 790 658 790 658 910 658 c 0,20,21
579 1301 m 1,40,41
 501 1299 501 1299 469.5 1230.5 c 128,-1,42
 438 1162 438 1162 427 1112 c 2,43,-1
 383 917 l 1,44,45
 370 868 370 868 370 798 c 0,46,47
 370 797 370 797 371 794 c 1,48,49
 371 736 371 736 439 736 c 0,50,51
 489 736 489 736 530.5 789.5 c 128,-1,52
 572 843 572 843 591 924 c 2,53,-1
 635 1118 l 2,54,55
 646 1165 646 1165 646 1203 c 0,56,57
 646 1232 646 1232 640 1256 c 0,58,59
 629 1301 629 1301 579 1301 c 1,40,41
587 1377 m 0,60,61
 714 1377 714 1377 765 1298 c 0,62,63
 796 1249 796 1249 796 1187 c 0,64,65
 796 1157 796 1157 789 1124 c 2,66,-1
 739 906 l 2,67,68
 715 804 715 804 625 731.5 c 128,-1,69
 535 659 535 659 431 659 c 0,70,71
 296 659 296 659 250 739 c 0,72,73
 222 787 222 787 222 845 c 0,74,75
 222 877 222 877 230 912 c 2,76,-1
 280 1130 l 2,77,78
 304 1231 304 1231 385.5 1304 c 128,-1,79
 467 1377 467 1377 587 1377 c 0,60,61
1239 1420 m 1,80,-1
 1388 1420 l 1,81,-1
 121 -20 l 1,82,-1
 -28 -20 l 1,83,-1
 1239 1420 l 1,80,-1
EndSplineSet
Validated: 1
EndChar

StartChar: amp
Encoding: 38 38 9
Width: 1292
GlyphClass: 2
Flags: W
LayerCount: 2
Fore
SplineSet
976 300 m 1,0,-1
 1055 163 l 1,1,2
 1086 104 1086 104 1174 58 c 1,3,4
 1208 42 1208 42 1214 23 c 0,5,6
 1216 16 1216 16 1216 12 c 0,7,8
 1216 6 1216 6 1212 -1 c 1,9,-1
 1212 -5 l 1,10,11
 1191 -22 1191 -22 1172 -22 c 2,12,-1
 928 -22 l 2,13,14
 875 -22 875 -22 842 58 c 0,15,16
 821 110 821 110 813 122 c 1,17,18
 731 43 731 43 625 -5 c 1,19,20
 517 -52 517 -52 396 -52 c 0,21,22
 246 -52 246 -52 176 39 c 1,23,24
 135 95 135 95 135 170 c 0,25,26
 135 205 135 205 143 243 c 1,27,28
 147 256 147 256 151 269 c 0,29,30
 186 392 186 392 277 490 c 0,31,32
 364 584 364 584 528 679 c 1,33,34
 492 749 492 749 476 832 c 0,35,36
 470 864 470 864 470 897 c 0,37,38
 470 940 470 940 480 985 c 0,39,40
 483 999 483 999 488 1013 c 1,41,42
 524 1151 524 1151 630 1237 c 1,43,44
 737 1322 737 1322 876 1322 c 0,45,46
 1016 1322 1016 1322 1076 1249 c 0,47,48
 1113 1203 1113 1203 1113 1138 c 0,49,50
 1113 1109 1113 1109 1106 1076 c 1,51,-1
 1101 1058 l 1,52,53
 1069 948 1069 948 986 863 c 0,54,55
 898 774 898 774 760 699 c 1,56,-1
 920 398 l 1,57,-1
 1055 574 l 2,58,59
 1065 588 1065 588 1070 602 c 0,60,61
 1071 607 1071 607 1072 611 c 0,62,63
 1074 618 1074 618 1074 622 c 2,64,-1
 1074 626 l 1,65,66
 1073 634 1073 634 1068 642 c 128,-1,67
 1063 650 1063 650 1062 663 c 0,68,69
 1062 670 1062 670 1064 677 c 1,70,-1
 1064 676 l 2,71,72
 1064 679 1064 679 1069 689 c 1,73,74
 1089 720 1089 720 1118 720 c 2,75,-1
 1376 720 l 2,76,77
 1403 720 1403 720 1406 714 c 1,78,79
 1415 714 1415 714 1415 693 c 0,80,81
 1415 688 1415 688 1414 686 c 0,82,83
 1412 679 1412 679 1409 672 c 1,84,85
 1396 655 1396 655 1356 638 c 0,86,87
 1341 631 1341 631 1322 623.5 c 128,-1,88
 1303 616 1303 616 1285 606 c 0,89,90
 1204 560 1204 560 1135 483.5 c 128,-1,91
 1066 407 1066 407 976 300 c 1,0,-1
713 788 m 1,92,93
 788 828 788 828 842 892 c 0,94,95
 897 956 897 956 926 1055 c 1,96,-1
 929 1069 l 1,97,98
 938 1104 938 1104 938 1133 c 0,99,100
 938 1158 938 1158 932 1179 c 0,101,102
 920 1216 920 1216 853 1216 c 0,103,104
 796 1216 796 1216 755 1178 c 0,105,106
 708 1134 708 1134 686 1058 c 0,107,108
 683 1047 683 1047 681 1037 c 0,109,110
 672 998 672 998 672 959 c 0,111,112
 672 863 672 863 713 788 c 1,92,93
761 217 m 1,113,-1
 570 583 l 1,114,115
 419 490 419 490 375 332 c 1,116,117
 371 323 371 323 370 313 c 1,118,119
 361 276 361 276 361 244 c 0,120,121
 361 191 361 191 384 150 c 1,122,123
 420 82 420 82 498 82 c 0,124,125
 571 82 571 82 640.5 123 c 128,-1,126
 710 164 710 164 761 217 c 1,113,-1
EndSplineSet
Validated: 1
EndChar

StartChar: apos
Encoding: 39 39 10
Width: 426
GlyphClass: 2
Flags: W
LayerCount: 2
Fore
SplineSet
470 965 m 1,0,1
 463 937 463 937 424 937 c 2,2,-1
 409 937 l 2,3,4
 369 937 369 937 369 966 c 2,5,-1
 369 970 l 1,6,-1
 418 1412 l 1,7,-1
 419 1417 l 1,8,9
 430 1463 430 1463 505 1463 c 2,10,-1
 552 1463 l 2,11,12
 625 1463 625 1463 625 1420 c 0,13,14
 625 1415 625 1415 624 1410 c 2,15,-1
 622 1405 l 1,16,-1
 470 965 l 1,0,1
EndSplineSet
Validated: 1
EndChar

StartChar: lpar
Encoding: 40 40 11
Width: 682
GlyphClass: 2
Flags: W
LayerCount: 2
Fore
SplineSet
289 760 m 2,0,1
 322 899 322 899 369.5 1027.5 c 128,-1,2
 417 1156 417 1156 504 1254 c 0,3,4
 548 1305 548 1305 590 1347 c 128,-1,5
 632 1389 632 1389 693 1422 c 0,6,7
 815 1487 815 1487 919 1487 c 0,8,9
 961 1487 961 1487 961 1450 c 0,10,11
 961 1442 961 1442 958 1433 c 0,12,13
 952 1409 952 1409 947 1403 c 0,14,15
 935 1390 935 1390 876.5 1376.5 c 128,-1,16
 818 1363 818 1363 745 1304 c 0,17,18
 663 1237 663 1237 605 1109 c 0,19,20
 547 982 547 982 468 637 c 2,21,-1
 435 494 l 2,22,23
 354 146 354 146 352 19 c 1,24,25
 352 -106 352 -106 402 -170 c 0,26,27
 429 -203 429 -203 453 -219 c 0,28,29
 478 -236 478 -236 521 -250 c 1,30,31
 556 -263 556 -263 561 -278 c 1,32,33
 561 -282 561 -282 558 -303 c 1,34,-1
 557 -308 l 1,35,36
 551 -329 551 -329 540 -340 c 1,37,38
 524 -352 524 -352 499 -352 c 0,39,40
 420 -352 420 -352 347 -311 c 1,41,42
 270 -269 270 -269 217 -173.5 c 128,-1,43
 164 -78 164 -78 157 22 c 0,44,45
 156 40 156 40 156 59 c 0,46,47
 156 184 156 184 201 380 c 2,48,-1
 289 760 l 2,0,1
EndSplineSet
Validated: 1
EndChar

StartChar: rpar
Encoding: 41 41 12
Width: 682
GlyphClass: 2
Flags: W
LayerCount: 2
Fore
SplineSet
802 754 m 2,0,-1
 714 374 l 2,1,2
 660 141 660 141 592 15 c 0,3,4
 539 -83 539 -83 444 -177.5 c 128,-1,5
 349 -272 349 -272 257 -313 c 1,6,7
 165 -352 165 -352 89 -352 c 0,8,9
 59 -352 59 -352 49 -337 c 1,10,11
 41 -329 41 -329 41 -315 c 0,12,13
 41 -308 41 -308 44 -300 c 1,14,-1
 44 -296 l 1,15,16
 52 -269 52 -269 57 -266 c 1,17,18
 60 -261 60 -261 98 -249 c 1,19,20
 146 -236 146 -236 185 -216 c 0,21,22
 219 -198 219 -198 260 -165 c 0,23,24
 341 -100 341 -100 398 26 c 0,25,26
 458 158 458 158 537 500 c 2,27,-1
 570 643 l 2,28,29
 649 985 649 985 651 1116 c 1,30,-1
 651 1121 l 2,31,32
 651 1243 651 1243 601 1308 c 0,33,34
 557 1364 557 1364 502.5 1378 c 128,-1,35
 448 1392 448 1392 443 1413 c 1,36,-1
 443 1417 l 2,37,38
 443 1425 443 1425 446 1440 c 0,39,40
 457 1487 457 1487 500 1487 c 0,41,42
 605 1487 605 1487 698 1420 c 1,43,44
 747 1386 747 1386 770.5 1343 c 128,-1,45
 794 1300 794 1300 816 1249 c 1,46,47
 847 1171 847 1171 847 1074 c 0,48,49
 847 1047 847 1047 845 1020 c 0,50,51
 834 893 834 893 802 754 c 2,0,-1
EndSplineSet
Validated: 1
EndChar

StartChar: ast
Encoding: 42 42 13
Width: 1024
GlyphClass: 2
Flags: W
LayerCount: 2
Fore
SplineSet
481 859 m 1,0,-1
 629 760 l 1,1,-1
 676 967 l 2,2,3
 689 1020 689 1020 737 1020 c 2,4,-1
 789 1020 l 2,5,6
 834 1020 834 1020 834 979 c 0,7,8
 834 970 834 970 832 960 c 2,9,-1
 787 764 l 1,10,-1
 975 860 l 2,11,12
 996 871 996 871 1014 871 c 0,13,14
 1045 871 1045 871 1056 845 c 1,15,-1
 1072 798 l 2,16,17
 1074 792 1074 792 1074 787 c 256,18,19
 1074 782 1074 782 1073 777 c 0,20,21
 1068 753 1068 753 1033 735 c 2,22,-1
 825 630 l 1,23,-1
 980 526 l 1,24,25
 1005 508 1005 508 1005 487 c 0,26,27
 1005 483 1005 483 1004 478 c 0,28,29
 1002 470 1002 470 996 460 c 1,30,-1
 957 413 l 2,31,32
 939 392 939 392 913 392 c 0,33,34
 893 392 893 392 876 403 c 2,35,-1
 727 503 l 1,36,-1
 679 297 l 2,37,38
 667 243 667 243 619 243 c 2,39,-1
 567 243 l 2,40,41
 521 243 521 243 521 285 c 0,42,43
 521 294 521 294 523 304 c 2,44,-1
 569 499 l 1,45,-1
 382 403 l 2,46,47
 360 391 360 391 341 391 c 0,48,49
 308 391 308 391 300 419 c 1,50,-1
 285 464 l 2,51,52
 282 470 282 470 282 478 c 0,53,54
 282 485 282 485 284 488 c 1,55,56
 288 510 288 510 323 528 c 2,57,-1
 531 634 l 1,58,-1
 377 736 l 1,59,60
 350 752 350 752 350 774 c 0,61,62
 350 781 350 781 352 784 c 1,63,64
 353 793 353 793 362 804 c 2,65,-1
 399 849 l 1,66,67
 415 871 415 871 442 871 c 0,68,69
 461 871 461 871 481 859 c 1,0,-1
EndSplineSet
Validated: 1
EndChar

StartChar: plus
Encoding: 43 43 14
Width: 1024
GlyphClass: 2
Flags: W
LayerCount: 2
Fore
SplineSet
358 704 m 2,0,-1
 616 704 l 1,1,-1
 676 967 l 2,2,3
 689 1020 689 1020 737 1020 c 2,4,-1
 789 1020 l 2,5,6
 834 1020 834 1020 834 979 c 0,7,8
 834 970 834 970 832 960 c 2,9,-1
 773 704 l 1,10,-1
 1022 704 l 2,11,12
 1079 704 1079 704 1079 665 c 0,13,14
 1079 660 1079 660 1078 654 c 2,15,-1
 1066 602 l 2,16,17
 1056 559 1056 559 998 559 c 2,18,-1
 740 559 l 1,19,-1
 679 297 l 2,20,21
 667 243 667 243 619 243 c 2,22,-1
 567 243 l 2,23,24
 521 243 521 243 521 285 c 0,25,26
 521 294 521 294 523 304 c 2,27,-1
 583 559 l 1,28,-1
 334 559 l 2,29,30
 277 559 277 559 277 598 c 0,31,32
 277 603 277 603 278 609 c 2,33,-1
 290 661 l 2,34,35
 300 704 300 704 358 704 c 2,0,-1
EndSplineSet
Validated: 1
EndChar

StartChar: comma
Encoding: 44 44 15
Width: 480
GlyphClass: 2
Flags: W
LayerCount: 2
Fore
SplineSet
304 250 m 0,0,1
 422 250 422 250 422 168 c 0,2,3
 422 154 422 154 419 140 c 2,4,-1
 400 58 l 2,5,6
 394 34 394 34 377.5 5 c 128,-1,7
 361 -24 361 -24 351 -44 c 1,8,9
 281 -161 281 -161 145 -241 c 1,10,11
 97 -268 97 -268 66 -268 c 0,12,13
 37 -268 37 -268 23 -249 c 1,14,15
 15 -240 15 -240 15 -228 c 2,16,-1
 15 -222 l 1,17,18
 19 -206 19 -206 34 -193 c 0,19,20
 57 -172 57 -172 88 -157 c 1,21,22
 186 -104 186 -104 211 -45 c 1,23,24
 127 -45 127 -45 127 37 c 0,25,26
 127 50 127 50 130 64 c 2,27,-1
 149 146 l 2,28,29
 173 250 173 250 304 250 c 0,0,1
EndSplineSet
Validated: 1
EndChar

StartChar: hyphen
Encoding: 45 45 16
Width: 1024
GlyphClass: 2
Flags: W
LayerCount: 2
Fore
SplineSet
358 704 m 2,0,-1
 1022 704 l 2,1,2
 1079 704 1079 704 1079 665 c 0,3,4
 1079 660 1079 660 1078 654 c 2,5,-1
 1066 602 l 2,6,7
 1056 559 1056 559 998 559 c 2,8,-1
 334 559 l 2,9,10
 277 559 277 559 277 598 c 0,11,12
 277 603 277 603 278 609 c 2,13,-1
 290 661 l 2,14,15
 300 704 300 704 358 704 c 2,0,-1
EndSplineSet
Validated: 1
EndChar

StartChar: period
Encoding: 46 46 17
Width: 480
GlyphClass: 2
Flags: W
LayerCount: 2
Fore
SplineSet
310 250 m 0,0,1
 428 250 428 250 428 168 c 0,2,3
 428 154 428 154 425 140 c 2,4,-1
 406 58 l 2,5,6
 382 -45 382 -45 251 -45 c 0,7,8
 133 -45 133 -45 133 37 c 0,9,10
 133 50 133 50 136 64 c 2,11,-1
 155 146 l 2,12,13
 179 250 179 250 310 250 c 0,0,1
EndSplineSet
Validated: 1
EndChar

StartChar: sol
Encoding: 47 47 18
Width: 1024
GlyphClass: 2
Flags: W
LayerCount: 2
Fore
SplineSet
-61 -90 m 1,0,-1
 1169 1494 l 1,1,-1
 1368 1494 l 1,2,-1
 139 -90 l 1,3,-1
 -61 -90 l 1,0,-1
EndSplineSet
Validated: 1
EndChar

StartChar: zero
Encoding: 48 48 19
Width: 1100
GlyphClass: 2
Flags: W
LayerCount: 2
Fore
SplineSet
857 1316 m 1,0,1
 692 1313 692 1313 629 1174 c 128,-1,2
 566 1035 566 1035 544 936 c 2,3,-1
 429 438 l 2,4,5
 406 342 406 342 406 204 c 2,6,-1
 406 193 l 1,7,8
 407 65 407 65 559 65 c 0,9,10
 668 65 668 65 752 174.5 c 128,-1,11
 836 284 836 284 873 444 c 2,12,-1
 988 942 l 2,13,14
 1009 1034 1009 1034 1009 1110 c 0,15,16
 1009 1167 1009 1167 997 1216 c 0,17,18
 972 1316 972 1316 859 1316 c 2,19,-1
 857 1316 l 1,0,1
874 1426 m 0,20,21
 1102 1426 1102 1426 1192 1284 c 1,22,23
 1249 1191 1249 1191 1249 1079 c 0,24,25
 1249 1021 1249 1021 1235 959 c 2,26,-1
 1110 416 l 1,27,28
 1065 227 1065 227 899 91.5 c 128,-1,29
 733 -44 733 -44 543 -44 c 0,30,31
 299 -44 299 -44 217 98 c 0,32,33
 166 185 166 185 166 293 c 0,34,35
 166 355 166 355 182 423 c 2,36,-1
 307 965 l 2,37,38
 351 1154 351 1154 503 1290 c 128,-1,39
 655 1426 655 1426 874 1426 c 0,20,21
EndSplineSet
Validated: 1
EndChar

StartChar: one
Encoding: 49 49 20
Width: 1000
GlyphClass: 2
Flags: W
LayerCount: 2
Fore
SplineSet
350 -20 m 2,0,1
 309 -20 309 -20 309 13 c 0,2,3
 309 18 309 18 310 23 c 0,4,5
 318 58 318 58 370.5 75.5 c 128,-1,6
 423 93 423 93 435 145 c 2,7,-1
 678 1197 l 1,8,-1
 480 1197 l 1,9,-1
 496 1267 l 2,10,11
 506 1307 506 1307 573 1330 c 128,-1,12
 640 1353 640 1353 734 1377 c 0,13,14
 788 1390 788 1390 837.5 1403 c 128,-1,15
 887 1416 887 1416 959 1436 c 1,16,-1
 660 138 l 2,17,18
 656 124 656 124 656 113 c 0,19,20
 656 88 656 88 676 80 c 0,21,22
 730 58 730 58 730 25 c 0,23,24
 730 18 730 18 728 15 c 1,25,26
 719 -20 719 -20 679 -20 c 2,27,-1
 350 -20 l 2,0,1
EndSplineSet
Validated: 1
EndChar

StartChar: two
Encoding: 50 50 21
Width: 1100
GlyphClass: 2
Flags: W
LayerCount: 2
Fore
SplineSet
142 -20 m 1,0,-1
 165 83 l 1,1,2
 186 171 186 171 253 236 c 0,3,4
 318 299 318 299 455 417 c 1,5,6
 533 479 533 479 612 548.5 c 128,-1,7
 691 618 691 618 765 687 c 0,8,9
 868 784 868 784 929 883 c 0,10,11
 971 951 971 951 984 1009 c 0,12,13
 990 1035 990 1035 990 1059 c 0,14,15
 990 1084 990 1084 984 1106 c 0,16,17
 957 1193 957 1193 880 1226 c 0,18,19
 834 1245 834 1245 779 1245 c 0,20,21
 735 1245 735 1245 687 1234 c 0,22,23
 573 1207 573 1207 477 1103 c 0,24,25
 442 1066 442 1066 397 964 c 1,26,-1
 410 1182 l 1,27,28
 426 1210 426 1210 443 1233 c 1,29,30
 502 1302 502 1302 589.5 1355.5 c 128,-1,31
 677 1409 677 1409 789 1426 c 0,32,33
 832 1432 832 1432 874 1432 c 0,34,35
 1012 1432 1012 1432 1121 1362 c 1,36,37
 1231 1290 1231 1290 1231 1151 c 0,38,39
 1231 1107 1231 1107 1220 1056 c 1,40,-1
 1219 1052 l 1,41,42
 1187 916 1187 916 1086 794 c 0,43,44
 985 673 985 673 861 563.5 c 128,-1,45
 737 454 737 454 614 355 c 128,-1,46
 491 256 491 256 441 195 c 1,47,-1
 755 195 l 2,48,49
 875 195 875 195 1037 249 c 1,50,-1
 986 29 l 1,51,52
 909 -13 909 -13 840.5 -16.5 c 128,-1,53
 772 -20 772 -20 715 -20 c 2,54,-1
 142 -20 l 1,0,-1
EndSplineSet
Validated: 1
EndChar

StartChar: three
Encoding: 51 51 22
Width: 1100
GlyphClass: 2
Flags: W
LayerCount: 2
Fore
SplineSet
735 47 m 1,0,1
 606 -31 606 -31 441 -47 c 0,2,3
 415 -50 415 -50 390 -50 c 0,4,5
 253 -50 253 -50 162 35 c 1,6,-1
 221 317 l 1,7,8
 277 122 277 122 397 91 c 1,9,10
 442 78 442 78 486 78 c 0,11,12
 559 78 559 78 630 111 c 0,13,14
 735 160 735 160 790 254 c 0,15,16
 821 306 821 306 833 357 c 0,17,18
 841 391 841 391 841 423 c 0,19,20
 841 433 841 433 840 443 c 0,21,22
 832 534 832 534 757.5 601.5 c 128,-1,23
 683 669 683 669 499 673 c 1,24,-1
 510 735 l 1,25,26
 594 759 594 759 686 796 c 128,-1,27
 778 833 778 833 839 908 c 0,28,29
 888 968 888 968 902 1028 c 0,30,31
 906 1045 906 1045 907 1063 c 0,32,33
 908 1072 908 1072 908 1080 c 0,34,35
 908 1144 908 1144 875 1188 c 0,36,37
 834 1244 834 1244 751 1253 c 1,38,-1
 733 1253 l 2,39,40
 656 1253 656 1253 561 1182 c 0,41,42
 506 1140 506 1140 472 1026 c 1,43,-1
 470 1256 l 1,44,45
 580 1354 580 1354 680 1390 c 128,-1,46
 780 1426 780 1426 866 1426 c 1,47,48
 1109 1423 1109 1423 1145 1230 c 0,49,50
 1150 1206 1150 1206 1150 1181 c 0,51,52
 1150 1151 1150 1151 1143 1121 c 0,53,54
 1112 991 1112 991 948 864 c 0,55,56
 907 832 907 832 897 826 c 1,57,58
 1002 768 1002 768 1041 651 c 0,59,60
 1060 593 1060 593 1060 534 c 0,61,62
 1060 490 1060 490 1050 445 c 0,63,64
 1047 428 1047 428 1041 410 c 0,65,66
 974 197 974 197 735 47 c 1,0,1
EndSplineSet
Validated: 1
EndChar

StartChar: four
Encoding: 52 52 23
Width: 1100
GlyphClass: 2
Flags: W
LayerCount: 2
Fore
SplineSet
709 383 m 1,0,-1
 144 383 l 1,1,-1
 176 523 l 1,2,-1
 948 1385 l 1,3,-1
 1166 1385 l 1,4,-1
 976 560 l 1,5,-1
 1172 560 l 1,6,-1
 1131 383 l 1,7,-1
 935 383 l 1,8,-1
 879 138 l 2,9,10
 876 128 876 128 876 120 c 0,11,12
 876 90 876 90 912 81 c 1,13,14
 989 59 989 59 989 23 c 2,15,-1
 989 18 l 1,16,17
 979 -20 979 -20 939 -20 c 2,18,-1
 528 -20 l 2,19,20
 486 -20 486 -20 486 13 c 0,21,22
 486 18 486 18 487 23 c 0,23,24
 495 60 495 60 568.5 77.5 c 128,-1,25
 642 95 642 95 654 145 c 2,26,-1
 709 383 l 1,0,-1
750 560 m 1,27,-1
 881 1126 l 1,28,-1
 378 560 l 1,29,-1
 750 560 l 1,27,-1
EndSplineSet
Validated: 1
EndChar

StartChar: five
Encoding: 53 53 24
Width: 1100
GlyphClass: 2
Flags: W
LayerCount: 2
Fore
SplineSet
527 1175 m 1,0,-1
 439 788 l 1,1,2
 454 792 454 792 490.5 810.5 c 128,-1,3
 527 829 527 829 580 847 c 1,4,5
 684 885 684 885 793 885 c 0,6,7
 809 885 809 885 825 884 c 0,8,9
 982 872 982 872 1066 731 c 1,10,11
 1115 640 1115 640 1115 535 c 0,12,13
 1115 480 1115 480 1102 422 c 1,14,-1
 1101 416 l 1,15,16
 1057 240 1057 240 882 98 c 0,17,18
 708 -43 708 -43 496 -43 c 2,19,-1
 487 -43 l 1,20,21
 356 -40 356 -40 288.5 -20 c 128,-1,22
 221 0 221 0 156 33 c 1,23,24
 109 52 109 52 109 92 c 0,25,26
 109 98 109 98 110 104 c 0,27,28
 113 128 113 128 117 147 c 0,29,30
 133 215 133 215 164 239 c 0,31,32
 194 263 194 263 214 263 c 0,33,34
 230 263 230 263 241 252 c 1,35,36
 271 203 271 203 324 147 c 1,37,38
 368 99 368 99 473 99 c 2,39,-1
 481 99 l 2,40,41
 573 99 573 99 662 155.5 c 128,-1,42
 751 212 751 212 809 300 c 0,43,44
 848 360 848 360 863 428 c 0,45,46
 874 475 874 475 875 525 c 1,47,48
 875 645 875 645 788 700 c 1,49,50
 724 739 724 739 663 739 c 0,51,52
 635 739 635 739 608 732 c 0,53,54
 513 704 513 704 443 654 c 0,55,56
 404 626 404 626 375 621 c 1,57,58
 355 616 355 616 337 616 c 0,59,60
 328 616 328 616 322 617 c 1,61,62
 308 617 308 617 294 618 c 0,63,64
 263 622 263 622 263 652 c 0,65,66
 263 661 263 661 265 671 c 2,67,-1
 416 1323 l 2,68,69
 426 1365 426 1365 437 1375 c 128,-1,70
 448 1385 448 1385 496 1385 c 2,71,-1
 976 1385 l 2,72,73
 1031 1385 1031 1385 1097 1381 c 128,-1,74
 1163 1377 1163 1377 1226 1332 c 1,75,-1
 1179 1126 l 1,76,77
 1057 1175 1057 1175 937 1175 c 2,78,-1
 527 1175 l 1,0,-1
EndSplineSet
Validated: 1
EndChar

StartChar: six
Encoding: 54 54 25
Width: 1100
GlyphClass: 2
Flags: W
LayerCount: 2
Fore
SplineSet
741 862 m 1,0,1
 630 856 630 856 520.5 734 c 128,-1,2
 411 612 411 612 372 443 c 0,3,4
 356 374 356 374 356 315 c 0,5,6
 356 228 356 228 388 163 c 0,7,8
 439 62 439 62 536 62 c 2,9,-1
 547 62 l 1,10,11
 656 67 656 67 765.5 189.5 c 128,-1,12
 875 312 875 312 914 481 c 0,13,14
 930 551 930 551 930 610 c 0,15,16
 930 696 930 696 898 763 c 1,17,18
 848 862 848 862 751 862 c 2,19,-1
 741 862 l 1,0,1
588 951 m 1,20,21
 614 964 614 964 743 964 c 0,22,23
 776 964 776 964 810 960 c 0,24,25
 979 941 979 941 1068 838 c 1,26,27
 1162 725 1162 725 1162 577 c 0,28,29
 1162 520 1162 520 1149 459 c 1,30,31
 1100 252 1100 252 921 101 c 1,32,33
 744 -46 744 -46 546 -46 c 2,34,-1
 533 -46 l 1,35,36
 317 -40 317 -40 214 111 c 1,37,38
 147 207 147 207 147 331 c 0,39,40
 147 391 147 391 162 456 c 2,41,-1
 164 465 l 1,42,43
 240 782 240 782 428.5 1005.5 c 128,-1,44
 617 1229 617 1229 899 1396 c 2,45,-1
 933 1416 l 1,46,47
 966 1431 966 1431 1003 1431 c 2,48,-1
 1006 1431 l 1,49,50
 1039 1430 1039 1430 1069 1430 c 0,51,52
 1133 1430 1133 1430 1133 1402 c 2,53,-1
 1133 1400 l 1,54,55
 1130 1384 1130 1384 1104 1371 c 1,56,57
 917 1259 917 1259 787 1150.5 c 128,-1,58
 657 1042 657 1042 588 951 c 1,20,21
EndSplineSet
Validated: 1
EndChar

StartChar: seven
Encoding: 55 55 26
Width: 1100
GlyphClass: 2
Flags: W
LayerCount: 2
Fore
SplineSet
438 139 m 0,0,1
 388 71 388 71 344 -20 c 1,2,-1
 133 -19 l 1,3,4
 139 16 139 16 142 29 c 0,5,6
 154 80 154 80 187 129 c 0,7,8
 225 187 225 187 262 235 c 0,9,10
 439 467 439 467 666.5 745.5 c 128,-1,11
 894 1024 894 1024 1019 1175 c 1,12,-1
 678 1175 l 2,13,14
 556 1175 556 1175 404 1123 c 1,15,-1
 453 1337 l 1,16,17
 529 1378 529 1378 595 1381.5 c 128,-1,18
 661 1385 661 1385 717 1385 c 2,19,-1
 1197 1385 l 2,20,21
 1245 1385 1245 1385 1259 1371 c 1,22,23
 1263 1363 1263 1363 1263 1355 c 0,24,25
 1263 1343 1263 1343 1257 1316 c 1,26,27
 1238 1245 1238 1245 1195 1184 c 1,28,29
 1005 923 1005 923 816.5 661.5 c 128,-1,30
 628 400 628 400 438 139 c 0,0,1
EndSplineSet
Validated: 1
EndChar

StartChar: eight
Encoding: 56 56 27
Width: 1100
GlyphClass: 2
Flags: W
LayerCount: 2
Fore
SplineSet
728 715 m 0,0,1
 616 715 616 715 518 641 c 128,-1,2
 420 567 420 567 380 391 c 0,3,4
 362 313 362 313 362 256 c 0,5,6
 362 181 362 181 392 141 c 0,7,8
 442 72 442 72 570 72 c 0,9,10
 701 72 701 72 787.5 142.5 c 128,-1,11
 874 213 874 213 916 397 c 0,12,13
 933 470 933 470 933 525 c 0,14,15
 933 607 933 607 897 648 c 0,16,17
 836 715 836 715 728 715 c 0,0,1
915 1428 m 1,18,19
 1132 1425 1132 1425 1214 1319 c 0,20,21
 1267 1252 1267 1252 1267 1158 c 0,22,23
 1267 1115 1267 1115 1256 1066 c 1,24,-1
 1253 1054 l 1,25,26
 1190 813 1190 813 991 772 c 1,27,28
 1047 756 1047 756 1115 655 c 0,29,30
 1161 586 1161 586 1161 488 c 0,31,32
 1161 442 1161 442 1151 389 c 1,33,-1
 1147 372 l 2,34,35
 1100 169 1100 169 936 68 c 0,36,37
 767 -37 767 -37 537 -39 c 1,38,-1
 529 -39 l 2,39,40
 301 -39 301 -39 191 74 c 0,41,42
 114 152 114 152 114 278 c 0,43,44
 114 332 114 332 128 394 c 0,45,46
 166 556 166 556 283 657 c 128,-1,47
 400 758 400 758 478 776 c 1,48,49
 351 808 351 808 351 988 c 0,50,51
 351 1029 351 1029 361 1076 c 1,52,-1
 362 1080 l 1,53,54
 403 1253 403 1253 554 1343 c 1,55,56
 699 1428 699 1428 901 1428 c 2,57,-1
 915 1428 l 1,18,19
874 1325 m 0,58,59
 757 1325 757 1325 688 1251 c 128,-1,60
 619 1177 619 1177 594 1070 c 0,61,62
 582 1019 582 1019 582 975 c 0,63,64
 582 926 582 926 597 887 c 0,65,66
 621 822 621 822 748 822 c 0,67,68
 879 822 879 822 941 895 c 128,-1,69
 1003 968 1003 968 1028 1076 c 0,70,71
 1039 1121 1039 1121 1039 1159 c 0,72,73
 1039 1214 1039 1214 1018 1258 c 0,74,75
 986 1325 986 1325 874 1325 c 0,58,59
EndSplineSet
Validated: 1
EndChar

StartChar: nine
Encoding: 57 57 28
Width: 1100
GlyphClass: 2
Flags: W
LayerCount: 2
Fore
SplineSet
677 523 m 1,0,1
 788 528 788 528 897 650 c 128,-1,2
 1006 772 1006 772 1046 941 c 0,3,4
 1062 1009 1062 1009 1062 1068 c 0,5,6
 1062 1155 1062 1155 1028 1223 c 0,7,8
 978 1322 978 1322 883 1322 c 2,9,-1
 872 1322 l 1,10,11
 760 1317 760 1317 652 1196 c 0,12,13
 543 1074 543 1074 504 907 c 1,14,-1
 503 903 l 2,15,16
 487 835 487 835 487 776 c 0,17,18
 487 689 487 689 520 622 c 0,19,20
 568 523 568 523 665 523 c 2,21,-1
 677 523 l 1,0,1
829 433 m 1,22,23
 804 420 804 420 675 420 c 0,24,25
 641 420 641 420 607 424 c 0,26,27
 439 443 439 443 350 547 c 0,28,29
 256 658 256 658 256 805 c 0,30,31
 256 863 256 863 270 926 c 1,32,-1
 271 932 l 1,33,34
 319 1134 319 1134 496 1284 c 1,35,36
 673 1431 673 1431 872 1431 c 2,37,-1
 885 1431 l 1,38,39
 1100 1425 1100 1425 1204 1274 c 0,40,41
 1271 1177 1271 1177 1271 1052 c 0,42,43
 1271 992 1271 992 1256 926 c 1,44,-1
 1255 920 l 1,45,46
 1178 602 1178 602 989.5 378.5 c 128,-1,47
 801 155 801 155 519 -11 c 0,48,49
 510 -16 510 -16 502.5 -20.5 c 128,-1,50
 495 -25 495 -25 486 -31 c 1,51,52
 452 -46 452 -46 415 -46 c 0,53,54
 401 -46 401 -46 400 -45 c 1,55,-1
 349 -45 l 2,56,57
 283 -45 283 -45 283 -17 c 2,58,-1
 283 -15 l 1,59,60
 286 2 286 2 314 14 c 1,61,62
 499 125 499 125 629.5 233.5 c 128,-1,63
 760 342 760 342 829 433 c 1,22,23
EndSplineSet
Validated: 1
EndChar

StartChar: colon
Encoding: 58 58 29
Width: 512
GlyphClass: 2
Flags: W
LayerCount: 2
Fore
SplineSet
476 968 m 0,0,1
 594 968 594 968 594 886 c 0,2,3
 594 872 594 872 591 858 c 2,4,-1
 572 776 l 2,5,6
 548 672 548 672 417 672 c 0,7,8
 299 672 299 672 299 754 c 0,9,10
 299 768 299 768 302 782 c 2,11,-1
 321 864 l 2,12,13
 345 968 345 968 476 968 c 0,0,1
310 250 m 0,14,15
 428 250 428 250 428 168 c 0,16,17
 428 154 428 154 425 140 c 2,18,-1
 406 58 l 2,19,20
 382 -45 382 -45 251 -45 c 0,21,22
 133 -45 133 -45 133 37 c 0,23,24
 133 50 133 50 136 64 c 2,25,-1
 155 146 l 2,26,27
 179 250 179 250 310 250 c 0,14,15
EndSplineSet
Validated: 1
EndChar

StartChar: semi
Encoding: 59 59 30
Width: 512
GlyphClass: 2
Flags: W
LayerCount: 2
Fore
SplineSet
476 968 m 0,0,1
 594 968 594 968 594 886 c 0,2,3
 594 872 594 872 591 858 c 2,4,-1
 572 776 l 2,5,6
 548 672 548 672 417 672 c 0,7,8
 299 672 299 672 299 754 c 0,9,10
 299 768 299 768 302 782 c 2,11,-1
 321 864 l 2,12,13
 345 968 345 968 476 968 c 0,0,1
310 250 m 0,14,15
 428 250 428 250 428 168 c 0,16,17
 428 154 428 154 425 140 c 2,18,-1
 406 58 l 2,19,20
 400 34 400 34 383.5 5 c 128,-1,21
 367 -24 367 -24 356 -44 c 0,22,23
 288 -161 288 -161 151 -241 c 0,24,25
 103 -269 103 -269 72 -269 c 0,26,27
 42 -269 42 -269 29 -249 c 1,28,29
 21 -240 21 -240 21 -228 c 2,30,-1
 21 -222 l 1,31,32
 25 -206 25 -206 40 -193 c 0,33,34
 63 -172 63 -172 94 -157 c 1,35,36
 192 -104 192 -104 217 -45 c 1,37,-1
 251 -45 l 1,38,39
 133 -42 133 -42 133 38 c 0,40,41
 133 51 133 51 136 65 c 2,42,-1
 155 146 l 2,43,44
 179 250 179 250 310 250 c 0,14,15
EndSplineSet
Validated: 1
EndChar

StartChar: lt
Encoding: 60 60 31
Width: 1024
GlyphClass: 2
Flags: W
LayerCount: 2
Fore
SplineSet
307 596 m 2,0,1
 297 608 297 608 297 623 c 0,2,3
 297 628 297 628 299 633 c 0,4,5
 304 655 304 655 336 679 c 1,6,-1
 1092 1282 l 2,7,8
 1123 1307 1123 1307 1149 1307 c 256,9,10
 1175 1307 1175 1307 1190 1287 c 2,11,-1
 1228 1237 l 1,12,13
 1235 1225 1235 1225 1235 1214 c 0,14,15
 1235 1208 1235 1208 1234 1203 c 0,16,17
 1230 1180 1230 1180 1199 1156 c 2,18,-1
 539 628 l 1,19,-1
 954 103 l 2,20,21
 970 82 970 82 970 63 c 0,22,23
 970 58 970 58 968 52 c 0,24,25
 964 36 964 36 948 21 c 1,26,-1
 889 -27 l 2,27,28
 869 -43 869 -43 847 -43 c 0,29,30
 818 -43 818 -43 794 -15 c 1,31,-1
 307 596 l 2,0,1
EndSplineSet
Validated: 1
EndChar

StartChar: equals
Encoding: 61 61 32
Width: 1024
GlyphClass: 2
Flags: W
LayerCount: 2
Fore
SplineSet
328 557 m 2,0,-1
 991 557 l 2,1,2
 1048 557 1048 557 1048 517 c 0,3,4
 1048 512 1048 512 1047 506 c 2,5,-1
 1035 455 l 2,6,7
 1025 411 1025 411 967 411 c 2,8,-1
 304 411 l 2,9,10
 247 411 247 411 247 451 c 0,11,12
 247 456 247 456 248 462 c 2,13,-1
 260 513 l 2,14,15
 270 557 270 557 328 557 c 2,0,-1
396 852 m 2,16,-1
 1059 852 l 2,17,18
 1116 852 1116 852 1116 812 c 0,19,20
 1116 807 1116 807 1115 801 c 2,21,-1
 1103 750 l 2,22,23
 1093 706 1093 706 1035 706 c 2,24,-1
 372 706 l 2,25,26
 315 706 315 706 315 746 c 0,27,28
 315 751 315 751 316 757 c 2,29,-1
 328 808 l 2,30,31
 338 852 338 852 396 852 c 2,16,-1
EndSplineSet
Validated: 1
EndChar

StartChar: gt
Encoding: 62 62 33
Width: 1024
GlyphClass: 2
Flags: W
LayerCount: 2
Fore
SplineSet
1094 667 m 2,0,1
 1104 655 1104 655 1104 640 c 0,2,3
 1104 635 1104 635 1103 630 c 0,4,5
 1099 609 1099 609 1067 584 c 2,6,-1
 310 -18 l 2,7,8
 279 -43 279 -43 252 -43 c 0,9,10
 227 -43 227 -43 212 -23 c 2,11,-1
 175 24 l 2,12,13
 165 36 165 36 165 51 c 0,14,15
 165 56 165 56 167 61 c 0,16,17
 172 83 172 83 202 107 c 2,18,-1
 864 635 l 1,19,-1
 448 1159 l 2,20,21
 431 1180 431 1180 431 1201 c 2,22,-1
 431 1208 l 1,23,24
 436 1227 436 1227 454 1242 c 2,25,-1
 513 1291 l 2,26,27
 533 1307 533 1307 554 1307 c 0,28,29
 584 1307 584 1307 608 1279 c 1,30,-1
 1094 667 l 2,0,1
EndSplineSet
Validated: 1
EndChar

StartChar: quest
Encoding: 63 63 34
Width: 784
GlyphClass: 2
Flags: W
LayerCount: 2
Fore
SplineSet
546 437 m 2,0,1
 533 382 533 382 515 349 c 1,2,3
 490 312 490 312 456 312 c 0,4,5
 416 312 416 312 411 360 c 0,6,7
 410 370 410 370 410 381 c 0,8,9
 410 408 410 408 418 445 c 2,10,-1
 491 760 l 1,11,12
 640 851 640 851 701 920 c 1,13,14
 761 991 761 991 783 1086 c 0,15,16
 794 1133 794 1133 794 1168 c 0,17,18
 794 1213 794 1213 778 1240 c 0,19,20
 753 1282 753 1282 679 1282 c 0,21,22
 612 1282 612 1282 571 1240 c 1,23,24
 525 1191 525 1191 486 1064 c 0,25,26
 476 1034 476 1034 449 1018 c 0,27,28
 421 1001 421 1001 380 1001 c 0,29,30
 335 1001 335 1001 313 1021 c 0,31,32
 299 1035 299 1035 299 1057 c 0,33,34
 299 1068 299 1068 302 1081 c 0,35,36
 334 1220 334 1220 445 1303 c 1,37,38
 557 1385 557 1385 716 1385 c 0,39,40
 882 1385 882 1385 962 1302 c 1,41,42
 1016 1244 1016 1244 1016 1159 c 0,43,44
 1016 1122 1016 1122 1006 1080 c 0,45,46
 966 908 966 908 766 799 c 0,47,48
 746 788 746 788 717 773 c 0,49,50
 652 737 652 737 631 708 c 0,51,52
 609 679 609 679 589 609 c 1,53,-1
 546 437 l 2,0,1
430 243 m 0,54,55
 546 243 546 243 546 162 c 0,56,57
 546 150 546 150 543 136 c 2,58,-1
 525 56 l 1,59,60
 501 -44 501 -44 373 -44 c 0,61,62
 259 -44 259 -44 259 35 c 0,63,64
 259 48 259 48 262 62 c 2,65,-1
 280 142 l 2,66,67
 303 243 303 243 430 243 c 0,54,55
EndSplineSet
Validated: 1
EndChar

StartChar: commat
Encoding: 64 64 35
Width: 2119
GlyphClass: 2
Flags: HW
LayerCount: 2
Fore
SplineSet
1899 166 m 0,0,1
 1832 98 1832 98 1750.5 40.5 c 128,-1,2
 1669 -17 1669 -17 1581 -49 c 1,3,4
 1479 -89 1479 -89 1387 -89 c 0,5,6
 1318 -89 1318 -89 1256 -66 c 0,7,8
 1172 -35 1172 -35 1172 47 c 0,9,10
 1172 68 1172 68 1177 91 c 2,11,-1
 1170 59 l 1,12,-1
 880 -33 l 2,13,14
 839 -45 839 -45 813 -45 c 2,15,-1
 771 -45 l 1,16,17
 614 -37 614 -37 558 84 c 0,18,19
 532 139 532 139 532 206 c 0,20,21
 532 252 532 252 543 303 c 1,22,23
 570 417 570 417 642.5 531.5 c 128,-1,24
 715 646 715 646 799 724 c 0,25,26
 848 770 848 770 936 820 c 0,27,28
 966 836 966 836 1003 848 c 0,29,30
 1098 879 1098 879 1191.5 909 c 128,-1,31
 1285 939 1285 939 1380 969 c 0,32,33
 1405 976 1405 976 1425 976 c 2,34,-1
 1431 976 l 1,35,36
 1498 973 1498 973 1579 942 c 1,37,38
 1590 939 1590 939 1594 935 c 1,39,40
 1607 929 1607 929 1633 918 c 0,41,42
 1639 916 1639 916 1644 916 c 0,43,44
 1652 916 1652 916 1662 921 c 1,45,46
 1689 938 1689 938 1701 948 c 1,47,48
 1715 962 1715 962 1736 962 c 0,49,50
 1746 962 1746 962 1757 958 c 1,51,52
 1784 944 1784 944 1784 924 c 2,53,-1
 1784 918 l 1,54,-1
 1781 913 l 1,55,-1
 1449 192 l 2,56,57
 1431 154 1431 154 1425 125 c 0,58,59
 1420 105 1420 105 1420 90 c 0,60,61
 1420 50 1420 50 1455 41 c 0,62,63
 1468 37 1468 37 1483 37 c 0,64,65
 1516 37 1516 37 1559 53 c 0,66,67
 1629 78 1629 78 1693 126 c 0,68,69
 1799 206 1799 206 1893 359 c 1,70,71
 1987 514 1987 514 2030 702 c 0,72,73
 2055 809 2055 809 2055 897 c 0,74,75
 2055 1086 2055 1086 1941 1193 c 0,76,77
 1775 1350 1775 1350 1482 1350 c 0,78,79
 1261 1350 1261 1350 1021 1240 c 0,80,81
 779 1130 779 1130 592 901 c 1,82,83
 403 674 403 674 336 384 c 0,84,85
 308 266 308 266 308 160 c 0,86,87
 308 63 308 63 331 -25 c 0,88,89
 378 -204 378 -204 525 -305 c 0,90,91
 669 -404 669 -404 907 -404 c 0,92,93
 1110 -404 1110 -404 1307 -333 c 1,94,95
 1487 -267 1487 -267 1638 -161 c 0,96,97
 1650 -152 1650 -152 1665 -152 c 0,98,99
 1684 -152 1684 -152 1698 -168 c 0,100,101
 1706 -178 1706 -178 1706 -190 c 0,102,103
 1706 -195 1706 -195 1704 -200 c 1,104,105
 1702 -212 1702 -212 1692 -225 c 0,106,107
 1674 -251 1674 -251 1654 -266 c 0,108,109
 1471 -405 1471 -405 1265.5 -466 c 128,-1,110
 1060 -527 1060 -527 843 -527 c 0,111,112
 429 -527 429 -527 224 -265 c 0,113,114
 85 -86 85 -86 85 157 c 0,115,116
 85 268 85 268 113 391 c 0,117,118
 217 842 217 842 615 1152 c 256,119,120
 1013 1462 1013 1462 1490 1462 c 0,121,122
 1876 1462 1876 1462 2081 1252 c 0,123,124
 2228 1100 2228 1100 2228 879 c 0,125,126
 2228 794 2228 794 2206 699 c 0,127,128
 2137 405 2137 405 1899 166 c 0,0,1
1201 160 m 1,129,-1
 1481 768 l 1,130,131
 1464 794 1464 794 1417.5 823 c 128,-1,132
 1371 852 1371 852 1328 854 c 1,133,-1
 1325 854 l 2,134,135
 1310 854 1310 854 1291 847 c 1,136,137
 1249 834 1249 834 1207 820.5 c 128,-1,138
 1165 807 1165 807 1123 794 c 0,139,140
 1099 787 1099 787 1078 772 c 0,141,142
 989 708 989 708 925.5 616.5 c 128,-1,143
 862 525 862 525 828 435 c 1,144,145
 809 389 809 389 800 349 c 0,146,147
 790 306 790 306 790 271 c 0,148,149
 790 238 790 238 798 211 c 0,150,151
 821 129 821 129 895 105 c 0,152,153
 925 95 925 95 958 95 c 0,154,155
 969 95 969 95 982 96 c 0,156,157
 1001 98 1001 98 1034 108 c 0,158,159
 1057 115 1057 115 1114.5 133.5 c 128,-1,160
 1172 152 1172 152 1201 160 c 1,129,-1
EndSplineSet
Validated: 1
EndChar

StartChar: A
Encoding: 65 65 36
Width: 1593
GlyphClass: 2
Flags: W
LayerCount: 2
Fore
SplineSet
1188 1447 m 1,0,1
 1215 1312 1215 1312 1249 1141 c 128,-1,2
 1283 970 1283 970 1320 789 c 128,-1,3
 1357 608 1357 608 1391 437 c 128,-1,4
 1425 266 1425 266 1449 149 c 1,5,6
 1454 118 1454 118 1484 93 c 1,7,8
 1502 80 1502 80 1522 70 c 128,-1,9
 1542 60 1542 60 1557 49 c 1,10,11
 1570 37 1570 37 1573 27 c 0,12,13
 1575 23 1575 23 1575 17 c 256,14,15
 1575 11 1575 11 1573 7 c 0,16,17
 1571 2 1571 2 1567 -4 c 0,18,19
 1556 -20 1556 -20 1532 -20 c 2,20,-1
 1194 -20 l 2,21,22
 1175 -20 1175 -20 1159 -8 c 1,23,24
 1144 5 1144 5 1144 19 c 1,25,26
 1143 22 1143 22 1143 29 c 1,27,28
 1147 47 1147 47 1168 61 c 1,29,30
 1179 70 1179 70 1192.5 78.5 c 128,-1,31
 1206 87 1206 87 1213 100 c 0,32,33
 1217 106 1217 106 1218 114 c 1,34,35
 1220 121 1220 121 1220 130 c 0,36,37
 1220 137 1220 137 1219 145 c 2,38,-1
 1154 469 l 1,39,-1
 607 469 l 1,40,41
 558 394 558 394 503 308.5 c 128,-1,42
 448 223 448 223 392 138 c 0,43,44
 380 120 380 120 376 106 c 0,45,46
 373 99 373 99 372 94 c 256,47,48
 371 89 371 89 371 84 c 2,49,-1
 371 78 l 2,50,51
 371 69 371 69 376 61 c 128,-1,52
 381 53 381 53 382 39 c 1,53,54
 381 28 381 28 380 26 c 1,55,56
 380 20 380 20 374 12 c 1,57,58
 356 -20 356 -20 325 -20 c 2,59,-1
 67 -20 l 2,60,61
 40 -20 40 -20 31 3 c 1,62,-1
 31 10 l 2,63,64
 31 20 31 20 35 29 c 1,65,66
 49 49 49 49 86 65 c 0,67,68
 102 72 102 72 121 80 c 128,-1,69
 140 88 140 88 159 99 c 0,70,71
 198 122 198 122 221 155 c 2,72,-1
 1090 1447 l 1,73,-1
 1188 1447 l 1,0,1
1130 590 m 1,74,-1
 1025 1116 l 1,75,76
 961 1017 961 1017 862.5 865 c 128,-1,77
 764 713 764 713 685 590 c 1,78,-1
 1130 590 l 1,74,-1
EndSplineSet
Validated: 1
EndChar

StartChar: B
Encoding: 66 66 37
Width: 1240
GlyphClass: 2
Flags: W
LayerCount: 2
Fore
SplineSet
1028 1424 m 2,0,1
 1131 1424 1131 1424 1237.5 1386.5 c 128,-1,2
 1344 1349 1344 1349 1381 1240 c 0,3,4
 1396 1197 1396 1197 1396 1145 c 0,5,6
 1396 1095 1396 1095 1383 1037 c 1,7,8
 1354 925 1354 925 1272 837 c 0,9,10
 1210 770 1210 770 1153 746 c 1,11,12
 1247 713 1247 713 1290 591 c 0,13,14
 1306 543 1306 543 1306 486 c 0,15,16
 1306 431 1306 431 1292 368 c 1,17,18
 1260 245 1260 245 1170 148 c 0,19,20
 1090 63 1090 63 971.5 21.5 c 128,-1,21
 853 -20 853 -20 761 -20 c 2,22,-1
 134 -20 l 2,23,24
 92 -20 92 -20 92 14 c 0,25,26
 92 19 92 19 93 25 c 0,27,28
 102 60 102 60 156 78 c 128,-1,29
 210 96 210 96 222 149 c 2,30,-1
 478 1262 l 2,31,32
 482 1275 482 1275 482 1286 c 0,33,34
 482 1313 482 1313 461 1321 c 0,35,36
 406 1343 406 1343 406 1377 c 0,37,38
 406 1382 406 1382 408 1387 c 0,39,40
 416 1424 416 1424 458 1424 c 2,41,-1
 1028 1424 l 2,0,1
573 667 m 1,42,-1
 440 93 l 1,43,-1
 636 93 l 2,44,45
 705 93 705 93 780 113 c 128,-1,46
 855 133 855 133 916 183 c 1,47,48
 1013 260 1013 260 1041 386 c 0,49,50
 1050 425 1050 425 1050 458 c 0,51,52
 1050 532 1050 532 1008 586 c 1,53,54
 943 667 943 667 799 667 c 2,55,-1
 573 667 l 1,42,-1
602 794 m 1,56,-1
 846 794 l 1,57,58
 958 806 958 806 1040 870 c 1,59,60
 1125 939 1125 939 1151 1054 c 1,61,62
 1160 1089 1160 1089 1160 1119 c 0,63,64
 1160 1186 1160 1186 1121 1233 c 0,65,66
 1063 1305 1063 1305 935 1305 c 2,67,-1
 720 1305 l 1,68,-1
 602 794 l 1,56,-1
EndSplineSet
Validated: 1
EndChar

StartChar: C
Encoding: 67 67 38
Width: 1400
GlyphClass: 2
Flags: W
LayerCount: 2
Fore
SplineSet
839 -57 m 0,0,1
 520 -57 520 -57 321 147 c 1,2,3
 180 290 180 290 180 510 c 0,4,5
 180 601 180 601 204 704 c 0,6,7
 284 1048 284 1048 568 1256.5 c 128,-1,8
 852 1465 852 1465 1182 1465 c 0,9,10
 1300 1465 1300 1465 1428 1438.5 c 128,-1,11
 1556 1412 1556 1412 1672 1325 c 1,12,-1
 1595 1103 l 1,13,14
 1581 1071 1581 1071 1547 1071 c 2,15,-1
 1543 1071 l 1,16,17
 1512 1074 1512 1074 1500 1115 c 1,18,19
 1468 1246 1468 1246 1390.5 1288 c 128,-1,20
 1313 1330 1313 1330 1160 1330 c 0,21,22
 947 1330 947 1330 743.5 1180 c 128,-1,23
 540 1030 540 1030 464 698 c 0,24,25
 449 633 449 633 449 571 c 0,26,27
 449 426 449 426 528 288 c 1,28,29
 636 96 636 96 864 85 c 0,30,31
 888 84 888 84 909 84 c 0,32,33
 1031 84 1031 84 1117 121 c 0,34,35
 1217 164 1217 164 1310 298 c 1,36,37
 1337 332 1337 332 1363 336 c 1,38,-1
 1370 336 l 2,39,40
 1409 336 1409 336 1409 300 c 2,41,-1
 1409 297 l 1,42,-1
 1405 269 l 1,43,-1
 1257 16 l 1,44,45
 1140 -28 1140 -28 1035 -42.5 c 128,-1,46
 930 -57 930 -57 839 -57 c 0,0,1
EndSplineSet
Validated: 1
EndChar

StartChar: D
Encoding: 68 68 39
Width: 1585
GlyphClass: 2
Flags: W
LayerCount: 2
Fore
SplineSet
1708 788 m 0,0,1
 1702 755 1702 755 1695 724 c 0,2,3
 1656 554 1656 554 1562 419 c 0,4,5
 1449 258 1449 258 1290 154 c 0,6,7
 1019 -23 1019 -23 687 -27 c 1,8,-1
 607 -27 l 2,9,10
 549 -27 549 -27 499 -26 c 1,11,-1
 382 -26 l 2,12,13
 298 -26 298 -26 255 -23 c 1,14,-1
 232 -23 l 2,15,16
 193 -23 193 -23 128 -29 c 1,17,18
 85 -29 85 -29 85 5 c 0,19,20
 85 11 85 11 86 17 c 0,21,22
 95 52 95 52 149 70 c 128,-1,23
 203 88 203 88 216 143 c 2,24,-1
 474 1266 l 2,25,26
 478 1280 478 1280 478 1291 c 0,27,28
 478 1318 478 1318 458 1326 c 0,29,30
 402 1346 402 1346 402 1381 c 0,31,32
 402 1386 402 1386 404 1391 c 0,33,34
 412 1428 412 1428 454 1428 c 0,35,36
 496 1427 496 1427 539 1427 c 0,37,38
 581 1427 581 1427 624 1428 c 0,39,40
 711 1431 711 1431 794 1433 c 1,41,-1
 853 1433 l 2,42,43
 1007 1433 1007 1433 1161 1425 c 1,44,45
 1348 1414 1348 1414 1485 1348 c 1,46,47
 1616 1283 1616 1283 1681 1151 c 0,48,49
 1722 1068 1722 1068 1722 946 c 0,50,51
 1722 874 1722 874 1708 788 c 0,0,1
723 1296 m 1,52,-1
 451 115 l 1,53,54
 544 97 544 97 655 97 c 0,55,56
 698 97 698 97 739 100 c 0,57,58
 889 112 889 112 1018 171 c 1,59,60
 1170 243 1170 243 1283 390 c 1,61,62
 1386 527 1386 527 1435 740 c 1,63,-1
 1443 772 l 1,64,65
 1461 858 1461 858 1461 928 c 0,66,67
 1461 988 1461 988 1448 1037 c 0,68,69
 1421 1141 1421 1141 1353 1203 c 0,70,71
 1253 1293 1253 1293 1082 1309 c 0,72,73
 1022 1314 1022 1314 959 1314 c 0,74,75
 838 1314 838 1314 723 1296 c 1,52,-1
EndSplineSet
Validated: 1
EndChar

StartChar: E
Encoding: 69 69 40
Width: 1251
GlyphClass: 2
Flags: W
LayerCount: 2
Fore
SplineSet
488 114 m 1,0,-1
 885 114 l 2,1,2
 967 114 967 114 1044 182 c 128,-1,3
 1121 250 1121 250 1163 290 c 0,4,5
 1194 319 1194 319 1215 319 c 0,6,7
 1257 319 1257 319 1257 285 c 0,8,9
 1257 280 1257 280 1256 274 c 0,10,11
 1252 260 1252 260 1247 250 c 2,12,-1
 1109 -20 l 1,13,-1
 173 -20 l 2,14,15
 134 -20 134 -20 134 13 c 0,16,17
 134 17 134 17 135 24 c 0,18,19
 144 60 144 60 198 77.5 c 128,-1,20
 252 95 252 95 264 149 c 2,21,-1
 520 1261 l 2,22,23
 524 1275 524 1275 524 1286 c 0,24,25
 524 1314 524 1314 504 1322 c 0,26,27
 448 1342 448 1342 448 1377 c 0,28,29
 448 1382 448 1382 450 1387 c 0,30,31
 458 1424 458 1424 500 1424 c 2,32,-1
 1458 1424 l 1,33,-1
 1394 1144 l 2,34,35
 1385 1106 1385 1106 1343 1106 c 0,36,37
 1316 1106 1316 1106 1292 1159 c 1,38,39
 1258 1227 1258 1227 1235 1259 c 128,-1,40
 1212 1291 1212 1291 1166 1291 c 2,41,-1
 760 1291 l 1,42,-1
 643 788 l 1,43,-1
 842 788 l 2,44,45
 891 788 891 788 923 839.5 c 128,-1,46
 955 891 955 891 996 891 c 256,47,48
 1037 891 1037 891 1037 858 c 0,49,50
 1037 852 1037 852 1036 846 c 2,51,-1
 978 593 l 2,52,53
 969 555 969 555 928 555 c 0,54,55
 881 555 881 555 869.5 606 c 128,-1,56
 858 657 858 657 815 657 c 2,57,-1
 613 657 l 1,58,-1
 488 114 l 1,0,-1
EndSplineSet
Validated: 1
EndChar

StartChar: F
Encoding: 70 70 41
Width: 1139
GlyphClass: 2
Flags: W
LayerCount: 2
Fore
SplineSet
174 -20 m 2,0,1
 134 -20 134 -20 134 13 c 0,2,3
 134 19 134 19 136 26 c 0,4,5
 140 45 140 45 173 62 c 1,6,7
 190 72 190 72 211.5 84 c 128,-1,8
 233 96 233 96 248 114 c 1,9,10
 260 131 260 131 264 149 c 2,11,-1
 520 1261 l 2,12,13
 524 1275 524 1275 524 1286 c 0,14,15
 524 1314 524 1314 504 1322 c 0,16,17
 448 1342 448 1342 448 1377 c 0,18,19
 448 1382 448 1382 450 1387 c 0,20,21
 458 1424 458 1424 500 1424 c 2,22,-1
 1458 1424 l 1,23,-1
 1394 1144 l 2,24,25
 1385 1106 1385 1106 1343 1106 c 0,26,27
 1316 1106 1316 1106 1292 1159 c 1,28,29
 1258 1227 1258 1227 1235 1259 c 128,-1,30
 1212 1291 1212 1291 1166 1291 c 2,31,-1
 760 1291 l 1,32,-1
 643 788 l 1,33,-1
 842 788 l 2,34,35
 873 788 873 788 906 818 c 0,36,37
 927 838 927 838 946.5 864.5 c 128,-1,38
 966 891 966 891 996 891 c 0,39,40
 1037 891 1037 891 1037 858 c 0,41,42
 1037 852 1037 852 1036 846 c 2,43,-1
 978 593 l 2,44,45
 969 555 969 555 928 555 c 0,46,47
 890 555 890 555 881.5 587 c 128,-1,48
 873 619 873 619 859 640 c 0,49,50
 846 658 846 658 822 658 c 2,51,-1
 614 658 l 1,52,-1
 495 143 l 2,53,54
 492 131 492 131 492 121 c 256,55,56
 492 111 492 111 495 103 c 0,57,58
 500 90 500 90 513 80.5 c 128,-1,59
 526 71 526 71 539 62 c 0,60,61
 565 44 565 44 565 24 c 2,62,-1
 565 19 l 1,63,64
 562 9 562 9 560 4 c 1,65,66
 540 -20 540 -20 515 -20 c 2,67,-1
 174 -20 l 2,0,1
EndSplineSet
Validated: 1
EndChar

StartChar: G
Encoding: 71 71 42
Width: 1563
GlyphClass: 2
Flags: W
LayerCount: 2
Fore
SplineSet
839 -57 m 0,0,1
 520 -57 520 -57 321 147 c 1,2,3
 180 290 180 290 180 510 c 0,4,5
 180 601 180 601 204 704 c 0,6,7
 284 1048 284 1048 568 1256.5 c 128,-1,8
 852 1465 852 1465 1182 1465 c 0,9,10
 1300 1465 1300 1465 1428 1438.5 c 128,-1,11
 1556 1412 1556 1412 1672 1325 c 1,12,-1
 1595 1103 l 1,13,14
 1581 1071 1581 1071 1547 1071 c 2,15,-1
 1543 1071 l 1,16,17
 1512 1074 1512 1074 1500 1115 c 1,18,19
 1468 1246 1468 1246 1390.5 1288 c 128,-1,20
 1313 1330 1313 1330 1160 1330 c 0,21,22
 947 1330 947 1330 743.5 1180 c 128,-1,23
 540 1030 540 1030 464 698 c 0,24,25
 449 633 449 633 449 571 c 0,26,27
 449 426 449 426 528 288 c 1,28,29
 636 96 636 96 864 85 c 0,30,31
 888 84 888 84 909 84 c 0,32,33
 1018 84 1018 84 1098 112 c 0,34,35
 1192 146 1192 146 1273 247 c 1,36,-1
 1316 431 l 2,37,38
 1317 434 1317 434 1317 438 c 0,39,40
 1317 452 1317 452 1305 460 c 0,41,42
 1283 473 1283 473 1237 495 c 1,43,44
 1182 519 1182 519 1182 550 c 2,45,-1
 1182 556 l 1,46,47
 1191 595 1191 595 1233 595 c 2,48,-1
 1634 595 l 2,49,50
 1676 595 1676 595 1676 561 c 0,51,52
 1676 556 1676 556 1675 550 c 0,53,54
 1666 514 1666 514 1612 496 c 128,-1,55
 1558 478 1558 478 1546 425 c 2,56,-1
 1452 20 l 1,57,58
 1279 12 1279 12 1131 -23 c 1,59,60
 1053 -43 1053 -43 979 -50 c 128,-1,61
 905 -57 905 -57 839 -57 c 0,0,1
EndSplineSet
Validated: 1
EndChar

StartChar: H
Encoding: 72 72 43
Width: 1638
GlyphClass: 2
Flags: W
LayerCount: 2
Fore
SplineSet
750 1254 m 2,0,-1
 647 809 l 1,1,-1
 1441 809 l 1,2,-1
 1545 1261 l 2,3,4
 1549 1275 1549 1275 1549 1286 c 0,5,6
 1549 1313 1549 1313 1528 1321 c 0,7,8
 1473 1343 1473 1343 1473 1377 c 0,9,10
 1473 1382 1473 1382 1475 1387 c 0,11,12
 1483 1424 1483 1424 1525 1424 c 2,13,-1
 1864 1424 l 2,14,15
 1906 1424 1906 1424 1906 1390 c 0,16,17
 1906 1385 1906 1385 1905 1379 c 0,18,19
 1896 1343 1896 1343 1841.5 1325 c 128,-1,20
 1787 1307 1787 1307 1775 1254 c 2,21,-1
 1519 142 l 2,22,23
 1515 128 1515 128 1515 117 c 0,24,25
 1515 90 1515 90 1536 82 c 0,26,27
 1592 60 1592 60 1592 27 c 0,28,29
 1592 22 1592 22 1590 17 c 0,30,31
 1582 -20 1582 -20 1540 -20 c 2,32,-1
 1201 -20 l 2,33,34
 1159 -20 1159 -20 1159 14 c 0,35,36
 1159 19 1159 19 1160 25 c 0,37,38
 1169 60 1169 60 1223 77.5 c 128,-1,39
 1277 95 1277 95 1289 149 c 2,40,-1
 1411 677 l 1,41,-1
 617 677 l 1,42,-1
 494 142 l 2,43,44
 490 128 490 128 490 117 c 0,45,46
 490 90 490 90 510 82 c 0,47,48
 566 60 566 60 566 27 c 0,49,50
 566 22 566 22 564 17 c 0,51,52
 556 -20 556 -20 515 -20 c 2,53,-1
 176 -20 l 2,54,55
 134 -20 134 -20 134 14 c 0,56,57
 134 19 134 19 135 25 c 0,58,59
 144 60 144 60 198 77.5 c 128,-1,60
 252 95 252 95 264 149 c 2,61,-1
 520 1261 l 2,62,63
 524 1275 524 1275 524 1286 c 0,64,65
 524 1313 524 1313 503 1321 c 0,66,67
 448 1343 448 1343 448 1377 c 0,68,69
 448 1382 448 1382 450 1387 c 0,70,71
 458 1424 458 1424 500 1424 c 2,72,-1
 839 1424 l 2,73,74
 880 1424 880 1424 880 1391 c 0,75,76
 880 1385 880 1385 879 1379 c 0,77,78
 870 1343 870 1343 816 1325 c 128,-1,79
 762 1307 762 1307 750 1254 c 2,0,-1
EndSplineSet
Validated: 1
EndChar

StartChar: I
Encoding: 73 73 44
Width: 690
GlyphClass: 2
Flags: W
LayerCount: 2
Fore
SplineSet
749 1253 m 2,0,-1
 494 143 l 2,1,2
 490 129 490 129 490 117 c 0,3,4
 490 90 490 90 510 82 c 0,5,6
 566 60 566 60 566 27 c 0,7,8
 566 22 566 22 564 17 c 0,9,10
 556 -20 556 -20 514 -20 c 2,11,-1
 175 -20 l 2,12,13
 134 -20 134 -20 134 13 c 0,14,15
 134 19 134 19 135 25 c 0,16,17
 144 60 144 60 198 77.5 c 128,-1,18
 252 95 252 95 264 149 c 2,19,-1
 520 1261 l 2,20,21
 524 1275 524 1275 524 1286 c 0,22,23
 524 1314 524 1314 504 1322 c 0,24,25
 448 1342 448 1342 448 1377 c 0,26,27
 448 1382 448 1382 450 1387 c 0,28,29
 458 1424 458 1424 500 1424 c 2,30,-1
 838 1424 l 2,31,32
 880 1424 880 1424 880 1390 c 0,33,34
 880 1385 880 1385 879 1379 c 0,35,36
 870 1343 870 1343 816 1325.5 c 128,-1,37
 762 1308 762 1308 749 1253 c 2,0,-1
EndSplineSet
Validated: 1
EndChar

StartChar: J
Encoding: 74 74 45
Width: 682
GlyphClass: 2
Flags: W
LayerCount: 2
Fore
SplineSet
497 177 m 1,0,1
 450 -22 450 -22 400 -121 c 128,-1,2
 350 -220 350 -220 266 -291 c 1,3,4
 150 -387 150 -387 -14 -428 c 1,5,-1
 6 -337 l 1,6,7
 58 -310 58 -310 98 -274.5 c 128,-1,8
 138 -239 138 -239 169 -181 c 0,9,10
 190 -142 190 -142 207 -69.5 c 128,-1,11
 224 3 224 3 264 177 c 2,12,-1
 514 1262 l 2,13,14
 518 1276 518 1276 518 1287 c 0,15,16
 518 1314 518 1314 498 1322 c 0,17,18
 443 1344 443 1344 443 1378 c 0,19,20
 443 1383 443 1383 444 1388 c 0,21,22
 452 1424 452 1424 494 1424 c 2,23,-1
 833 1424 l 2,24,25
 876 1424 876 1424 876 1390 c 0,26,27
 876 1385 876 1385 874 1380 c 0,28,29
 866 1344 866 1344 811.5 1326 c 128,-1,30
 757 1308 757 1308 745 1255 c 2,31,-1
 497 177 l 1,0,1
EndSplineSet
Validated: 1
EndChar

StartChar: K
Encoding: 75 75 46
Width: 1487
GlyphClass: 2
Flags: W
LayerCount: 2
Fore
SplineSet
646 804 m 1,0,-1
 1228 1255 l 2,1,2
 1322 1328 1322 1328 1388 1381 c 0,3,4
 1440 1423 1440 1423 1486 1423 c 0,5,6
 1512 1423 1512 1423 1534 1410 c 2,7,-1
 1629 1358 l 1,8,9
 1651 1343 1651 1343 1651 1324 c 0,10,11
 1651 1319 1651 1319 1650 1314 c 0,12,13
 1648 1306 1648 1306 1641 1296 c 1,14,-1
 1545 1131 l 1,15,-1
 1459 1171 l 2,16,17
 1430 1184 1430 1184 1403 1184 c 0,18,19
 1361 1184 1361 1184 1321 1151 c 2,20,-1
 841 770 l 1,21,-1
 1422 89 l 1,22,23
 1435 72 1435 72 1451 64 c 0,24,25
 1481 47 1481 47 1481 25 c 2,26,-1
 1481 19 l 1,27,28
 1472 -20 1472 -20 1431 -20 c 2,29,-1
 1092 -20 l 2,30,31
 1050 -20 1050 -20 1050 14 c 0,32,33
 1050 19 1050 19 1052 26 c 0,34,35
 1055 39 1055 39 1074 54 c 1,36,37
 1090 65 1090 65 1092 69 c 1,38,-1
 1092 70 l 2,39,40
 1092 77 1092 77 1072 100 c 2,41,-1
 609 642 l 1,42,-1
 494 142 l 2,43,44
 490 128 490 128 490 117 c 0,45,46
 490 90 490 90 510 82 c 0,47,48
 566 60 566 60 566 27 c 0,49,50
 566 22 566 22 564 17 c 0,51,52
 556 -20 556 -20 515 -20 c 2,53,-1
 176 -20 l 2,54,55
 134 -20 134 -20 134 14 c 0,56,57
 134 19 134 19 135 25 c 0,58,59
 144 60 144 60 198 77.5 c 128,-1,60
 252 95 252 95 264 149 c 2,61,-1
 520 1261 l 2,62,63
 524 1275 524 1275 524 1286 c 0,64,65
 524 1313 524 1313 503 1321 c 0,66,67
 448 1343 448 1343 448 1377 c 0,68,69
 448 1382 448 1382 450 1387 c 0,70,71
 458 1424 458 1424 500 1424 c 2,72,-1
 839 1424 l 2,73,74
 880 1424 880 1424 880 1391 c 0,75,76
 880 1385 880 1385 879 1379 c 0,77,78
 870 1343 870 1343 816 1325 c 128,-1,79
 762 1307 762 1307 750 1254 c 2,80,-1
 646 804 l 1,0,-1
EndSplineSet
Validated: 1
EndChar

StartChar: L
Encoding: 76 76 47
Width: 1251
GlyphClass: 2
Flags: W
LayerCount: 2
Fore
SplineSet
488 114 m 1,0,-1
 885 114 l 2,1,2
 967 114 967 114 1044 182 c 128,-1,3
 1121 250 1121 250 1163 290 c 0,4,5
 1194 319 1194 319 1215 319 c 0,6,7
 1257 319 1257 319 1257 285 c 0,8,9
 1257 280 1257 280 1256 274 c 0,10,11
 1252 260 1252 260 1247 250 c 2,12,-1
 1109 -20 l 1,13,-1
 176 -20 l 2,14,15
 134 -20 134 -20 134 14 c 0,16,17
 134 19 134 19 135 25 c 0,18,19
 144 60 144 60 198 77.5 c 128,-1,20
 252 95 252 95 264 149 c 2,21,-1
 520 1261 l 2,22,23
 524 1275 524 1275 524 1286 c 0,24,25
 524 1313 524 1313 503 1321 c 0,26,27
 448 1343 448 1343 448 1377 c 0,28,29
 448 1382 448 1382 450 1387 c 0,30,31
 458 1424 458 1424 500 1424 c 2,32,-1
 839 1424 l 2,33,34
 880 1424 880 1424 880 1391 c 0,35,36
 880 1385 880 1385 879 1379 c 0,37,38
 870 1343 870 1343 816 1325 c 128,-1,39
 762 1307 762 1307 750 1254 c 2,40,-1
 488 114 l 1,0,-1
EndSplineSet
Validated: 1
EndChar

StartChar: M
Encoding: 77 77 48
Width: 1908
GlyphClass: 2
Flags: W
LayerCount: 2
Fore
SplineSet
2012 1254 m 2,0,-1
 1756 142 l 2,1,2
 1752 128 1752 128 1752 117 c 0,3,4
 1752 90 1752 90 1773 82 c 0,5,6
 1829 60 1829 60 1829 27 c 0,7,8
 1829 22 1829 22 1827 17 c 0,9,10
 1819 -20 1819 -20 1777 -20 c 2,11,-1
 1438 -20 l 2,12,13
 1396 -20 1396 -20 1396 14 c 0,14,15
 1396 19 1396 19 1397 25 c 0,16,17
 1406 60 1406 60 1460 77.5 c 128,-1,18
 1514 95 1514 95 1527 150 c 2,19,-1
 1746 1101 l 1,20,-1
 948 -50 l 1,21,-1
 873 -50 l 1,22,-1
 601 1063 l 1,23,-1
 389 142 l 2,24,25
 385 128 385 128 385 117 c 0,26,27
 385 90 385 90 405 82 c 0,28,29
 461 60 461 60 461 27 c 0,30,31
 461 22 461 22 459 17 c 0,32,33
 451 -20 451 -20 409 -20 c 2,34,-1
 155 -20 l 2,35,36
 113 -20 113 -20 113 14 c 0,37,38
 113 19 113 19 114 25 c 0,39,40
 123 60 123 60 177 77.5 c 128,-1,41
 231 95 231 95 243 149 c 2,42,-1
 499 1261 l 2,43,44
 503 1275 503 1275 503 1286 c 0,45,46
 503 1313 503 1313 482 1321 c 0,47,48
 427 1343 427 1343 427 1377 c 0,49,50
 427 1382 427 1382 429 1387 c 0,51,52
 437 1424 437 1424 479 1424 c 2,53,-1
 765 1424 l 1,54,-1
 1044 338 l 1,55,-1
 1808 1424 l 1,56,-1
 2101 1424 l 2,57,58
 2143 1424 2143 1424 2143 1390 c 0,59,60
 2143 1385 2143 1385 2142 1379 c 0,61,62
 2133 1343 2133 1343 2078.5 1325 c 128,-1,63
 2024 1307 2024 1307 2012 1254 c 2,0,-1
EndSplineSet
Validated: 1
EndChar

StartChar: N
Encoding: 78 78 49
Width: 1644
GlyphClass: 2
Flags: W
LayerCount: 2
Fore
SplineSet
1406 269 m 1,0,-1
 1634 1261 l 2,1,2
 1638 1275 1638 1275 1638 1286 c 0,3,4
 1638 1313 1638 1313 1618 1321 c 0,5,6
 1563 1343 1563 1343 1563 1377 c 0,7,8
 1563 1382 1563 1382 1565 1387 c 0,9,10
 1573 1424 1573 1424 1614 1424 c 2,11,-1
 1869 1424 l 2,12,13
 1911 1424 1911 1424 1911 1390 c 0,14,15
 1911 1385 1911 1385 1910 1379 c 0,16,17
 1901 1343 1901 1343 1847 1325 c 128,-1,18
 1793 1307 1793 1307 1781 1254 c 2,19,-1
 1474 -69 l 1,20,-1
 1270 -16 l 1,21,-1
 615 1123 l 1,22,-1
 389 142 l 2,23,24
 385 128 385 128 385 117 c 0,25,26
 385 90 385 90 405 82 c 0,27,28
 461 60 461 60 461 27 c 0,29,30
 461 22 461 22 459 17 c 0,31,32
 451 -20 451 -20 409 -20 c 2,33,-1
 155 -20 l 2,34,35
 113 -20 113 -20 113 14 c 0,36,37
 113 19 113 19 114 25 c 0,38,39
 123 60 123 60 177 77.5 c 128,-1,40
 231 95 231 95 243 149 c 2,41,-1
 499 1261 l 2,42,43
 503 1275 503 1275 503 1286 c 0,44,45
 503 1313 503 1313 482 1321 c 0,46,47
 427 1343 427 1343 427 1377 c 0,48,49
 427 1382 427 1382 429 1387 c 0,50,51
 437 1424 437 1424 479 1424 c 2,52,-1
 752 1424 l 1,53,-1
 1406 269 l 1,0,-1
EndSplineSet
Validated: 1
EndChar

StartChar: O
Encoding: 79 79 50
Width: 1610
GlyphClass: 2
Flags: W
LayerCount: 2
Fore
SplineSet
1122 1338 m 0,0,1
 827 1337 827 1337 666 1150.5 c 128,-1,2
 505 964 505 964 444 699 c 0,3,4
 421 601 421 601 421 515 c 0,5,6
 421 365 421 365 489 248 c 1,7,8
 590 68 590 68 819 66 c 1,9,-1
 824 66 l 2,10,11
 1051 66 1051 66 1244 262 c 0,12,13
 1439 460 1439 460 1494 699 c 1,14,-1
 1495 705 l 1,15,16
 1518 806 1518 806 1518 898 c 0,17,18
 1518 1031 1518 1031 1471 1149 c 0,19,20
 1396 1338 1396 1338 1122 1338 c 0,0,1
1142 1466 m 1,21,-1
 1152 1466 l 2,22,23
 1488 1466 1488 1466 1671 1259 c 0,24,25
 1791 1124 1791 1124 1791 931 c 0,26,27
 1791 849 1791 849 1770 757 c 0,28,29
 1764 729 1764 729 1755 701 c 0,30,31
 1653 351 1653 351 1385.5 157 c 128,-1,32
 1118 -37 1118 -37 799 -55 c 0,33,34
 776 -56 776 -56 752 -56 c 0,35,36
 461 -56 461 -56 284 145 c 1,37,38
 156 288 156 288 156 493 c 0,39,40
 156 578 156 578 177 673 c 1,41,42
 183 692 183 692 188 709 c 0,43,44
 279 1056 279 1056 540 1259 c 128,-1,45
 801 1462 801 1462 1142 1466 c 1,21,-1
EndSplineSet
Validated: 1
EndChar

StartChar: P
Encoding: 80 80 51
Width: 1237
GlyphClass: 2
Flags: W
LayerCount: 2
Fore
SplineSet
473 142 m 2,0,1
 469 128 469 128 469 117 c 0,2,3
 469 90 469 90 489 82 c 0,4,5
 545 60 545 60 545 27 c 0,6,7
 545 22 545 22 543 17 c 0,8,9
 535 -20 535 -20 494 -20 c 2,10,-1
 155 -20 l 2,11,12
 113 -20 113 -20 113 14 c 0,13,14
 113 19 113 19 114 25 c 0,15,16
 123 60 123 60 176 77.5 c 128,-1,17
 229 95 229 95 241 149 c 2,18,-1
 499 1261 l 2,19,20
 503 1275 503 1275 503 1286 c 0,21,22
 503 1313 503 1313 482 1321 c 0,23,24
 427 1343 427 1343 427 1377 c 0,25,26
 427 1382 427 1382 429 1387 c 0,27,28
 437 1424 437 1424 479 1424 c 2,29,-1
 1069 1424 l 2,30,31
 1177 1424 1177 1424 1288.5 1384.5 c 128,-1,32
 1400 1345 1400 1345 1440 1231 c 1,33,34
 1455 1185 1455 1185 1455 1131 c 0,35,36
 1455 1078 1455 1078 1442 1018 c 1,37,38
 1412 901 1412 901 1325 807 c 0,39,40
 1249 726 1249 726 1135.5 686.5 c 128,-1,41
 1022 647 1022 647 935 647 c 2,42,-1
 589 647 l 1,43,-1
 473 142 l 2,0,1
740 1301 m 1,44,-1
 614 757 l 1,45,-1
 816 757 l 2,46,47
 881 757 881 757 952 776 c 128,-1,48
 1023 795 1023 795 1082 842 c 0,49,50
 1174 915 1174 915 1201 1036 c 1,51,52
 1210 1071 1210 1071 1210 1103 c 0,53,54
 1210 1173 1210 1173 1169 1225 c 0,55,56
 1108 1301 1108 1301 971 1301 c 2,57,-1
 740 1301 l 1,44,-1
EndSplineSet
Validated: 1
EndChar

StartChar: Q
Encoding: 81 81 52
Width: 1610
GlyphClass: 2
Flags: W
LayerCount: 2
Fore
SplineSet
1122 1338 m 0,0,1
 827 1337 827 1337 666 1150.5 c 128,-1,2
 505 964 505 964 444 699 c 0,3,4
 421 601 421 601 421 515 c 0,5,6
 421 365 421 365 489 248 c 1,7,8
 590 68 590 68 819 66 c 1,9,-1
 824 66 l 2,10,11
 1051 66 1051 66 1244 262 c 0,12,13
 1439 460 1439 460 1494 699 c 1,14,-1
 1495 705 l 1,15,16
 1518 806 1518 806 1518 898 c 0,17,18
 1518 1031 1518 1031 1471 1149 c 0,19,20
 1396 1338 1396 1338 1122 1338 c 0,0,1
614 -46 m 1,21,22
 404 -25 404 -25 252 185 c 0,23,24
 156 318 156 318 156 496 c 0,25,26
 156 579 156 579 177 673 c 1,27,28
 183 692 183 692 188 709 c 0,29,30
 279 1056 279 1056 540 1259 c 128,-1,31
 801 1462 801 1462 1142 1466 c 1,32,-1
 1152 1466 l 2,33,34
 1488 1466 1488 1466 1671 1259 c 0,35,36
 1791 1124 1791 1124 1791 931 c 0,37,38
 1791 849 1791 849 1770 757 c 0,39,40
 1764 729 1764 729 1755 701 c 0,41,42
 1658 366 1658 366 1407.5 173 c 128,-1,43
 1157 -20 1157 -20 936 -43 c 1,44,45
 935 -42 935 -42 934 -42 c 1,46,-1
 934 -43 l 1,47,-1
 978 -66 l 2,48,49
 1167 -164 1167 -164 1262 -164 c 0,50,51
 1292 -164 1292 -164 1399 -135 c 1,52,-1
 1377 -227 l 1,53,54
 1260 -286 1260 -286 1197 -341 c 1,55,56
 1114 -330 1114 -330 1052 -311 c 1,57,58
 988 -290 988 -290 882 -241 c 1,59,60
 703 -161 703 -161 642 -161 c 0,61,62
 630 -161 630 -161 608 -169 c 0,63,64
 580 -179 580 -179 439 -260 c 1,65,-1
 467 -141 l 1,66,67
 600 -54 600 -54 614 -46 c 1,21,22
EndSplineSet
Validated: 1
EndChar

StartChar: R
Encoding: 82 82 53
Width: 1368
GlyphClass: 2
Flags: W
LayerCount: 2
Fore
SplineSet
1302 82 m 1,0,1
 1315 68 1315 68 1349 65 c 1,2,3
 1396 59 1396 59 1396 28 c 0,4,5
 1396 22 1396 22 1394 18 c 2,6,-1
 1393 16 l 1,7,8
 1379 -20 1379 -20 1343 -20 c 2,9,-1
 1076 -20 l 2,10,11
 1050 -20 1050 -20 1006 64.5 c 128,-1,12
 962 149 962 149 909 257 c 128,-1,13
 856 365 856 365 800 477.5 c 128,-1,14
 744 590 744 590 712 647 c 1,15,-1
 589 647 l 1,16,-1
 473 142 l 2,17,18
 469 128 469 128 469 117 c 0,19,20
 469 90 469 90 489 82 c 0,21,22
 545 60 545 60 545 27 c 0,23,24
 545 22 545 22 543 17 c 0,25,26
 535 -20 535 -20 494 -20 c 2,27,-1
 155 -20 l 2,28,29
 113 -20 113 -20 113 14 c 0,30,31
 113 19 113 19 114 25 c 0,32,33
 123 60 123 60 177 77.5 c 128,-1,34
 231 95 231 95 243 149 c 2,35,-1
 499 1261 l 2,36,37
 503 1275 503 1275 503 1286 c 0,38,39
 503 1313 503 1313 482 1321 c 0,40,41
 427 1343 427 1343 427 1377 c 0,42,43
 427 1382 427 1382 429 1387 c 0,44,45
 437 1424 437 1424 479 1424 c 2,46,-1
 1069 1424 l 2,47,48
 1177 1424 1177 1424 1288.5 1384.5 c 128,-1,49
 1400 1345 1400 1345 1440 1231 c 1,50,51
 1455 1185 1455 1185 1455 1131 c 0,52,53
 1455 1078 1455 1078 1442 1018 c 1,54,55
 1412 901 1412 901 1325 807 c 0,56,57
 1255 732 1255 732 1152 692.5 c 128,-1,58
 1049 653 1049 653 999 650 c 1,59,-1
 1302 82 l 1,0,1
740 1301 m 1,60,-1
 614 757 l 1,61,-1
 816 757 l 2,62,63
 881 757 881 757 952 776 c 128,-1,64
 1023 795 1023 795 1082 842 c 0,65,66
 1174 915 1174 915 1201 1036 c 1,67,68
 1210 1071 1210 1071 1210 1103 c 0,69,70
 1210 1173 1210 1173 1169 1225 c 0,71,72
 1108 1301 1108 1301 971 1301 c 2,73,-1
 740 1301 l 1,60,-1
EndSplineSet
Validated: 1
EndChar

StartChar: S
Encoding: 83 83 54
Width: 1075
GlyphClass: 2
Flags: W
LayerCount: 2
Fore
SplineSet
546 75 m 0,0,1
 623 80 623 80 701 115 c 128,-1,2
 779 150 779 150 837 218 c 0,3,4
 898 290 898 290 922 391 c 1,5,-1
 924 402 l 1,6,7
 930 429 930 429 930 452 c 0,8,9
 930 519 930 519 885 559 c 0,10,11
 858 583 858 583 812 597 c 0,12,13
 716 625 716 625 606.5 637.5 c 128,-1,14
 497 650 497 650 405 700 c 0,15,16
 317 747 317 747 290 837 c 0,17,18
 276 882 276 882 276 931 c 0,19,20
 276 975 276 975 286 1021 c 0,21,22
 331 1216 331 1216 496 1340 c 0,23,24
 666 1469 666 1469 880 1469 c 2,25,-1
 911 1469 l 1,26,27
 1140 1459 1140 1459 1291 1344 c 1,28,-1
 1214 1123 l 2,29,30
 1203 1090 1203 1090 1167 1090 c 2,31,-1
 1162 1090 l 1,32,33
 1128 1093 1128 1093 1120 1135 c 1,34,35
 1100 1219 1100 1219 1038 1277 c 128,-1,36
 976 1335 976 1335 893 1339 c 1,37,-1
 878 1339 l 2,38,39
 792 1339 792 1339 718 1308 c 1,40,41
 669 1286 669 1286 637 1259 c 0,42,43
 606 1233 606 1233 579 1194 c 1,44,45
 556 1163 556 1163 538 1121 c 0,46,47
 524 1090 524 1090 518 1063 c 0,48,49
 512 1037 512 1037 512 1015 c 0,50,51
 512 1005 512 1005 513 995 c 0,52,53
 518 935 518 935 555 904 c 1,54,55
 583 879 583 879 620 870 c 1,56,57
 643 863 643 863 676.5 857 c 128,-1,58
 710 851 710 851 747 845 c 0,59,60
 802 836 802 836 864.5 826 c 128,-1,61
 927 816 927 816 985 797 c 0,62,63
 1086 763 1086 763 1127 703 c 0,64,65
 1156 659 1156 659 1168 607 c 1,66,67
 1173 579 1173 579 1173 549 c 0,68,69
 1173 504 1173 504 1162 456 c 0,70,71
 1111 235 1111 235 897 88 c 1,72,73
 787 11 787 11 665 -25 c 0,74,75
 567 -54 567 -54 462 -58 c 0,76,77
 440 -59 440 -59 418 -59 c 0,78,79
 274 -59 274 -59 138 -14 c 1,80,-1
 102 263 l 1,81,-1
 102 276 l 1,82,83
 107 292 107 292 119 305 c 1,84,85
 137 327 137 327 167 327 c 1,86,87
 195 319 195 319 206 282 c 1,88,89
 236 151 236 151 313 109 c 0,90,91
 378 73 378 73 493 73 c 0,92,93
 518 73 518 73 546 75 c 0,0,1
EndSplineSet
Validated: 1
EndChar

StartChar: T
Encoding: 84 84 55
Width: 1255
GlyphClass: 2
Flags: W
LayerCount: 2
Fore
SplineSet
1505 1144 m 2,0,1
 1496 1106 1496 1106 1454 1106 c 0,2,3
 1428 1106 1428 1106 1402 1159 c 1,4,5
 1367 1226 1367 1226 1344 1258.5 c 128,-1,6
 1321 1291 1321 1291 1275 1291 c 2,7,-1
 1045 1291 l 1,8,-1
 780 142 l 2,9,10
 776 128 776 128 776 117 c 0,11,12
 776 89 776 89 795 82 c 0,13,14
 851 59 851 59 851 25 c 2,15,-1
 851 18 l 1,16,17
 841 -20 841 -20 801 -20 c 2,18,-1
 462 -20 l 2,19,20
 420 -20 420 -20 420 13 c 0,21,22
 420 18 420 18 421 23 c 0,23,24
 429 59 429 59 483.5 77 c 128,-1,25
 538 95 538 95 551 150 c 2,26,-1
 814 1291 l 1,27,-1
 589 1291 l 2,28,29
 539 1291 539 1291 497 1256.5 c 128,-1,30
 455 1222 455 1222 390 1154 c 0,31,32
 345 1106 345 1106 324 1106 c 0,33,34
 282 1106 282 1106 282 1140 c 0,35,36
 282 1145 282 1145 283 1151 c 2,37,-1
 326 1335 l 2,38,39
 340 1398 340 1398 368.5 1413.5 c 128,-1,40
 397 1429 397 1429 482 1429 c 2,41,-1
 1426 1429 l 2,42,43
 1518 1429 1518 1429 1540 1413 c 0,44,45
 1554 1402 1554 1402 1554 1377 c 0,46,47
 1554 1358 1554 1358 1548 1329 c 2,48,-1
 1505 1144 l 2,0,1
EndSplineSet
Validated: 1
EndChar

StartChar: U
Encoding: 85 85 56
Width: 1554
GlyphClass: 2
Flags: W
LayerCount: 2
Fore
SplineSet
345 591 m 2,0,-1
 499 1262 l 2,1,2
 503 1276 503 1276 503 1287 c 0,3,4
 503 1314 503 1314 483 1322 c 0,5,6
 427 1342 427 1342 427 1377 c 0,7,8
 427 1382 427 1382 429 1387 c 0,9,10
 437 1424 437 1424 479 1424 c 2,11,-1
 818 1424 l 2,12,13
 859 1424 859 1424 859 1391 c 0,14,15
 859 1385 859 1385 858 1379 c 0,16,17
 849 1342 849 1342 796.5 1325.5 c 128,-1,18
 744 1309 744 1309 732 1257 c 2,19,-1
 607 718 l 2,20,21
 572 565 572 565 555 448 c 0,22,23
 548 399 548 399 548 356 c 0,24,25
 548 300 548 300 560 255 c 0,26,27
 580 182 580 182 648.5 144 c 128,-1,28
 717 106 717 106 859 106 c 0,29,30
 1108 106 1108 106 1243 303 c 0,31,32
 1342 447 1342 447 1405 724 c 2,33,-1
 1529 1261 l 2,34,35
 1533 1275 1533 1275 1533 1286 c 0,36,37
 1533 1313 1533 1313 1512 1321 c 0,38,39
 1457 1343 1457 1343 1457 1377 c 0,40,41
 1457 1382 1457 1382 1459 1387 c 0,42,43
 1467 1424 1467 1424 1509 1424 c 2,44,-1
 1764 1424 l 2,45,46
 1805 1424 1805 1424 1805 1391 c 0,47,48
 1805 1385 1805 1385 1804 1379 c 0,49,50
 1795 1343 1795 1343 1741.5 1325 c 128,-1,51
 1688 1307 1688 1307 1676 1254 c 2,52,-1
 1522 584 l 1,53,54
 1485 434 1485 434 1429 308 c 128,-1,55
 1373 182 1373 182 1280 95 c 1,56,57
 1111 -59 1111 -59 830 -59 c 0,58,59
 655 -59 655 -59 535.5 -25 c 128,-1,60
 416 9 416 9 359 100 c 0,61,62
 309 179 309 179 309 315 c 0,63,64
 309 432 309 432 345 591 c 2,0,-1
EndSplineSet
Validated: 1
EndChar

StartChar: V
Encoding: 86 86 57
Width: 1479
GlyphClass: 2
Flags: W
LayerCount: 2
Fore
SplineSet
709 1266 m 2,0,-1
 872 238 l 1,1,-1
 1504 1117 l 2,2,3
 1521 1140 1521 1140 1524 1157 c 0,4,5
 1526 1164 1526 1164 1526 1169 c 0,6,7
 1526 1175 1526 1175 1524 1180 c 0,8,9
 1513 1209 1513 1209 1485 1255 c 2,10,-1
 1440 1326 l 1,11,-1
 1601 1430 l 1,12,13
 1616 1442 1616 1442 1635 1442 c 0,14,15
 1657 1442 1657 1442 1676 1423 c 1,16,-1
 1740 1338 l 1,17,18
 1756 1315 1756 1315 1756 1286 c 0,19,20
 1756 1273 1756 1273 1753 1259 c 0,21,22
 1747 1235 1747 1235 1733 1207 c 1,23,24
 1691 1135 1691 1135 1622 1038 c 2,25,-1
 897 23 l 1,26,27
 885 4 885 4 873 -8 c 1,28,29
 855 -20 855 -20 838 -20 c 2,30,-1
 687 -20 l 2,31,32
 660 -20 660 -20 650 0 c 0,33,34
 647 5 647 5 643.5 27 c 128,-1,35
 640 49 640 49 639 58 c 2,36,-1
 503 1108 l 1,37,38
 488 1213 488 1213 479 1255 c 0,39,40
 472 1286 472 1286 444 1311 c 1,41,42
 425 1324 425 1324 405 1333.5 c 128,-1,43
 385 1343 385 1343 371 1354 c 1,44,45
 356 1364 356 1364 354 1380 c 0,46,47
 353 1384 353 1384 353 1389 c 2,48,-1
 353 1394 l 1,49,50
 356 1404 356 1404 362 1410 c 0,51,52
 374 1424 374 1424 395 1424 c 2,53,-1
 734 1424 l 2,54,55
 753 1424 753 1424 770 1411 c 1,56,57
 782 1397 782 1397 783 1391 c 1,58,59
 785 1389 785 1389 785 1380 c 0,60,61
 785 1372 785 1372 783 1370 c 1,62,63
 780 1358 780 1358 761 1343 c 1,64,65
 747 1334 747 1334 734.5 1325 c 128,-1,66
 722 1316 722 1316 714 1304 c 0,67,68
 710 1297 710 1297 708 1289 c 0,69,70
 707 1285 707 1285 707 1280 c 0,71,72
 707 1274 707 1274 709 1266 c 2,0,-1
EndSplineSet
Validated: 1
EndChar

StartChar: W
Encoding: 87 87 58
Width: 2048
GlyphClass: 2
Flags: W
LayerCount: 2
Fore
SplineSet
667 1266 m 2,0,-1
 830 238 l 1,1,-1
 1148 680 l 1,2,-1
 1092 1108 l 2,3,4
 1086 1159 1086 1159 1080 1194.5 c 128,-1,5
 1074 1230 1074 1230 1069 1255 c 0,6,7
 1062 1286 1062 1286 1034 1311 c 1,8,9
 1015 1324 1015 1324 995 1333.5 c 128,-1,10
 975 1343 975 1343 961 1355 c 1,11,12
 949 1363 949 1363 943 1381 c 1,13,14
 943 1390 943 1390 945 1395 c 1,15,16
 946 1402 946 1402 951 1409 c 0,17,18
 961 1424 961 1424 985 1424 c 2,19,-1
 1324 1424 l 2,20,21
 1344 1424 1344 1424 1358 1411 c 0,22,23
 1372 1399 1372 1399 1373 1391 c 1,24,25
 1375 1389 1375 1389 1375 1380 c 0,26,27
 1375 1372 1375 1372 1373 1370 c 1,28,29
 1370 1358 1370 1358 1351 1343 c 1,30,31
 1337 1334 1337 1334 1324.5 1325 c 128,-1,32
 1312 1316 1312 1316 1304 1304 c 0,33,34
 1300 1297 1300 1297 1298 1289 c 0,35,36
 1297 1285 1297 1285 1297 1280 c 0,37,38
 1297 1274 1297 1274 1299 1266 c 2,39,-1
 1348 958 l 1,40,-1
 1462 1117 l 2,41,42
 1478 1139 1478 1139 1481 1158 c 1,43,44
 1484 1165 1484 1165 1484 1171 c 0,45,46
 1484 1176 1484 1176 1482 1180 c 0,47,48
 1470 1209 1470 1209 1443 1255 c 1,49,-1
 1397 1326 l 1,50,-1
 1559 1430 l 1,51,52
 1574 1442 1574 1442 1593 1442 c 0,53,54
 1615 1442 1615 1442 1634 1423 c 1,55,-1
 1698 1338 l 1,56,57
 1714 1315 1714 1315 1714 1286 c 0,58,59
 1714 1273 1714 1273 1711 1259 c 0,60,61
 1705 1235 1705 1235 1691 1207 c 1,62,63
 1649 1135 1649 1135 1580 1038 c 2,64,-1
 1380 758 l 1,65,-1
 1462 238 l 1,66,-1
 2094 1117 l 2,67,68
 2110 1139 2110 1139 2113 1158 c 1,69,70
 2116 1165 2116 1165 2116 1171 c 0,71,72
 2116 1176 2116 1176 2114 1180 c 0,73,74
 2102 1209 2102 1209 2074 1255 c 2,75,-1
 2029 1326 l 1,76,-1
 2190 1430 l 1,77,78
 2205 1442 2205 1442 2224 1442 c 0,79,80
 2247 1442 2247 1442 2266 1423 c 1,81,-1
 2330 1338 l 1,82,83
 2346 1315 2346 1315 2346 1286 c 0,84,85
 2346 1273 2346 1273 2343 1259 c 0,86,87
 2337 1235 2337 1235 2323 1207 c 1,88,89
 2281 1135 2281 1135 2212 1038 c 2,90,-1
 1487 23 l 1,91,92
 1475 2 1475 2 1462 -8 c 0,93,94
 1448 -20 1448 -20 1427 -20 c 2,95,-1
 1277 -20 l 2,96,97
 1247 -20 1247 -20 1240 -1 c 1,98,99
 1236 3 1236 3 1233 26 c 128,-1,100
 1230 49 1230 49 1229 58 c 2,101,-1
 1176 471 l 1,102,-1
 855 23 l 1,103,104
 843 2 843 2 830 -8 c 0,105,106
 816 -20 816 -20 795 -20 c 2,107,-1
 645 -20 l 2,108,109
 615 -20 615 -20 608 -1 c 1,110,111
 604 3 604 3 601 26 c 128,-1,112
 598 49 598 49 597 58 c 2,113,-1
 437 1256 l 2,114,115
 433 1284 433 1284 402 1311 c 1,116,117
 383 1324 383 1324 363 1333.5 c 128,-1,118
 343 1343 343 1343 329 1355 c 1,119,120
 317 1363 317 1363 311 1381 c 1,121,122
 311 1390 311 1390 313 1395 c 1,123,124
 314 1402 314 1402 319 1409 c 0,125,126
 329 1424 329 1424 353 1424 c 2,127,-1
 692 1424 l 2,128,129
 711 1424 711 1424 728 1411 c 1,130,131
 740 1397 740 1397 741 1391 c 1,132,133
 743 1389 743 1389 743 1380 c 0,134,135
 743 1372 743 1372 741 1370 c 1,136,137
 738 1358 738 1358 719 1343 c 1,138,139
 705 1334 705 1334 692.5 1325 c 128,-1,140
 680 1316 680 1316 672 1304 c 0,141,142
 668 1297 668 1297 666 1289 c 0,143,144
 665 1285 665 1285 665 1280 c 0,145,146
 665 1274 665 1274 667 1266 c 2,0,-1
EndSplineSet
Validated: 1
EndChar

StartChar: X
Encoding: 88 88 59
Width: 1366
GlyphClass: 2
Flags: W
LayerCount: 2
Fore
SplineSet
375 76 m 1,0,-1
 375 37 l 1,1,2
 370 19 370 19 351.5 -0.5 c 128,-1,3
 333 -20 333 -20 307 -20 c 2,4,-1
 49 -20 l 2,5,6
 12 -20 12 -20 12 9 c 1,7,-1
 15 15 l 1,8,9
 19 40 19 40 66 59 c 1,10,-1
 124 80 l 1,11,12
 201 110 201 110 247 158 c 2,13,-1
 760 702 l 1,14,-1
 530 1252 l 2,15,16
 509 1302 509 1302 436 1332 c 1,17,18
 410 1341 410 1341 394 1351 c 0,19,20
 368 1369 368 1369 368 1390 c 2,21,-1
 368 1396 l 1,22,-1
 370 1402 l 2,23,24
 377 1424 377 1424 405 1424 c 2,25,-1
 744 1424 l 2,26,27
 776 1424 776 1424 791 1400 c 0,28,29
 801 1385 801 1385 801 1374 c 2,30,-1
 801 1370 l 1,31,32
 797 1357 797 1357 786 1346.5 c 128,-1,33
 775 1336 775 1336 765 1327 c 128,-1,34
 755 1318 755 1318 752 1309 c 1,35,-1
 751 1304 l 2,36,37
 749 1299 749 1299 749 1294 c 0,38,39
 749 1282 749 1282 755 1270 c 2,40,-1
 922 873 l 1,41,-1
 1246 1216 l 2,42,43
 1338 1313 1338 1313 1403 1371.5 c 128,-1,44
 1468 1430 1468 1430 1521 1430 c 0,45,46
 1536 1430 1536 1430 1549 1425 c 2,47,-1
 1643 1394 l 1,48,49
 1670 1381 1670 1381 1670 1361 c 2,50,-1
 1670 1357 l 1,51,52
 1666 1343 1666 1343 1663 1334 c 1,53,-1
 1572 1146 l 1,54,-1
 1489 1167 l 1,55,56
 1441 1178 1441 1178 1411 1180 c 1,57,-1
 1409 1180 l 2,58,59
 1389 1180 1389 1180 1354 1141 c 1,60,-1
 978 739 l 1,61,-1
 1224 152 l 1,62,63
 1241 108 1241 108 1320 71 c 1,64,65
 1344 61 1344 61 1356 53 c 0,66,67
 1388 31 1388 31 1388 13 c 2,68,-1
 1388 9 l 1,69,70
 1380 -20 1380 -20 1349 -20 c 2,71,-1
 1010 -20 l 2,72,73
 993 -20 993 -20 976 -10 c 1,74,75
 952 6 952 6 952 24 c 0,76,77
 952 33 952 33 954 35 c 1,78,79
 956 46 956 46 978 67 c 128,-1,80
 1000 88 1000 88 1003 96 c 1,81,-1
 1004 101 l 2,82,83
 1005 106 1005 106 1005 113 c 0,84,85
 1005 124 1005 124 1002 136 c 1,86,-1
 818 567 l 1,87,-1
 415 135 l 2,88,89
 380 98 380 98 375 76 c 1,0,-1
EndSplineSet
Validated: 1
EndChar

StartChar: Y
Encoding: 89 89 60
Width: 1366
GlyphClass: 2
Flags: W
LayerCount: 2
Fore
SplineSet
721 671 m 2,0,-1
 506 1252 l 1,1,2
 494 1281 494 1281 453 1310 c 1,3,4
 431 1323 431 1323 407.5 1332.5 c 128,-1,5
 384 1342 384 1342 368 1354 c 1,6,7
 353 1362 353 1362 346 1378 c 0,8,9
 344 1385 344 1385 344 1391 c 2,10,-1
 344 1396 l 1,11,-1
 346 1402 l 2,12,13
 353 1424 353 1424 381 1424 c 2,14,-1
 720 1424 l 2,15,16
 740 1424 740 1424 755 1412 c 0,17,18
 768 1402 768 1402 775 1389 c 1,19,20
 777 1382 777 1382 777 1376 c 2,21,-1
 777 1371 l 1,22,23
 773 1357 773 1357 761 1345 c 1,24,25
 750 1336 750 1336 740.5 1327 c 128,-1,26
 731 1318 731 1318 728 1309 c 1,27,-1
 727 1304 l 2,28,29
 725 1299 725 1299 725 1294 c 0,30,31
 725 1283 725 1283 732 1269 c 1,32,-1
 930 773 l 1,33,-1
 1251 1136 l 2,34,35
 1288 1177 1288 1177 1299 1206 c 0,36,37
 1301 1209 1301 1209 1301 1213 c 0,38,39
 1303 1222 1303 1222 1303 1233 c 0,40,41
 1303 1255 1303 1255 1296 1284 c 2,42,-1
 1274 1367 l 1,43,-1
 1448 1436 l 2,44,45
 1462 1441 1462 1441 1473 1441 c 0,46,47
 1504 1441 1504 1441 1517 1411 c 1,48,-1
 1554 1309 l 2,49,50
 1559 1296 1559 1296 1559 1282 c 0,51,52
 1559 1272 1559 1272 1557 1262 c 0,53,54
 1547 1223 1547 1223 1500 1183 c 0,55,56
 1435 1128 1435 1128 1356 1042 c 2,57,-1
 1001 654 l 2,58,59
 980 631 980 631 963.5 584 c 128,-1,60
 947 537 947 537 938 494 c 2,61,-1
 857 142 l 2,62,63
 853 128 853 128 853 117 c 0,64,65
 853 90 853 90 873 82 c 0,66,67
 929 60 929 60 929 27 c 0,68,69
 929 22 929 22 927 17 c 0,70,71
 919 -20 919 -20 877 -20 c 2,72,-1
 538 -20 l 2,73,74
 496 -20 496 -20 496 14 c 0,75,76
 496 19 496 19 497 25 c 0,77,78
 506 60 506 60 560 77.5 c 128,-1,79
 614 95 614 95 626 149 c 2,80,-1
 724 576 l 2,81,82
 730 600 730 600 730 621 c 0,83,84
 730 648 730 648 721 671 c 2,0,-1
EndSplineSet
Validated: 1
EndChar

StartChar: Z
Encoding: 90 90 61
Width: 1366
GlyphClass: 2
Flags: W
LayerCount: 2
Fore
SplineSet
43 73 m 2,0,-1
 1271 1292 l 1,1,-1
 715 1291 l 2,2,3
 665 1291 665 1291 623.5 1256.5 c 128,-1,4
 582 1222 582 1222 517 1154 c 0,5,6
 472 1106 472 1106 450 1106 c 0,7,8
 408 1106 408 1106 408 1140 c 0,9,10
 408 1145 408 1145 409 1151 c 2,11,-1
 452 1335 l 2,12,13
 466 1398 466 1398 495.5 1413.5 c 128,-1,14
 525 1429 525 1429 608 1429 c 2,15,-1
 1532 1429 l 2,16,17
 1627 1429 1627 1429 1649 1403 c 0,18,19
 1657 1393 1657 1393 1657 1381 c 0,20,21
 1657 1376 1657 1376 1656 1370 c 0,22,23
 1651 1350 1651 1350 1627 1320 c 1,24,-1
 393 118 l 1,25,-1
 1121 119 l 2,26,27
 1171 119 1171 119 1212 153 c 128,-1,28
 1253 187 1253 187 1319 256 c 0,29,30
 1364 303 1364 303 1385 303 c 0,31,32
 1427 303 1427 303 1427 269 c 0,33,34
 1427 264 1427 264 1426 258 c 2,35,-1
 1384 74 l 2,36,37
 1368 7 1368 7 1342.5 -6.5 c 128,-1,38
 1317 -20 1317 -20 1228 -20 c 2,39,-1
 157 -20 l 2,40,41
 68 -20 68 -20 37 -10 c 0,42,43
 10 -2 10 -2 10 21 c 0,44,45
 10 27 10 27 12 30 c 1,46,47
 16 46 16 46 43 73 c 2,0,-1
EndSplineSet
Validated: 1
EndChar

StartChar: lsqb
Encoding: 91 91 62
Width: 682
GlyphClass: 2
Flags: W
LayerCount: 2
Fore
SplineSet
398 -347 m 2,0,1
 436 -347 436 -347 436 -382 c 0,2,3
 436 -389 436 -389 434 -398 c 0,4,5
 424 -440 424 -440 391 -440 c 2,6,-1
 144 -440 l 2,7,8
 102 -440 102 -440 102 -407 c 0,9,10
 102 -402 102 -402 103 -396 c 2,11,-1
 527 1439 l 2,12,13
 537 1486 537 1486 579 1486 c 2,14,-1
 826 1486 l 2,15,16
 859 1486 859 1486 859 1454 c 0,17,18
 859 1445 859 1445 857 1435 c 0,19,20
 846 1389 846 1389 808 1389 c 2,21,-1
 684 1389 l 1,22,-1
 283 -347 l 1,23,-1
 398 -347 l 2,0,1
EndSplineSet
Validated: 1
EndChar

StartChar: bsol
Encoding: 92 92 63
Width: 1024
GlyphClass: 2
Flags: W
LayerCount: 2
Fore
SplineSet
1005 -90 m 1,0,-1
 813 -90 l 1,1,-1
 313 1494 l 1,2,-1
 505 1494 l 1,3,-1
 1005 -90 l 1,0,-1
EndSplineSet
Validated: 1
EndChar

StartChar: rsqb
Encoding: 93 93 64
Width: 682
GlyphClass: 2
Flags: W
LayerCount: 2
Fore
SplineSet
152 -347 m 2,0,-1
 277 -347 l 1,1,-1
 678 1389 l 1,2,-1
 562 1389 l 2,3,4
 525 1389 525 1389 525 1423 c 0,5,6
 525 1432 525 1432 527 1441 c 0,7,8
 537 1486 537 1486 571 1486 c 2,9,-1
 818 1486 l 2,10,11
 859 1486 859 1486 859 1448 c 0,12,13
 859 1442 859 1442 858 1433 c 1,14,15
 818 1263 818 1263 761 1018.5 c 128,-1,16
 704 774 704 774 644 514 c 2,17,-1
 528 10 l 2,18,19
 472 -234 472 -234 434 -404 c 1,20,21
 424 -440 424 -440 383 -440 c 2,22,-1
 136 -440 l 2,23,24
 102 -440 102 -440 102 -408 c 0,25,26
 102 -400 102 -400 104 -390 c 0,27,28
 114 -347 114 -347 152 -347 c 2,0,-1
EndSplineSet
Validated: 1
EndChar

StartChar: circ
Encoding: 94 94 65
Width: 1024
GlyphClass: 2
Flags: W
LayerCount: 2
Fore
SplineSet
796 1450 m 1,0,-1
 935 1450 l 1,1,-1
 1144 892 l 1,2,-1
 1038 892 l 1,3,-1
 829 1274 l 1,4,-1
 443 892 l 1,5,-1
 330 892 l 1,6,-1
 796 1450 l 1,0,-1
EndSplineSet
Validated: 1
EndChar

StartChar: lowbar
Encoding: 95 95 66
Width: 1024
GlyphClass: 2
Flags: W
LayerCount: 2
Fore
SplineSet
-71 -198 m 1,0,-1
 1001 -198 l 1,1,-1
 964 -356 l 1,2,-1
 -108 -356 l 1,3,-1
 -71 -198 l 1,0,-1
EndSplineSet
Validated: 1
EndChar

StartChar: grave
Encoding: 96 96 67
Width: 1024
GlyphClass: 2
Flags: W
LayerCount: 2
Fore
SplineSet
830 1090 m 2,0,-1
 572 1278 l 2,1,2
 552 1293 552 1293 534 1316 c 0,3,4
 518 1335 518 1335 518 1360 c 0,5,6
 518 1369 518 1369 521 1380 c 0,7,8
 535 1436 535 1436 588 1458 c 1,9,10
 613 1467 613 1467 635 1467 c 0,11,12
 665 1467 665 1467 690 1450 c 256,13,14
 715 1433 715 1433 764.5 1364.5 c 128,-1,15
 814 1296 814 1296 832 1271 c 2,16,-1
 924 1147 l 2,17,18
 951 1109 951 1109 951 1090 c 2,19,-1
 951 1085 l 1,20,21
 944 1062 944 1062 921 1060 c 1,22,23
 917 1058 917 1058 909 1058 c 0,24,25
 875 1058 875 1058 830 1090 c 2,0,-1
EndSplineSet
Validated: 1
EndChar

StartChar: a
Encoding: 97 97 68
Width: 1155
GlyphClass: 2
Flags: W
LayerCount: 2
Fore
SplineSet
784 54 m 1,0,-1
 528 -33 l 1,1,2
 489 -45 489 -45 463 -45 c 2,3,-1
 421 -45 l 1,4,5
 267 -37 267 -37 182 81 c 0,6,7
 119 170 119 170 119 289 c 0,8,9
 119 324 119 324 124 361 c 0,10,11
 130 404 130 404 140 444 c 0,12,13
 152 496 152 496 170 546 c 0,14,15
 203 635 203 635 278 722 c 1,16,17
 316 768 316 768 394 819 c 1,18,19
 422 835 422 835 455 848 c 1,20,21
 544 879 544 879 630 908.5 c 128,-1,22
 716 938 716 938 805 969 c 0,23,24
 828 976 828 976 848 976 c 2,25,-1
 854 976 l 1,26,27
 922 973 922 973 1010 942 c 0,28,29
 1024 937 1024 937 1025 936 c 0,30,31
 1040 929 1040 929 1069 918 c 0,32,33
 1076 916 1076 916 1082 916 c 0,34,35
 1089 916 1089 916 1096 920 c 0,36,37
 1119 937 1119 937 1129 947 c 1,38,39
 1142 962 1142 962 1163 962 c 0,40,41
 1174 962 1174 962 1184 958 c 0,42,43
 1215 945 1215 945 1215 923 c 2,44,-1
 1215 918 l 1,45,-1
 1037 142 l 2,46,47
 1033 128 1033 128 1033 117 c 0,48,49
 1033 90 1033 90 1053 82 c 0,50,51
 1109 60 1109 60 1109 27 c 0,52,53
 1109 22 1109 22 1107 17 c 0,54,55
 1099 -20 1099 -20 1057 -20 c 2,56,-1
 814 -20 l 2,57,58
 775 -20 775 -20 775 9 c 2,59,-1
 775 15 l 1,60,-1
 784 54 l 1,0,-1
949 765 m 1,61,62
 924 793 924 793 869.5 822.5 c 128,-1,63
 815 852 815 852 771 854 c 1,64,-1
 768 854 l 2,65,66
 753 854 753 854 736 848 c 0,67,68
 697 835 697 835 658.5 821.5 c 128,-1,69
 620 808 620 808 581 795 c 1,70,71
 558 786 558 786 543 774 c 0,72,73
 469 710 469 710 428 620 c 1,74,75
 395 551 395 551 380 483 c 0,76,77
 375 461 375 461 372 439 c 0,78,79
 365 393 365 393 365 354 c 0,80,81
 365 272 365 272 394 214 c 0,82,83
 435 130 435 130 520 105 c 0,84,85
 551 95 551 95 585 95 c 0,86,87
 596 95 596 95 609 96 c 0,88,89
 627 98 627 98 658 108 c 0,90,91
 681 115 681 115 734 133.5 c 128,-1,92
 787 152 787 152 809 160 c 1,93,-1
 949 765 l 1,61,62
EndSplineSet
Validated: 1
EndChar

StartChar: b
Encoding: 98 98 69
Width: 1139
GlyphClass: 2
Flags: W
LayerCount: 2
Fore
SplineSet
406 165 m 1,0,1
 429 136 429 136 483 106.5 c 128,-1,2
 537 77 537 77 583 76 c 1,3,-1
 589 76 l 2,4,5
 600 76 600 76 618 82 c 0,6,7
 659 96 659 96 697 108.5 c 128,-1,8
 735 121 735 121 774 135 c 0,9,10
 794 142 794 142 812 157 c 0,11,12
 884 219 884 219 926 309 c 0,13,14
 959 380 959 380 974 451 c 0,15,16
 979 472 979 472 983 492 c 0,17,18
 990 536 990 536 990 576 c 0,19,20
 990 657 990 657 961 716 c 0,21,22
 919 799 919 799 835 825 c 0,23,24
 801 835 801 835 765 835 c 0,25,26
 755 835 755 835 746 834 c 0,27,28
 725 832 725 832 698 823 c 0,29,30
 673 814 673 814 619.5 796 c 128,-1,31
 566 778 566 778 546 771 c 1,32,-1
 406 165 l 1,0,1
331 -7 m 0,33,34
 313 1 313 1 285 12 c 0,35,36
 278 14 278 14 271 14 c 0,37,38
 265 14 265 14 259 10 c 0,39,40
 234 -8 234 -8 224 -18 c 0,41,42
 211 -31 211 -31 191 -31 c 0,43,44
 179 -31 179 -31 170 -26 c 1,45,46
 140 -14 140 -14 140 8 c 2,47,-1
 140 13 l 1,48,-1
 427 1261 l 2,49,50
 431 1275 431 1275 431 1286 c 0,51,52
 431 1313 431 1313 410 1321 c 0,53,54
 355 1343 355 1343 355 1377 c 0,55,56
 355 1382 355 1382 357 1387 c 0,57,58
 365 1424 365 1424 406 1424 c 1,59,60
 470 1427 470 1427 536.5 1443.5 c 128,-1,61
 603 1460 603 1460 714 1495 c 1,62,-1
 571 876 l 1,63,-1
 827 964 l 2,64,65
 861 975 861 975 890 977 c 0,66,67
 901 977 901 977 911.5 976.5 c 128,-1,68
 922 976 922 976 934 976 c 0,69,70
 1088 968 1088 968 1172 850 c 1,71,72
 1235 758 1235 758 1235 637 c 0,73,74
 1235 604 1235 604 1230 569 c 0,75,76
 1224 526 1224 526 1215 486 c 0,77,78
 1202 433 1202 433 1184 383 c 0,79,80
 1151 294 1151 294 1077 208 c 0,81,82
 1034 158 1034 158 960 111 c 0,83,84
 931 93 931 93 899 82 c 0,85,86
 811 52 811 52 724 22 c 128,-1,87
 637 -8 637 -8 550 -38 c 1,88,89
 524 -45 524 -45 505 -45 c 2,90,-1
 500 -45 l 1,91,92
 434 -42 434 -42 343 -12 c 0,93,94
 334 -9 334 -9 331 -7 c 0,33,34
EndSplineSet
Validated: 1
EndChar

StartChar: c
Encoding: 99 99 70
Width: 925
GlyphClass: 2
Flags: W
LayerCount: 2
Fore
SplineSet
775 976 m 1,0,-1
 797 976 l 2,1,2
 970 976 970 976 1104 874 c 1,3,-1
 1044 694 l 1,4,5
 1033 666 1033 666 1004 666 c 2,6,-1
 999 666 l 1,7,8
 970 669 970 669 963 703 c 0,9,10
 945 783 945 783 896 817 c 0,11,12
 848 850 848 850 765 850 c 2,13,-1
 742 850 l 1,14,15
 641 845 641 845 574 793 c 1,16,17
 513 744 513 744 472 672 c 0,18,19
 432 603 432 603 411 514 c 0,20,21
 405 486 405 486 401 456 c 0,22,23
 393 407 393 407 393 363 c 0,24,25
 393 281 393 281 423 221 c 1,26,27
 483 107 483 107 581 92 c 0,28,29
 596 89 596 89 614 89 c 0,30,31
 697 89 697 89 814 146 c 0,32,33
 884 180 884 180 911 180 c 0,34,35
 928 180 928 180 936 172 c 256,36,37
 944 164 944 164 944 154 c 2,38,-1
 944 148 l 1,39,40
 940 131 940 131 920 102 c 0,41,42
 896 69 896 69 868 49 c 0,43,44
 796 -4 796 -4 704 -24.5 c 128,-1,45
 612 -45 612 -45 534 -45 c 0,46,47
 336 -44 336 -44 227 67 c 1,48,49
 139 153 139 153 139 296 c 0,50,51
 139 333 139 333 145 374 c 0,52,53
 151 419 151 419 161 461 c 0,54,55
 174 516 174 516 193 568 c 0,56,57
 227 660 227 660 305 750 c 1,58,59
 387 847 387 847 509 908.5 c 128,-1,60
 631 970 631 970 775 976 c 1,0,-1
EndSplineSet
Validated: 1
EndChar

StartChar: d
Encoding: 100 100 71
Width: 1231
GlyphClass: 2
Flags: W
LayerCount: 2
Fore
SplineSet
804 54 m 1,0,-1
 548 -33 l 1,1,2
 509 -45 509 -45 483 -45 c 2,3,-1
 441 -45 l 1,4,5
 287 -37 287 -37 202 81 c 0,6,7
 139 170 139 170 139 289 c 0,8,9
 139 324 139 324 144 361 c 0,10,11
 150 404 150 404 160 444 c 0,12,13
 172 496 172 496 190 546 c 0,14,15
 223 635 223 635 298 722 c 1,16,17
 336 768 336 768 414 819 c 1,18,19
 442 835 442 835 475 848 c 1,20,21
 564 879 564 879 650 908.5 c 128,-1,22
 736 938 736 938 825 969 c 0,23,24
 848 976 848 976 868 976 c 2,25,-1
 874 976 l 1,26,27
 942 973 942 973 1030 942 c 0,28,29
 1032 941 1032 941 1033 941 c 256,30,31
 1034 941 1034 941 1034 942 c 0,32,33
 1034 946 1034 946 1014 966 c 1,34,-1
 1082 1261 l 2,35,36
 1086 1275 1086 1275 1086 1286 c 0,37,38
 1086 1313 1086 1313 1065 1321 c 0,39,40
 1010 1343 1010 1343 1010 1377 c 0,41,42
 1010 1382 1010 1382 1012 1387 c 0,43,44
 1020 1424 1020 1424 1061 1424 c 1,45,46
 1125 1427 1125 1427 1191.5 1443.5 c 128,-1,47
 1258 1460 1258 1460 1369 1495 c 1,48,-1
 1057 142 l 2,49,50
 1053 128 1053 128 1053 117 c 0,51,52
 1053 90 1053 90 1073 82 c 0,53,54
 1129 60 1129 60 1129 27 c 0,55,56
 1129 22 1129 22 1127 17 c 0,57,58
 1119 -20 1119 -20 1077 -20 c 2,59,-1
 834 -20 l 2,60,61
 795 -20 795 -20 795 9 c 2,62,-1
 795 15 l 1,63,-1
 804 54 l 1,0,-1
969 766 m 1,64,65
 941 796 941 796 887.5 824 c 128,-1,66
 834 852 834 852 791 854 c 1,67,-1
 788 854 l 2,68,69
 773 854 773 854 756 848 c 0,70,71
 717 835 717 835 678.5 821.5 c 128,-1,72
 640 808 640 808 601 795 c 1,73,74
 578 786 578 786 563 774 c 0,75,76
 489 710 489 710 448 620 c 1,77,78
 415 551 415 551 400 483 c 0,79,80
 395 461 395 461 392 439 c 0,81,82
 385 393 385 393 385 354 c 0,83,84
 385 272 385 272 414 214 c 0,85,86
 455 130 455 130 540 105 c 0,87,88
 571 95 571 95 605 95 c 0,89,90
 616 95 616 95 629 96 c 0,91,92
 647 98 647 98 678 108 c 0,93,94
 701 115 701 115 754 133.5 c 128,-1,95
 807 152 807 152 829 160 c 1,96,-1
 969 766 l 1,64,65
EndSplineSet
Validated: 1
EndChar

StartChar: e
Encoding: 101 101 72
Width: 1000
GlyphClass: 2
Flags: W
LayerCount: 2
Fore
SplineSet
511 -45 m 0,0,1
 223 -45 223 -45 147 144 c 0,2,3
 114 225 114 225 114 316 c 0,4,5
 114 379 114 379 129 446 c 0,6,7
 142 500 142 500 164 557 c 0,8,9
 241 754 241 754 386.5 865 c 128,-1,10
 532 976 532 976 738 976 c 0,11,12
 1101 976 1101 976 1101 687 c 0,13,14
 1101 624 1101 624 1084 547 c 1,15,16
 1073 506 1073 506 1064.5 482 c 128,-1,17
 1056 458 1056 458 998 458 c 2,18,-1
 386 458 l 1,19,20
 374 405 374 405 374 346 c 0,21,22
 374 257 374 257 409 192 c 0,23,24
 464 89 464 89 610 89 c 0,25,26
 647 89 647 89 695 99 c 128,-1,27
 743 109 743 109 817 143 c 1,28,29
 886 177 886 177 913 177 c 0,30,31
 927 177 927 177 942 167 c 1,32,33
 947 157 947 157 947 150 c 2,34,-1
 947 144 l 1,35,36
 943 126 943 126 921 99 c 1,37,38
 903 73 903 73 892.5 64 c 128,-1,39
 882 55 882 55 874 49 c 0,40,41
 788 -12 788 -12 692.5 -28.5 c 128,-1,42
 597 -45 597 -45 511 -45 c 0,0,1
412 571 m 1,43,-1
 884 571 l 1,44,45
 898 631 898 631 898 687 c 0,46,47
 898 751 898 751 876 787 c 0,48,49
 837 850 837 850 718 850 c 0,50,51
 595 850 595 850 516.5 765 c 128,-1,52
 438 680 438 680 412 571 c 1,43,-1
EndSplineSet
Validated: 1
EndChar

StartChar: f
Encoding: 102 102 73
Width: 683
GlyphClass: 2
Flags: W
LayerCount: 2
Fore
SplineSet
650 1024 m 2,0,-1
 637 969 l 1,1,-1
 846 973 l 1,2,-1
 847 973 l 2,3,4
 883 973 883 973 883 940 c 0,5,6
 883 932 883 932 881 923 c 0,7,8
 877 908 877 908 868 887 c 0,9,10
 841 826 841 826 788 826 c 2,11,-1
 605 827 l 1,12,-1
 447 142 l 2,13,14
 443 128 443 128 443 117 c 0,15,16
 443 90 443 90 463 82 c 0,17,18
 519 60 519 60 519 27 c 0,19,20
 519 22 519 22 517 17 c 0,21,22
 509 -20 509 -20 467 -20 c 2,23,-1
 128 -20 l 2,24,25
 86 -20 86 -20 86 14 c 0,26,27
 86 19 86 19 87 25 c 0,28,29
 96 60 96 60 150 77.5 c 128,-1,30
 204 95 204 95 216 149 c 2,31,-1
 372 824 l 1,32,33
 365 824 365 824 288 820 c 1,34,-1
 282 820 l 2,35,36
 241 820 241 820 241 854 c 0,37,38
 241 859 241 859 242 862 c 1,39,-1
 242 864 l 1,40,41
 249 891 249 891 281 905 c 0,42,43
 302 914 302 914 373 947 c 0,44,45
 390 956 390 956 407 962 c 0,46,47
 410 963 410 963 410 964 c 256,48,49
 410 965 410 965 404 965 c 1,50,-1
 419 1030 l 2,51,52
 449 1159 449 1159 492 1242 c 0,53,54
 520 1295 520 1295 559 1331 c 1,55,56
 578 1352 578 1352 613 1364 c 2,57,-1
 889 1459 l 2,58,59
 903 1463 903 1463 933 1465 c 1,60,-1
 938 1465 l 2,61,62
 970 1465 970 1465 994 1447 c 1,63,64
 1020 1424 1020 1424 1027 1404 c 0,65,66
 1029 1396 1029 1396 1029 1388 c 0,67,68
 1029 1378 1029 1378 1027 1365 c 1,69,70
 1024 1356 1024 1356 1021 1347 c 0,71,72
 1005 1288 1005 1288 976 1281 c 1,73,-1
 969 1281 l 2,74,75
 947 1281 947 1281 923 1302 c 1,76,77
 890 1327 890 1327 853 1327 c 0,78,79
 830 1327 830 1327 805 1318 c 0,80,81
 724 1286 724 1286 694 1194 c 0,82,83
 681 1157 681 1157 671 1113 c 128,-1,84
 661 1069 661 1069 650 1024 c 2,0,-1
EndSplineSet
Validated: 1
EndChar

StartChar: g
Encoding: 103 103 74
Width: 1103
GlyphClass: 2
Flags: W
LayerCount: 2
Fore
SplineSet
822 219 m 1,0,-1
 949 765 l 1,1,2
 924 793 924 793 869.5 822.5 c 128,-1,3
 815 852 815 852 771 854 c 1,4,-1
 768 854 l 2,5,6
 753 854 753 854 736 848 c 0,7,8
 697 835 697 835 658.5 821.5 c 128,-1,9
 620 808 620 808 581 795 c 1,10,11
 558 786 558 786 543 774 c 0,12,13
 469 710 469 710 428 620 c 1,14,15
 395 551 395 551 380 483 c 0,16,17
 375 461 375 461 372 439 c 0,18,19
 365 393 365 393 365 354 c 0,20,21
 365 272 365 272 394 214 c 0,22,23
 435 130 435 130 520 105 c 0,24,25
 551 95 551 95 585 95 c 0,26,27
 596 95 596 95 609 96 c 0,28,29
 627 98 627 98 658 108 c 0,30,31
 681 115 681 115 733.5 133 c 128,-1,32
 786 151 786 151 807 159 c 1,33,-1
 821 219 l 1,34,-1
 822 219 l 1,0,-1
783 54 m 1,35,-1
 528 -33 l 1,36,37
 489 -45 489 -45 463 -45 c 2,38,-1
 421 -45 l 1,39,40
 267 -37 267 -37 182 81 c 0,41,42
 119 170 119 170 119 289 c 0,43,44
 119 324 119 324 124 361 c 0,45,46
 130 404 130 404 140 444 c 0,47,48
 152 496 152 496 170 546 c 0,49,50
 203 635 203 635 278 722 c 1,51,52
 316 768 316 768 394 819 c 1,53,54
 422 835 422 835 455 848 c 1,55,56
 544 879 544 879 630 908.5 c 128,-1,57
 716 938 716 938 805 969 c 0,58,59
 828 976 828 976 848 976 c 2,60,-1
 854 976 l 1,61,62
 922 973 922 973 1010 942 c 0,63,64
 1024 937 1024 937 1025 936 c 0,65,66
 1040 929 1040 929 1069 918 c 0,67,68
 1076 916 1076 916 1082 916 c 0,69,70
 1089 916 1089 916 1096 920 c 0,71,72
 1119 937 1119 937 1129 947 c 1,73,74
 1142 962 1142 962 1163 962 c 0,75,76
 1174 962 1174 962 1184 958 c 0,77,78
 1215 945 1215 945 1215 923 c 2,79,-1
 1215 918 l 1,80,-1
 961 -183 l 2,81,82
 921 -355 921 -355 859.5 -399.5 c 128,-1,83
 798 -444 798 -444 701 -477 c 2,84,-1
 401 -580 l 2,85,86
 363 -593 363 -593 337 -593 c 0,87,88
 310 -593 310 -593 294 -592 c 0,89,90
 141 -586 141 -586 56 -466 c 1,91,92
 13 -403 13 -403 -3 -303 c 1,93,94
 109 -263 109 -263 240 -219 c 1,95,96
 249 -294 249 -294 268 -333 c 0,97,98
 310 -417 310 -417 393 -442 c 0,99,100
 424 -451 424 -451 457 -451 c 0,101,102
 470 -451 470 -451 482 -450 c 0,103,104
 501 -448 501 -448 529 -440 c 1,105,106
 542 -435 542 -435 563 -428 c 128,-1,107
 584 -421 584 -421 606 -413 c 1,108,109
 651 -393 651 -393 682 -324.5 c 128,-1,110
 713 -256 713 -256 717 -234 c 1,111,-1
 783 54 l 1,35,-1
EndSplineSet
Validated: 1
EndChar

StartChar: h
Encoding: 104 104 75
Width: 1207
GlyphClass: 2
Flags: W
LayerCount: 2
Fore
SplineSet
421 142 m 2,0,1
 417 128 417 128 417 117 c 0,2,3
 417 90 417 90 437 82 c 0,4,5
 493 60 493 60 493 27 c 0,6,7
 493 22 493 22 491 17 c 0,8,9
 483 -20 483 -20 442 -20 c 2,10,-1
 103 -20 l 2,11,12
 61 -20 61 -20 61 14 c 0,13,14
 61 19 61 19 62 25 c 0,15,16
 71 60 71 60 125 77.5 c 128,-1,17
 179 95 179 95 191 149 c 2,18,-1
 447 1261 l 2,19,20
 451 1275 451 1275 451 1286 c 0,21,22
 451 1313 451 1313 430 1321 c 0,23,24
 375 1343 375 1343 375 1377 c 0,25,26
 375 1382 375 1382 377 1387 c 0,27,28
 385 1424 385 1424 426 1424 c 1,29,30
 490 1427 490 1427 556.5 1443.5 c 128,-1,31
 623 1460 623 1460 733 1495 c 1,32,-1
 592 886 l 1,33,34
 609 892 609 892 655 908 c 128,-1,35
 701 924 701 924 742 938 c 0,36,37
 845 971 845 971 949 981 c 0,38,39
 963 982 963 982 977 982 c 0,40,41
 1072 982 1072 982 1143 918 c 1,42,43
 1207 858 1207 858 1207 723 c 0,44,45
 1207 631 1207 631 1178 503 c 2,46,-1
 1095 142 l 2,47,48
 1091 128 1091 128 1091 117 c 0,49,50
 1091 90 1091 90 1111 82 c 0,51,52
 1167 60 1167 60 1167 27 c 0,53,54
 1167 22 1167 22 1165 17 c 0,55,56
 1157 -20 1157 -20 1116 -20 c 2,57,-1
 873 -20 l 2,58,59
 834 -20 834 -20 834 9 c 2,60,-1
 834 15 l 1,61,-1
 948 509 l 2,62,63
 969 599 969 599 969 666 c 0,64,65
 969 756 969 756 932 804 c 1,66,67
 894 851 894 851 824 851 c 0,68,69
 781 851 781 851 724 833 c 0,70,71
 700 826 700 826 664 813.5 c 128,-1,72
 628 801 628 801 600 791 c 0,73,74
 575 783 575 783 567 780 c 1,75,-1
 421 142 l 2,0,1
EndSplineSet
Validated: 1
EndChar

StartChar: i
Encoding: 105 105 76
Width: 593
GlyphClass: 2
Flags: W
LayerCount: 2
Fore
SplineSet
625 1420 m 0,0,1
 739 1420 739 1420 739 1327 c 0,2,3
 739 1309 739 1309 734 1286 c 0,4,5
 704 1159 704 1159 574 1159 c 0,6,7
 461 1159 461 1159 461 1251 c 0,8,9
 461 1271 461 1271 466 1293 c 0,10,11
 495 1420 495 1420 625 1420 c 0,0,1
451 142 m 2,12,13
 447 128 447 128 447 117 c 0,14,15
 447 90 447 90 467 82 c 0,16,17
 523 60 523 60 523 27 c 0,18,19
 523 22 523 22 521 17 c 0,20,21
 513 -20 513 -20 472 -20 c 2,22,-1
 133 -20 l 2,23,24
 91 -20 91 -20 91 14 c 0,25,26
 91 19 91 19 92 25 c 0,27,28
 101 60 101 60 155 77.5 c 128,-1,29
 209 95 209 95 221 149 c 2,30,-1
 368 790 l 2,31,32
 372 803 372 803 372 814 c 0,33,34
 372 841 372 841 351 849 c 0,35,36
 296 871 296 871 296 905 c 0,37,38
 296 910 296 910 298 915 c 0,39,40
 306 952 306 952 347 952 c 1,41,42
 411 955 411 955 477.5 972 c 128,-1,43
 544 989 544 989 654 1024 c 1,44,-1
 451 142 l 2,12,13
EndSplineSet
Validated: 1
EndChar

StartChar: j
Encoding: 106 106 77
Width: 487
GlyphClass: 2
Flags: W
LayerCount: 2
Fore
SplineSet
575 1420 m 0,0,1
 690 1420 690 1420 690 1327 c 0,2,3
 690 1308 690 1308 685 1286 c 0,4,5
 655 1159 655 1159 524 1159 c 0,6,7
 411 1159 411 1159 411 1251 c 0,8,9
 411 1271 411 1271 416 1293 c 0,10,11
 445 1420 445 1420 575 1420 c 0,0,1
371 9 m 1,12,13
 323 -190 323 -190 273.5 -289 c 128,-1,14
 224 -388 224 -388 140 -459 c 1,15,16
 20 -558 20 -558 -141 -595 c 1,17,-1
 -120 -505 l 1,18,19
 -9 -447 -9 -447 44 -349 c 0,20,21
 64 -311 64 -311 81 -238 c 128,-1,22
 98 -165 98 -165 138 9 c 2,23,-1
 318 790 l 2,24,25
 322 803 322 803 322 814 c 0,26,27
 322 841 322 841 301 849 c 0,28,29
 246 871 246 871 246 905 c 0,30,31
 246 910 246 910 248 915 c 0,32,33
 256 952 256 952 297 952 c 1,34,35
 361 955 361 955 427.5 972 c 128,-1,36
 494 989 494 989 605 1024 c 1,37,-1
 371 9 l 1,12,13
EndSplineSet
Validated: 1
EndChar

StartChar: k
Encoding: 107 107 78
Width: 1163
GlyphClass: 2
Flags: W
LayerCount: 2
Fore
SplineSet
507 432 m 1,0,-1
 441 142 l 2,1,2
 437 128 437 128 437 117 c 0,3,4
 437 90 437 90 457 82 c 0,5,6
 513 60 513 60 513 27 c 0,7,8
 513 22 513 22 511 17 c 0,9,10
 503 -20 503 -20 462 -20 c 2,11,-1
 123 -20 l 2,12,13
 81 -20 81 -20 81 14 c 0,14,15
 81 19 81 19 82 25 c 0,16,17
 91 60 91 60 145 77.5 c 128,-1,18
 199 95 199 95 211 149 c 2,19,-1
 467 1261 l 2,20,21
 471 1275 471 1275 471 1286 c 0,22,23
 471 1313 471 1313 450 1321 c 0,24,25
 395 1343 395 1343 395 1377 c 0,26,27
 395 1382 395 1382 397 1387 c 0,28,29
 405 1424 405 1424 446 1424 c 1,30,31
 510 1427 510 1427 576.5 1443.5 c 128,-1,32
 643 1460 643 1460 753 1495 c 1,33,-1
 546 602 l 1,34,-1
 913 849 l 1,35,36
 986 900 986 900 1041 930 c 1,37,38
 1078 949 1078 949 1109 949 c 0,39,40
 1135 949 1135 949 1158 935 c 1,41,-1
 1223 888 l 1,42,43
 1239 875 1239 875 1239 859 c 2,44,-1
 1239 853 l 1,45,46
 1235 843 1235 843 1230 836 c 2,47,-1
 1145 711 l 1,48,-1
 1079 751 l 2,49,50
 1059 762 1059 762 1039 762 c 0,51,52
 1013 762 1013 762 984 744 c 0,53,54
 815 635 815 635 701 561 c 1,55,-1
 959 236 l 2,56,57
 1040 135 1040 135 1063 123 c 0,58,59
 1078 115 1078 115 1095 115 c 0,60,61
 1102 115 1102 115 1110 116 c 0,62,63
 1122 119 1122 119 1132 119 c 0,64,65
 1173 119 1173 119 1180 88 c 0,66,67
 1181 83 1181 83 1181 79 c 0,68,69
 1181 72 1181 72 1179 69 c 1,70,71
 1176 50 1176 50 1153 42 c 1,72,-1
 1082 11 l 1,73,74
 1019 -14 1019 -14 968 -14 c 0,75,76
 932 -14 932 -14 904 0 c 1,77,78
 839 28 839 28 794 85 c 2,79,-1
 516 435 l 1,80,81
 519 438 519 438 519 439 c 1,82,83
 518 439 518 439 507 432 c 1,0,-1
EndSplineSet
Validated: 1
EndChar

StartChar: l
Encoding: 108 108 79
Width: 597
GlyphClass: 2
Flags: W
LayerCount: 2
Fore
SplineSet
441 142 m 2,0,1
 437 128 437 128 437 117 c 0,2,3
 437 90 437 90 457 82 c 0,4,5
 513 60 513 60 513 27 c 0,6,7
 513 22 513 22 511 17 c 0,8,9
 503 -20 503 -20 462 -20 c 2,10,-1
 123 -20 l 2,11,12
 81 -20 81 -20 81 14 c 0,13,14
 81 19 81 19 82 25 c 0,15,16
 91 60 91 60 145 77.5 c 128,-1,17
 199 95 199 95 211 149 c 2,18,-1
 467 1261 l 2,19,20
 471 1275 471 1275 471 1286 c 0,21,22
 471 1313 471 1313 450 1321 c 0,23,24
 395 1343 395 1343 395 1377 c 0,25,26
 395 1382 395 1382 397 1387 c 0,27,28
 405 1424 405 1424 446 1424 c 1,29,30
 510 1427 510 1427 576.5 1443.5 c 128,-1,31
 643 1460 643 1460 753 1495 c 1,32,-1
 441 142 l 2,0,1
EndSplineSet
Validated: 1
EndChar

StartChar: m
Encoding: 109 109 80
Width: 1797
GlyphClass: 2
Flags: W
LayerCount: 2
Fore
SplineSet
609 892 m 5,0,1
 617 895 617 895 658 909 c 132,-1,2
 699 923 699 923 736 936 c 5,3,4
 839 969 839 969 943 979 c 4,5,6
 957 980 957 980 971 980 c 4,7,8
 1066 980 1066 980 1137 916 c 5,9,10
 1161 892 1161 892 1163 887 c 5,11,12
 1189 896 1189 896 1229 909.5 c 132,-1,13
 1269 923 1269 923 1305 936 c 5,14,15
 1408 969 1408 969 1511 979 c 4,16,17
 1526 980 1526 980 1540 980 c 4,18,19
 1634 980 1634 980 1705 916 c 5,20,21
 1770 855 1770 855 1770 720 c 4,22,23
 1770 628 1770 628 1741 501 c 6,24,-1
 1658 140 l 6,25,26
 1654 126 1654 126 1654 115 c 4,27,28
 1654 88 1654 88 1674 80 c 4,29,30
 1730 58 1730 58 1730 25 c 4,31,32
 1730 20 1730 20 1728 15 c 4,33,34
 1720 -22 1720 -22 1678 -22 c 6,35,-1
 1435 -22 l 6,36,37
 1397 -22 1397 -22 1397 7 c 6,38,-1
 1397 13 l 5,39,-1
 1511 507 l 6,40,41
 1532 597 1532 597 1532 664 c 4,42,43
 1532 754 1532 754 1495 802 c 5,44,45
 1457 849 1457 849 1387 849 c 4,46,47
 1344 849 1344 849 1287 831 c 4,48,49
 1265 824 1265 824 1234.5 814 c 132,-1,50
 1204 804 1204 804 1196 801 c 5,51,52
 1202 778 1202 778 1202 727 c 4,53,54
 1202 635 1202 635 1172 501 c 6,55,-1
 1089 140 l 6,56,57
 1085 126 1085 126 1085 115 c 4,58,59
 1085 88 1085 88 1105 80 c 4,60,61
 1161 58 1161 58 1161 25 c 4,62,63
 1161 20 1161 20 1159 15 c 4,64,65
 1151 -22 1151 -22 1110 -22 c 6,66,-1
 771 -22 l 6,67,68
 729 -22 729 -22 729 12 c 4,69,70
 729 17 729 17 730 23 c 4,71,72
 739 58 739 58 793 75.5 c 132,-1,73
 847 93 847 93 859 147 c 6,74,-1
 942 507 l 6,75,76
 963 597 963 597 963 664 c 4,77,78
 963 754 963 754 926 802 c 5,79,80
 888 849 888 849 818 849 c 4,81,82
 775 849 775 849 718 831 c 4,83,84
 680 820 680 820 644 807 c 132,-1,85
 608 794 608 794 584 786 c 5,86,-1
 436 140 l 6,87,88
 432 126 432 126 432 115 c 4,89,90
 432 88 432 88 452 80 c 4,91,92
 508 58 508 58 508 25 c 4,93,94
 508 20 508 20 506 15 c 4,95,96
 498 -22 498 -22 457 -22 c 6,97,-1
 118 -22 l 6,98,99
 76 -22 76 -22 76 12 c 4,100,101
 76 17 76 17 77 23 c 4,102,103
 86 58 86 58 140 75.5 c 132,-1,104
 194 93 194 93 206 147 c 6,105,-1
 353 788 l 6,106,107
 357 801 357 801 357 812 c 4,108,109
 357 839 357 839 336 847 c 4,110,111
 281 869 281 869 281 903 c 4,112,113
 281 908 281 908 283 913 c 4,114,115
 291 950 291 950 332 950 c 5,116,117
 396 953 396 953 462.5 970 c 132,-1,118
 529 987 529 987 639 1022 c 5,119,-1
 609 892 l 5,0,1
EndSplineSet
Validated: 1
EndChar

StartChar: n
Encoding: 110 110 81
Width: 1191
GlyphClass: 2
Flags: W
LayerCount: 2
Fore
SplineSet
592 886 m 1,0,1
 609 892 609 892 655 908 c 128,-1,2
 701 924 701 924 742 938 c 0,3,4
 845 971 845 971 949 981 c 0,5,6
 963 982 963 982 977 982 c 0,7,8
 1072 982 1072 982 1143 918 c 1,9,10
 1207 858 1207 858 1207 723 c 0,11,12
 1207 631 1207 631 1178 503 c 2,13,-1
 1095 142 l 2,14,15
 1091 128 1091 128 1091 117 c 0,16,17
 1091 90 1091 90 1111 82 c 0,18,19
 1167 60 1167 60 1167 27 c 0,20,21
 1167 22 1167 22 1165 17 c 0,22,23
 1157 -20 1157 -20 1116 -20 c 2,24,-1
 873 -20 l 2,25,26
 834 -20 834 -20 834 9 c 2,27,-1
 834 15 l 1,28,-1
 948 509 l 2,29,30
 969 599 969 599 969 666 c 0,31,32
 969 756 969 756 932 804 c 1,33,34
 894 851 894 851 824 851 c 0,35,36
 781 851 781 851 724 833 c 0,37,38
 700 826 700 826 664 813.5 c 128,-1,39
 628 801 628 801 600 791 c 0,40,41
 575 783 575 783 567 780 c 1,42,-1
 421 142 l 2,43,44
 417 128 417 128 417 117 c 0,45,46
 417 90 417 90 437 82 c 0,47,48
 493 60 493 60 493 27 c 0,49,50
 493 22 493 22 491 17 c 0,51,52
 483 -20 483 -20 442 -20 c 2,53,-1
 103 -20 l 2,54,55
 61 -20 61 -20 61 14 c 0,56,57
 61 19 61 19 62 25 c 0,58,59
 71 60 71 60 125 77.5 c 128,-1,60
 179 95 179 95 191 149 c 2,61,-1
 338 790 l 2,62,63
 342 803 342 803 342 814 c 0,64,65
 342 841 342 841 321 849 c 0,66,67
 266 871 266 871 266 905 c 0,68,69
 266 910 266 910 268 915 c 0,70,71
 276 952 276 952 317 952 c 1,72,73
 381 955 381 955 447.5 972 c 128,-1,74
 514 989 514 989 624 1024 c 1,75,-1
 592 886 l 1,0,1
EndSplineSet
Validated: 1
EndChar

StartChar: o
Encoding: 111 111 82
Width: 1107
GlyphClass: 2
Flags: W
LayerCount: 2
Fore
SplineSet
799 976 m 1,0,1
 1006 967 1006 967 1115 816 c 1,2,3
 1190 710 1190 710 1190 577 c 0,4,5
 1190 522 1190 522 1177 462 c 1,6,-1
 1176 456 l 1,7,8
 1128 249 1128 249 949 107 c 0,9,10
 766 -39 766 -39 547 -45 c 1,11,-1
 531 -45 l 2,12,13
 325 -45 325 -45 212 107 c 1,14,15
 130 215 130 215 130 349 c 0,16,17
 130 405 130 405 144 464 c 1,18,-1
 144 467 l 1,19,20
 198 694 198 694 402 847 c 1,21,22
 428 868 428 868 471 882 c 128,-1,23
 514 896 514 896 595 922 c 0,24,25
 642 938 642 938 700 958 c 1,26,27
 758 976 758 976 795 976 c 2,28,-1
 799 976 l 1,0,1
760 869 m 1,29,-1
 749 869 l 2,30,31
 644 869 644 869 542 764 c 0,32,33
 429 648 429 648 390 478 c 0,34,35
 374 407 374 407 374 345 c 0,36,37
 374 256 374 256 407 184 c 1,38,39
 458 68 458 68 565 63 c 1,40,-1
 578 63 l 2,41,42
 682 63 682 63 784 168 c 0,43,44
 896 283 896 283 935 453 c 0,45,46
 951 523 951 523 951 585 c 0,47,48
 951 674 951 674 918 748 c 0,49,50
 866 863 866 863 760 869 c 1,29,-1
EndSplineSet
Validated: 1
EndChar

StartChar: p
Encoding: 112 112 83
Width: 1197
GlyphClass: 2
Flags: W
LayerCount: 2
Fore
SplineSet
620 879 m 5,0,-1
 867 963 l 6,1,2
 903 975 903 975 932 977 c 4,3,4
 943 977 943 977 952.5 976.5 c 132,-1,5
 962 976 962 976 974 976 c 4,6,7
 1126 969 1126 969 1210 852 c 5,8,9
 1272 761 1272 761 1272 641 c 4,10,11
 1272 608 1272 608 1267 572 c 4,12,13
 1262 531 1262 531 1252 491 c 5,14,15
 1240 436 1240 436 1221 386 c 4,16,17
 1187 297 1187 297 1112 210 c 4,18,19
 1071 162 1071 162 995 112 c 4,20,21
 966 94 966 94 933 82 c 4,22,23
 742 16 742 16 582 -37 c 4,24,25
 559 -45 559 -45 538 -45 c 6,26,-1
 533 -45 l 5,27,28
 470 -42 470 -42 412 -23 c 5,29,-1
 317 -431 l 6,30,31
 315 -441 315 -441 315 -450 c 4,32,33
 315 -486 315 -486 352 -500 c 4,34,35
 389 -515 389 -515 389 -545 c 4,36,37
 389 -551 389 -551 388 -557 c 4,38,39
 379 -597 379 -597 334 -597 c 6,40,-1
 -5 -597 l 6,41,42
 -43 -597 -43 -597 -43 -569 c 4,43,44
 -43 -564 -43 -564 -42 -557 c 4,45,46
 -33 -518 -33 -518 21.5 -500 c 132,-1,47
 76 -482 76 -482 87 -431 c 6,48,-1
 368 786 l 6,49,50
 370 796 370 796 370 805 c 4,51,52
 370 840 370 840 334 854 c 4,53,54
 296 869 296 869 296 899 c 4,55,56
 296 905 296 905 297 911 c 4,57,58
 307 952 307 952 352 952 c 5,59,60
 414 955 414 955 480.5 972 c 132,-1,61
 547 989 547 989 653 1022 c 5,62,-1
 620 879 l 5,0,-1
453 158 m 5,63,64
 480 130 480 130 531 103.5 c 132,-1,65
 582 77 582 77 625 76 c 5,66,-1
 631 76 l 6,67,68
 642 76 642 76 659 82 c 4,69,70
 698 95 698 95 736.5 108 c 132,-1,71
 775 121 775 121 814 135 c 5,72,73
 834 141 834 141 850 155 c 4,74,75
 920 216 920 216 962 306 c 4,76,77
 995 375 995 375 1011 444 c 4,78,79
 1016 466 1016 466 1019 488 c 4,80,81
 1026 533 1026 533 1026 572 c 4,82,83
 1026 654 1026 654 996 713 c 4,84,85
 952 799 952 799 867 825 c 4,86,87
 834 835 834 835 799 835 c 4,88,89
 788 835 788 835 779 834 c 4,90,91
 759 832 759 832 731 823 c 4,92,93
 708 815 708 815 662 799.5 c 132,-1,94
 616 784 616 784 596 777 c 5,95,-1
 453 158 l 5,63,64
EndSplineSet
Validated: 1
EndChar

StartChar: q
Encoding: 113 113 84
Width: 1173
GlyphClass: 2
Flags: W
LayerCount: 2
Fore
SplineSet
801 55 m 5,0,-1
 544 -32 l 6,1,2
 506 -45 506 -45 479 -45 c 6,3,-1
 436 -45 l 5,4,5
 282 -37 282 -37 201 79 c 4,6,7
 139 168 139 168 139 287 c 4,8,9
 139 321 139 321 144 358 c 4,10,11
 150 401 150 401 159 442 c 4,12,13
 171 494 171 494 189 543 c 4,14,15
 222 632 222 632 298 720 c 4,16,17
 340 769 340 769 415 818 c 4,18,19
 444 836 444 836 478 848 c 4,20,21
 567 879 567 879 653.5 908.5 c 132,-1,22
 740 938 740 938 827 968 c 4,23,24
 852 976 852 976 873 976 c 6,25,-1
 878 976 l 5,26,27
 947 973 947 973 1035 942 c 4,28,29
 1037 941 1037 941 1038 940.5 c 132,-1,30
 1039 940 1039 940 1060 940 c 5,31,-1
 1058 930 l 5,32,33
 1065 927 1065 927 1092 919 c 4,34,35
 1099 916 1099 916 1103 916 c 4,36,37
 1109 916 1109 916 1113 919 c 4,38,39
 1136 935 1136 935 1145 945 c 4,40,41
 1162 962 1162 962 1184 962 c 4,42,43
 1195 962 1195 962 1203 958 c 4,44,45
 1232 947 1232 947 1232 927 c 4,46,47
 1232 924 1232 924 1231 920 c 6,48,-1
 919 -431 l 6,49,50
 917 -441 917 -441 917 -450 c 4,51,52
 917 -486 917 -486 954 -500 c 4,53,54
 991 -515 991 -515 991 -545 c 4,55,56
 991 -551 991 -551 990 -557 c 4,57,58
 981 -597 981 -597 935 -597 c 6,59,-1
 596 -597 l 6,60,61
 558 -597 558 -597 558 -569 c 4,62,63
 558 -564 558 -564 559 -557 c 4,64,65
 568 -518 568 -518 622.5 -500 c 132,-1,66
 677 -482 677 -482 688 -431 c 6,67,-1
 801 55 l 5,0,-1
964 764 m 5,68,69
 938 793 938 793 884 822.5 c 132,-1,70
 830 852 830 852 785 854 c 5,71,-1
 782 854 l 6,72,73
 768 854 768 854 753 848 c 5,74,75
 713 835 713 835 674 821.5 c 132,-1,76
 635 808 635 808 596 795 c 4,77,78
 577 788 577 788 561 775 c 4,79,80
 489 713 489 713 448 624 c 4,81,82
 415 554 415 554 399 486 c 4,83,84
 394 465 394 465 391 442 c 4,85,86
 384 397 384 397 384 358 c 4,87,88
 384 275 384 275 414 217 c 5,89,90
 455 131 455 131 542 105 c 4,91,92
 575 95 575 95 609 95 c 4,93,94
 621 95 621 95 631 96 c 4,95,96
 651 98 651 98 680 107 c 4,97,98
 703 115 703 115 754.5 132.5 c 132,-1,99
 806 150 806 150 824 157 c 5,100,-1
 964 764 l 5,68,69
EndSplineSet
Validated: 1
EndChar

StartChar: r
Encoding: 114 114 85
Width: 831
GlyphClass: 2
Flags: W
LayerCount: 2
Fore
SplineSet
565 591 m 1,0,-1
 462 142 l 2,1,2
 458 128 458 128 458 117 c 0,3,4
 458 90 458 90 479 82 c 0,5,6
 533 60 533 60 533 27 c 0,7,8
 533 22 533 22 531 17 c 0,9,10
 523 -20 523 -20 482 -20 c 2,11,-1
 143 -20 l 2,12,13
 101 -20 101 -20 101 14 c 0,14,15
 101 19 101 19 102 25 c 0,16,17
 111 60 111 60 165 77.5 c 128,-1,18
 219 95 219 95 231 149 c 2,19,-1
 378 790 l 2,20,21
 382 803 382 803 382 814 c 0,22,23
 382 841 382 841 361 849 c 0,24,25
 306 871 306 871 306 905 c 0,26,27
 306 910 306 910 308 915 c 0,28,29
 316 952 316 952 357 952 c 1,30,31
 421 955 421 955 487.5 972 c 128,-1,32
 554 989 554 989 665 1024 c 1,33,-1
 635 893 l 1,34,-1
 743 931 l 2,35,36
 827 961 827 961 875 975 c 0,37,38
 893 980 893 980 915 980 c 0,39,40
 958 980 958 980 1033 951 c 1,41,-1
 943 669 l 1,42,-1
 854 669 l 1,43,44
 849 815 849 815 762 815 c 0,45,46
 752 815 752 815 743 814 c 0,47,48
 677 807 677 807 633 744 c 128,-1,49
 589 681 589 681 565 591 c 1,0,-1
EndSplineSet
Validated: 1
EndChar

StartChar: s
Encoding: 115 115 86
Width: 884
GlyphClass: 2
Flags: W
LayerCount: 2
Fore
SplineSet
713 978 m 0,0,1
 866 969 866 969 997 875 c 1,2,-1
 931 689 l 2,3,4
 921 659 921 659 888 659 c 2,5,-1
 884 659 l 1,6,7
 852 662 852 662 843 700 c 0,8,9
 827 769 827 769 775.5 814 c 128,-1,10
 724 859 724 859 655 862 c 1,11,-1
 652 862 l 2,12,13
 597 862 597 862 535 834 c 1,14,15
 474 805 474 805 449 747 c 0,16,17
 439 726 439 726 436 710 c 0,18,19
 433 697 433 697 433 686 c 0,20,21
 433 654 433 654 460 639 c 0,22,23
 520 605 520 605 605 585 c 0,24,25
 730 555 730 555 827 505 c 0,26,27
 913 461 913 461 913 346 c 0,28,29
 913 316 913 316 907 280 c 1,30,-1
 905 270 l 1,31,32
 886 191 886 191 808 113 c 0,33,34
 723 28 723 28 591 -15 c 1,35,36
 508 -40 508 -40 415 -43 c 1,37,-1
 387 -43 l 2,38,39
 260 -43 260 -43 136 -5 c 1,40,-1
 104 231 l 1,41,-1
 112 254 l 2,42,43
 122 284 122 284 158 284 c 2,44,-1
 163 284 l 1,45,46
 190 278 190 278 200 244 c 1,47,48
 222 151 222 151 272 114.5 c 128,-1,49
 322 78 322 78 414 75 c 1,50,-1
 426 75 l 2,51,52
 492 75 492 75 579 106 c 0,53,54
 668 138 668 138 691 222 c 1,55,-1
 693 228 l 1,56,57
 697 248 697 248 697 265 c 0,58,59
 697 324 697 324 637 342 c 0,60,61
 538 372 538 372 464 395 c 0,62,63
 367 424 367 424 288 486 c 1,64,65
 228 535 228 535 228 615 c 0,66,67
 228 644 228 644 235 675 c 2,68,-1
 236 680 l 1,69,70
 276 844 276 844 419 915 c 0,71,72
 548 979 548 979 687 979 c 0,73,74
 700 979 700 979 713 978 c 0,0,1
EndSplineSet
Validated: 1
EndChar

StartChar: t
Encoding: 116 116 87
Width: 682
GlyphClass: 2
Flags: W
LayerCount: 2
Fore
SplineSet
372 824 m 1,0,1
 365 824 365 824 288 820 c 1,2,-1
 282 820 l 2,3,4
 241 820 241 820 241 854 c 0,5,6
 241 859 241 859 242 862 c 1,7,-1
 242 864 l 1,8,9
 249 891 249 891 281 905 c 0,10,11
 302 914 302 914 373 947 c 0,12,13
 390 956 390 956 407 962 c 0,14,15
 410 963 410 963 410 964 c 256,16,17
 410 965 410 965 404 965 c 1,18,-1
 440 1119 l 2,19,20
 453 1176 453 1176 482 1198.5 c 128,-1,21
 511 1221 511 1221 596 1258 c 0,22,23
 632 1273 632 1273 654 1273 c 0,24,25
 697 1273 697 1273 697 1237 c 0,26,27
 697 1231 697 1231 696 1224 c 2,28,-1
 637 969 l 1,29,-1
 846 973 l 1,30,-1
 847 973 l 2,31,32
 883 973 883 973 883 940 c 0,33,34
 883 932 883 932 881 923 c 0,35,36
 877 908 877 908 868 887 c 0,37,38
 841 826 841 826 788 826 c 2,39,-1
 605 827 l 1,40,-1
 464 217 l 2,41,42
 458 192 458 192 458 172 c 0,43,44
 458 124 458 124 489 98 c 0,45,46
 536 58 536 58 598 49 c 1,47,-1
 580 -19 l 1,48,49
 407 -19 407 -19 308 10 c 0,50,51
 226 34 226 34 226 143 c 0,52,53
 226 190 226 190 240 253 c 2,54,-1
 372 824 l 1,0,1
EndSplineSet
Validated: 1
EndChar

StartChar: u
Encoding: 117 117 88
Width: 1239
GlyphClass: 2
Flags: W
LayerCount: 2
Fore
SplineSet
1099 142 m 2,0,1
 1095 128 1095 128 1095 117 c 0,2,3
 1095 90 1095 90 1115 82 c 0,4,5
 1171 60 1171 60 1171 27 c 0,6,7
 1171 22 1171 22 1169 17 c 0,8,9
 1161 -20 1161 -20 1119 -20 c 2,10,-1
 876 -20 l 2,11,12
 837 -20 837 -20 837 9 c 2,13,-1
 837 15 l 1,14,-1
 844 45 l 1,15,16
 827 39 827 39 780.5 22 c 128,-1,17
 734 5 734 5 695 -7 c 0,18,19
 592 -39 592 -39 488 -49 c 0,20,21
 472 -50 472 -50 458 -50 c 0,22,23
 364 -50 364 -50 294 13 c 1,24,25
 229 73 229 73 229 208 c 0,26,27
 229 300 229 300 258 428 c 2,28,-1
 341 790 l 2,29,30
 345 803 345 803 345 814 c 0,31,32
 345 841 345 841 324 849 c 0,33,34
 269 871 269 871 269 905 c 0,35,36
 269 910 269 910 271 915 c 0,37,38
 279 952 279 952 320 952 c 1,39,40
 384 955 384 955 450.5 972 c 128,-1,41
 517 989 517 989 628 1024 c 1,42,-1
 489 422 l 2,43,44
 468 331 468 331 468 264 c 0,45,46
 468 174 468 174 505 128 c 0,47,48
 543 80 543 80 613 80 c 0,49,50
 656 80 656 80 713 98 c 0,51,52
 736 105 736 105 772.5 117.5 c 128,-1,53
 809 130 809 130 835 139 c 0,54,55
 840 141 840 141 852.5 145 c 128,-1,56
 865 149 865 149 869 151 c 1,57,-1
 1015 790 l 1,58,59
 1019 803 1019 803 1019 814 c 0,60,61
 1019 841 1019 841 998 849 c 0,62,63
 943 871 943 871 943 905 c 0,64,65
 943 910 943 910 945 915 c 0,66,67
 953 952 953 952 994 952 c 1,68,69
 1058 955 1058 955 1124.5 972 c 128,-1,70
 1191 989 1191 989 1302 1024 c 1,71,-1
 1099 142 l 2,0,1
EndSplineSet
Validated: 1
EndChar

StartChar: v
Encoding: 118 118 89
Width: 1036
GlyphClass: 2
Flags: W
LayerCount: 2
Fore
SplineSet
566 807 m 2,0,-1
 669 230 l 1,1,-1
 991 726 l 2,2,3
 1002 744 1002 744 1006 761 c 0,4,5
 1008 769 1008 769 1008 778 c 0,6,7
 1008 798 1008 798 996 818 c 2,8,-1
 964 870 l 1,9,-1
 1084 951 l 1,10,11
 1097 962 1097 962 1113 962 c 0,12,13
 1133 962 1133 962 1148 945 c 1,14,-1
 1190 887 l 2,15,16
 1203 870 1203 870 1203 849 c 0,17,18
 1203 839 1203 839 1201 830 c 0,19,20
 1197 813 1197 813 1186 792 c 0,21,22
 1158 743 1158 743 1112 678 c 1,23,-1
 646 -7 l 2,24,25
 638 -19 638 -19 630 -27 c 1,26,27
 615 -39 615 -39 599 -39 c 2,28,-1
 515 -39 l 2,29,30
 491 -39 491 -39 482 -21 c 0,31,32
 479 -16 479 -16 476.5 -1 c 128,-1,33
 474 14 474 14 474 20 c 1,34,-1
 327 797 l 2,35,36
 320 829 320 829 300 846 c 1,37,38
 284 857 284 857 265 866 c 128,-1,39
 246 875 246 875 235 886 c 1,40,41
 224 893 224 893 218 911 c 1,42,-1
 218 922 l 1,43,44
 221 930 221 930 224 936 c 1,45,46
 236 951 236 951 258 951 c 2,47,-1
 586 951 l 2,48,49
 601 951 601 951 619 940 c 1,50,51
 630 927 630 927 634 915 c 1,52,-1
 634 906 l 1,53,54
 630 889 630 889 611 875 c 0,55,56
 574 848 574 848 571 841 c 1,57,58
 567 835 567 835 566 827 c 0,59,60
 565 823 565 823 565 818 c 256,61,62
 565 813 565 813 566 807 c 2,0,-1
EndSplineSet
Validated: 1
EndChar

StartChar: w
Encoding: 119 119 90
Width: 1647
GlyphClass: 2
Flags: W
LayerCount: 2
Fore
SplineSet
1177 807 m 2,0,-1
 1280 230 l 1,1,-1
 1602 726 l 2,2,3
 1613 744 1613 744 1617 761 c 0,4,5
 1619 769 1619 769 1619 778 c 0,6,7
 1619 798 1619 798 1607 818 c 2,8,-1
 1575 870 l 1,9,-1
 1694 951 l 2,10,11
 1707 961 1707 961 1724 961 c 0,12,13
 1743 961 1743 961 1759 945 c 1,14,-1
 1801 887 l 2,15,16
 1814 870 1814 870 1814 849 c 0,17,18
 1814 839 1814 839 1812 830 c 0,19,20
 1808 813 1808 813 1797 792 c 0,21,22
 1769 743 1769 743 1723 678 c 1,23,-1
 1257 -7 l 2,24,25
 1249 -19 1249 -19 1241 -27 c 1,26,27
 1226 -39 1226 -39 1210 -39 c 2,28,-1
 1126 -39 l 2,29,30
 1102 -39 1102 -39 1093 -21 c 0,31,32
 1090 -16 1090 -16 1087.5 -1.5 c 128,-1,33
 1085 13 1085 13 1084 18 c 2,34,-1
 992 503 l 1,35,-1
 646 -7 l 2,36,37
 638 -19 638 -19 630 -27 c 1,38,39
 615 -39 615 -39 599 -39 c 2,40,-1
 515 -39 l 2,41,42
 491 -39 491 -39 482 -21 c 0,43,44
 479 -16 479 -16 476.5 -1 c 128,-1,45
 474 14 474 14 474 20 c 1,46,-1
 327 797 l 2,47,48
 320 829 320 829 300 846 c 1,49,50
 284 857 284 857 265 866 c 128,-1,51
 246 875 246 875 235 886 c 1,52,53
 224 893 224 893 218 911 c 1,54,-1
 218 922 l 1,55,56
 221 930 221 930 224 936 c 1,57,58
 236 951 236 951 258 951 c 2,59,-1
 586 951 l 2,60,61
 601 951 601 951 619 940 c 1,62,63
 630 927 630 927 634 915 c 1,64,-1
 634 906 l 1,65,66
 630 889 630 889 611 875 c 0,67,68
 574 848 574 848 571 841 c 1,69,70
 567 835 567 835 566 827 c 0,71,72
 565 823 565 823 565 818 c 256,73,74
 565 813 565 813 566 807 c 2,75,-1
 669 230 l 1,76,-1
 960 679 l 1,77,-1
 938 797 l 1,78,79
 931 829 931 829 911 846 c 1,80,81
 895 857 895 857 876 866 c 128,-1,82
 857 875 857 875 846 886 c 1,83,84
 829 897 829 897 829 913 c 2,85,-1
 829 922 l 1,86,87
 832 930 832 930 835 936 c 1,88,89
 847 951 847 951 869 951 c 2,90,-1
 1197 951 l 2,91,92
 1212 951 1212 951 1230 940 c 1,93,94
 1241 927 1241 927 1245 915 c 1,95,-1
 1245 906 l 1,96,97
 1241 889 1241 889 1222 875 c 0,98,99
 1185 848 1185 848 1182 841 c 1,100,101
 1178 835 1178 835 1177 827 c 0,102,103
 1176 823 1176 823 1176 818 c 256,104,105
 1176 813 1176 813 1177 807 c 2,0,-1
EndSplineSet
Validated: 1
EndChar

StartChar: x
Encoding: 120 120 91
Width: 1098
GlyphClass: 2
Flags: W
LayerCount: 2
Fore
SplineSet
166 110 m 1,0,-1
 524 451 l 1,1,-1
 352 826 l 1,2,3
 345 844 345 844 317 860 c 0,4,5
 303 869 303 869 286 875.5 c 128,-1,6
 269 882 269 882 257 891 c 1,7,8
 229 908 229 908 229 925 c 1,9,10
 234 949 234 949 270 949 c 2,11,-1
 592 949 l 2,12,13
 624 949 624 949 638 921 c 1,14,15
 640 914 640 914 640 909 c 2,16,-1
 640 905 l 1,17,18
 637 888 637 888 617 878 c 0,19,20
 609 874 609 874 605 864 c 1,21,-1
 605 860 l 2,22,23
 605 852 605 852 609 843 c 2,24,-1
 709 626 l 1,25,-1
 899 809 l 2,26,27
 1016 921 1016 921 1047 944 c 0,28,29
 1066 957 1066 957 1091 957 c 0,30,31
 1123 957 1123 957 1164 933 c 2,32,-1
 1220 899 l 1,33,34
 1236 888 1236 888 1236 872 c 2,35,-1
 1236 866 l 1,36,37
 1232 856 1232 856 1227 849 c 2,38,-1
 1137 724 l 1,39,40
 1084 758 1084 758 1056 773 c 1,41,-1
 1055 773 l 2,42,43
 1043 773 1043 773 1014 745 c 2,44,-1
 763 506 l 1,45,-1
 948 103 l 2,46,47
 957 81 957 81 986 68 c 1,48,49
 999 61 999 61 1013.5 54.5 c 128,-1,50
 1028 48 1028 48 1042 39 c 0,51,52
 1071 21 1071 21 1071 4 c 1,53,54
 1066 -20 1066 -20 1030 -20 c 2,55,-1
 708 -20 l 2,56,57
 677 -20 677 -20 662 7 c 1,58,59
 660 14 660 14 660 19 c 2,60,-1
 660 23 l 1,61,62
 663 39 663 39 684 51 c 0,63,64
 691 55 691 55 694 62 c 1,65,-1
 694 64 l 1,66,67
 695 68 695 68 695 71 c 0,68,69
 695 77 695 77 691 86 c 2,70,-1
 579 331 l 1,71,-1
 320 85 l 1,72,73
 300 63 300 63 298 51 c 0,74,75
 296 45 296 45 296 41 c 1,76,77
 298 38 298 38 298 29 c 0,78,79
 298 24 298 24 296 21 c 0,80,81
 292 13 292 13 283 2 c 0,82,83
 265 -20 265 -20 242 -20 c 2,84,-1
 34 -20 l 2,85,86
 0 -20 0 -20 0 4 c 2,87,-1
 0 7 l 1,88,89
 3 17 3 17 12 27 c 1,90,91
 34 47 34 47 79.5 58 c 128,-1,92
 125 69 125 69 166 110 c 1,0,-1
EndSplineSet
Validated: 1
EndChar

StartChar: y
Encoding: 121 121 92
Width: 1036
GlyphClass: 2
Flags: W
LayerCount: 2
Fore
SplineSet
327 797 m 2,0,1
 320 829 320 829 300 846 c 1,2,3
 280 860 280 860 251 873 c 128,-1,4
 222 886 222 886 218 912 c 1,5,-1
 218 924 l 1,6,7
 224 951 224 951 258 951 c 2,8,-1
 586 951 l 2,9,10
 626 951 626 951 633 918 c 1,11,12
 635 915 635 915 635 909 c 256,13,14
 635 903 635 903 633 900 c 1,15,16
 628 880 628 880 599 868 c 1,17,18
 582 859 582 859 571 841 c 0,19,20
 567 835 567 835 566 827 c 0,21,22
 565 823 565 823 565 818 c 256,23,24
 565 813 565 813 566 807 c 2,25,-1
 669 230 l 1,26,-1
 991 726 l 2,27,28
 1002 744 1002 744 1006 761 c 0,29,30
 1008 769 1008 769 1008 778 c 0,31,32
 1008 798 1008 798 996 818 c 2,33,-1
 964 870 l 1,34,-1
 1084 951 l 1,35,36
 1097 962 1097 962 1113 962 c 0,37,38
 1133 962 1133 962 1148 945 c 1,39,-1
 1190 887 l 2,40,41
 1203 870 1203 870 1203 849 c 0,42,43
 1203 839 1203 839 1201 830 c 0,44,45
 1197 813 1197 813 1186 792 c 0,46,47
 1158 743 1158 743 1112 678 c 1,48,-1
 362 -423 l 2,49,50
 317 -490 317 -490 282 -535 c 1,51,52
 240 -586 240 -586 190 -586 c 2,53,-1
 186 -586 l 1,54,-1
 104 -583 l 1,55,56
 68 -576 68 -576 68 -548 c 2,57,-1
 68 -543 l 1,58,-1
 92 -410 l 1,59,-1
 164 -409 l 1,60,61
 218 -407 218 -407 252 -360 c 2,62,-1
 481 -39 l 1,63,64
 488 -39 488 -39 488 -34 c 0,65,66
 488 -31 488 -31 484 -24 c 0,67,68
 479 -16 479 -16 476.5 -1 c 128,-1,69
 474 14 474 14 474 20 c 1,70,-1
 327 797 l 2,0,1
EndSplineSet
Validated: 1
EndChar

StartChar: z
Encoding: 122 122 93
Width: 1019
GlyphClass: 2
Flags: W
LayerCount: 2
Fore
SplineSet
1154 867 m 2,0,-1
 365 99 l 1,1,-1
 745 99 l 1,2,3
 788 101 788 101 826 130.5 c 128,-1,4
 864 160 864 160 920 219 c 0,5,6
 961 261 961 261 980 261 c 0,7,8
 1019 261 1019 261 1019 230 c 0,9,10
 1019 225 1019 225 1018 219 c 2,11,-1
 982 62 l 2,12,13
 969 4 969 4 946 -8 c 128,-1,14
 923 -20 923 -20 845 -20 c 2,15,-1
 160 -21 l 1,16,17
 83 -20 83 -20 55 -10 c 0,18,19
 31 -2 31 -2 31 18 c 2,20,-1
 31 22 l 1,21,22
 34 41 34 41 60 64 c 1,23,-1
 846 841 l 1,24,-1
 546 841 l 2,25,26
 504 841 504 841 469 811.5 c 128,-1,27
 434 782 434 782 379 724 c 1,28,29
 338 683 338 683 319 683 c 0,30,31
 278 683 278 683 278 715 c 0,32,33
 278 719 278 719 280 724 c 2,34,-1
 316 882 l 2,35,36
 328 935 328 935 354 950 c 128,-1,37
 380 965 380 965 454 965 c 2,38,-1
 1076 965 l 2,39,40
 1184 965 1184 965 1184 918 c 0,41,42
 1184 911 1184 911 1182 908 c 1,43,44
 1179 890 1179 890 1154 867 c 2,0,-1
EndSplineSet
Validated: 1
EndChar

StartChar: lcub
Encoding: 123 123 94
Width: 1024
GlyphClass: 2
Flags: W
LayerCount: 2
Fore
SplineSet
298 593 m 0,0,1
 265 595 265 595 257 617 c 1,2,3
 252 625 252 625 252 636 c 0,4,5
 252 641 252 641 254 648 c 0,6,7
 255 653 255 653 259 659 c 1,8,9
 270 688 270 688 310 693 c 1,10,11
 456 705 456 705 522 761 c 0,12,13
 558 792 558 792 581.5 850.5 c 128,-1,14
 605 909 605 909 617 964 c 2,15,-1
 666 1176 l 2,16,17
 683 1250 683 1250 716.5 1329.5 c 128,-1,18
 750 1409 750 1409 812 1457 c 1,19,20
 910 1536 910 1536 1124 1536 c 0,21,22
 1159 1536 1159 1536 1173 1515 c 1,23,24
 1180 1499 1180 1499 1180 1487 c 0,25,26
 1180 1483 1180 1483 1178 1478 c 0,27,28
 1170 1446 1170 1446 1120 1446 c 0,29,30
 998 1444 998 1444 946 1398 c 0,31,32
 911 1368 911 1368 889.5 1310.5 c 128,-1,33
 868 1253 868 1253 857 1201 c 2,34,-1
 824 1058 l 2,35,36
 805 980 805 980 773.5 889 c 128,-1,37
 742 798 742 798 691 743 c 0,38,39
 609 655 609 655 536 641 c 1,40,41
 599 628 599 628 642 536 c 0,42,43
 661 495 661 495 661 438 c 0,44,45
 661 414 661 414 658 387 c 0,46,47
 648 298 648 298 629 219 c 1,48,-1
 597 77 l 2,49,50
 580 3 580 3 580 -47 c 0,51,52
 580 -94 580 -94 595 -117 c 1,53,54
 624 -158 624 -158 740 -160 c 0,55,56
 777 -160 777 -160 784 -194 c 1,57,-1
 784 -199 l 2,58,59
 784 -205 784 -205 782 -212 c 0,60,61
 780 -223 780 -223 769 -235 c 1,62,63
 751 -251 751 -251 721 -251 c 0,64,65
 506 -251 506 -251 439 -169 c 0,66,67
 401 -122 401 -122 401 -48 c 2,68,-1
 401 -37 l 1,69,70
 404 41 404 41 421 115 c 2,71,-1
 470 326 l 2,72,73
 483 382 483 382 486 442 c 1,74,-1
 486 455 l 2,75,76
 486 503 486 503 468 532 c 1,77,78
 446 561 446 561 397.5 575 c 128,-1,79
 349 589 349 589 298 593 c 0,0,1
EndSplineSet
Validated: 1
EndChar

StartChar: verbar
Encoding: 124 124 95
Width: 1024
GlyphClass: 2
Flags: W
LayerCount: 2
Fore
SplineSet
773 1510 m 1,0,-1
 965 1510 l 1,1,-1
 560 -247 l 1,2,-1
 368 -247 l 1,3,-1
 773 1510 l 1,0,-1
EndSplineSet
Validated: 1
EndChar

StartChar: rcub
Encoding: 125 125 96
Width: 1024
GlyphClass: 2
Flags: W
LayerCount: 2
Fore
SplineSet
923 593 m 0,0,1
 869 589 869 589 810.5 574 c 128,-1,2
 752 559 752 559 714 528 c 1,3,4
 675 493 675 493 651.5 434 c 128,-1,5
 628 375 628 375 616 320 c 2,6,-1
 567 109 l 2,7,8
 549 34 549 34 515.5 -45 c 128,-1,9
 482 -124 482 -124 422 -172 c 1,10,11
 320 -251 320 -251 109 -251 c 0,12,13
 75 -251 75 -251 63 -232 c 0,14,15
 56 -222 56 -222 56 -210 c 2,16,-1
 56 -203 l 1,17,18
 59 -195 59 -195 63 -187 c 0,19,20
 79 -160 79 -160 112 -160 c 0,21,22
 235 -158 235 -158 288 -113 c 1,23,24
 343 -64 343 -64 376 83 c 1,25,-1
 410 227 l 2,26,27
 428 305 428 305 459.5 395.5 c 128,-1,28
 491 486 491 486 542 541 c 0,29,30
 624 630 624 630 695 643 c 1,31,32
 632 656 632 656 591 748 c 1,33,34
 571 788 571 788 571 846 c 0,35,36
 571 870 571 870 575 898 c 0,37,38
 585 987 585 987 603 1064 c 2,39,-1
 636 1207 l 2,40,41
 648 1259 648 1259 653 1319 c 1,42,-1
 653 1337 l 2,43,44
 653 1379 653 1379 638 1402 c 0,45,46
 609 1444 609 1444 492 1446 c 0,47,48
 441 1446 441 1446 441 1478 c 2,49,-1
 441 1483 l 1,50,51
 444 1500 444 1500 463 1519 c 1,52,53
 478 1536 478 1536 512 1536 c 0,54,55
 728 1536 728 1536 795 1454 c 0,56,57
 832 1408 832 1408 832 1335 c 2,58,-1
 832 1322 l 1,59,60
 828 1243 828 1243 812 1170 c 2,61,-1
 763 958 l 2,62,63
 750 902 750 902 747 842 c 0,64,65
 746 834 746 834 746 828 c 0,66,67
 746 782 746 782 764 755 c 0,68,69
 798 705 798 705 937 693 c 1,70,71
 982 687 982 687 982 650 c 1,72,-1
 979 639 l 1,73,74
 976 622 976 622 963 611 c 1,75,76
 948 595 948 595 923 593 c 0,0,1
EndSplineSet
Validated: 1
EndChar

StartChar: tld
Encoding: 126 126 97
Width: 1024
GlyphClass: 2
Flags: W
LayerCount: 2
Fore
SplineSet
1153 719 m 0,0,1
 1064 603 1064 603 994 551 c 1,2,3
 915 490 915 490 840 490 c 0,4,5
 718 490 718 490 594 579 c 0,6,7
 538 620 538 620 480 620 c 0,8,9
 435 620 435 620 388 595 c 0,10,11
 374 587 374 587 355 576.5 c 128,-1,12
 336 566 336 566 314 550 c 1,13,14
 274 518 274 518 238 478 c 0,15,16
 223 461 223 461 200 461 c 0,17,18
 183 461 183 461 168 471 c 1,19,20
 149 482 149 482 149 501 c 0,21,22
 149 505 149 505 150 510 c 0,23,24
 153 523 153 523 167 540 c 0,25,26
 232 612 232 612 301.5 692.5 c 128,-1,27
 371 773 371 773 486 773 c 0,28,29
 622 773 622 773 739 680 c 0,30,31
 789 639 789 639 847 639 c 0,32,33
 899 639 899 639 959 671 c 1,34,35
 1016 700 1016 700 1072 771 c 1,36,37
 1088 793 1088 793 1116 793 c 0,38,39
 1124 793 1124 793 1129 791 c 1,40,41
 1164 785 1164 785 1164 754 c 2,42,-1
 1164 758 l 1,43,44
 1165 757 1165 757 1165 748 c 0,45,46
 1165 743 1165 743 1163 739 c 0,47,48
 1161 731 1161 731 1153 719 c 0,0,1
EndSplineSet
Validated: 1
EndChar

StartChar: iexcl
Encoding: 161 161 98
Width: 569
GlyphClass: 2
Flags: W
LayerCount: 2
Fore
SplineSet
439 515 m 2,0,-1
 288 -439 l 1,1,-1
 286 -448 l 2,2,3
 267 -529 267 -529 172 -529 c 2,4,-1
 109 -529 l 2,5,6
 23 -529 23 -529 23 -466 c 0,7,8
 23 -455 23 -455 26 -442 c 2,9,-1
 28 -432 l 1,10,-1
 319 522 l 1,11,12
 328 563 328 563 373 563 c 2,13,-1
 394 563 l 2,14,15
 440 563 440 563 440 526 c 0,16,17
 440 520 440 520 439 515 c 2,0,-1
412 644 m 0,18,19
 294 644 294 644 294 726 c 0,20,21
 294 740 294 740 297 754 c 2,22,-1
 316 836 l 2,23,24
 340 940 340 940 471 940 c 0,25,26
 589 940 589 940 589 858 c 0,27,28
 589 844 589 844 586 830 c 2,29,-1
 567 748 l 2,30,31
 543 644 543 644 412 644 c 0,18,19
EndSplineSet
Validated: 1
EndChar

StartChar: cent
Encoding: 162 162 99
Width: 1024
GlyphClass: 2
Flags: W
LayerCount: 2
Fore
SplineSet
873 976 m 1,0,-1
 847 976 l 2,1,2
 1021 976 1021 976 1154 874 c 1,3,-1
 1095 695 l 1,4,5
 1084 667 1084 667 1055 667 c 2,6,-1
 1051 667 l 1,7,8
 1020 670 1020 670 1013 704 c 0,9,10
 995 782 995 782 946 818 c 1,11,12
 902 847 902 847 844 850 c 1,13,-1
 669 89 l 1,14,15
 747 92 747 92 864 148 c 0,16,17
 936 183 936 183 963 183 c 0,18,19
 985 183 985 183 993 167 c 1,20,21
 995 160 995 160 995 155 c 2,22,-1
 995 149 l 1,23,24
 991 131 991 131 969 104 c 1,25,26
 945 70 945 70 920 52 c 0,27,28
 855 3 855 3 773.5 -18 c 128,-1,29
 692 -39 692 -39 638 -41 c 1,30,-1
 594 -232 l 1,31,-1
 459 -232 l 1,32,-1
 504 -37 l 1,33,34
 357 -24 357 -24 263 85 c 1,35,36
 189 169 189 169 189 299 c 0,37,38
 189 336 189 336 195 376 c 0,39,40
 202 421 202 421 211 463 c 1,41,42
 225 518 225 518 243 569 c 1,43,44
 278 661 278 661 355 751 c 0,45,46
 511 933 511 933 736 966 c 1,47,-1
 774 1135 l 1,48,-1
 909 1135 l 1,49,-1
 873 976 l 1,0,-1
705 836 m 1,50,51
 672 830 672 830 624 793 c 1,52,53
 562 743 562 743 524 675 c 1,54,55
 482 604 482 604 462 515 c 0,56,57
 455 487 455 487 451 457 c 0,58,59
 443 409 443 409 443 367 c 0,60,61
 443 284 443 284 474 223 c 0,62,63
 513 145 513 145 542 129 c 1,64,-1
 705 836 l 1,50,51
EndSplineSet
Validated: 1
EndChar

StartChar: pound
Encoding: 163 163 100
Width: 1024
GlyphClass: 2
Flags: W
LayerCount: 2
Fore
SplineSet
122 105 m 0,0,1
 118 88 118 88 118 77 c 0,2,3
 118 49 118 49 142 49 c 0,4,5
 184 49 184 49 213 89 c 128,-1,6
 242 129 242 129 260 162 c 1,7,8
 245 181 245 181 220 181 c 0,9,10
 139 181 139 181 122 105 c 0,0,1
245 804 m 2,11,-1
 398 804 l 1,12,13
 406 865 406 865 421 931 c 0,14,15
 435 989 435 989 452 1038 c 0,16,17
 494 1160 494 1160 560 1248 c 0,18,19
 721 1463 721 1463 971 1463 c 0,20,21
 1049 1463 1049 1463 1114 1423.5 c 128,-1,22
 1179 1384 1179 1384 1199 1312 c 0,23,24
 1205 1292 1205 1292 1205 1269 c 0,25,26
 1205 1253 1205 1253 1202 1234 c 1,27,-1
 1200 1226 l 2,28,29
 1190 1186 1190 1186 1154 1156 c 0,30,31
 1113 1123 1113 1123 1075 1123 c 0,32,33
 1038 1123 1038 1123 1009 1152 c 1,34,35
 985 1174 985 1174 985 1214 c 0,36,37
 985 1222 985 1222 986 1231 c 0,38,39
 990 1274 990 1274 993 1303 c 1,40,-1
 993 1309 l 2,41,42
 993 1355 993 1355 942 1363 c 0,43,44
 927 1365 927 1365 913 1365 c 0,45,46
 867 1365 867 1365 832 1340 c 0,47,48
 761 1290 761 1290 729.5 1221 c 128,-1,49
 698 1152 698 1152 681 1076 c 0,50,51
 664 1001 664 1001 653.5 928 c 128,-1,52
 643 855 643 855 635 804 c 1,53,-1
 868 804 l 2,54,55
 905 804 905 804 905 774 c 2,56,-1
 905 767 l 1,57,-1
 888 696 l 2,58,59
 881 664 881 664 845 664 c 2,60,-1
 612 664 l 1,61,62
 609 647 609 647 600 611 c 1,63,64
 593 576 593 576 582 541 c 0,65,66
 557 457 557 457 521 382.5 c 128,-1,67
 485 308 485 308 458 247 c 1,68,69
 486 236 486 236 535.5 218 c 128,-1,70
 585 200 585 200 637 186 c 0,71,72
 690 172 690 172 738 172 c 0,73,74
 776 172 776 172 812 181 c 0,75,76
 885 200 885 200 939 261 c 0,77,78
 955 279 955 279 965 306.5 c 128,-1,79
 975 334 975 334 1022 334 c 0,80,81
 1063 334 1063 334 1063 299 c 0,82,83
 1063 295 1063 295 1062 288 c 0,84,85
 1054 252 1054 252 1034.5 221 c 128,-1,86
 1015 190 1015 190 997 161 c 0,87,88
 936 62 936 62 837 1 c 1,89,90
 747 -51 747 -51 660 -51 c 0,91,92
 648 -51 648 -51 636 -50 c 0,93,94
 539 -42 539 -42 467 15 c 0,95,96
 452 28 452 28 405 63 c 0,97,98
 361 95 361 95 360 95 c 0,99,100
 301 29 301 29 218 -26 c 1,101,102
 176 -52 176 -52 133 -52 c 0,103,104
 108 -52 108 -52 83 -43 c 0,105,106
 17 -19 17 -19 3 42 c 0,107,108
 1 51 1 51 1 62 c 0,109,110
 1 77 1 77 5 94 c 0,111,112
 11 120 11 120 28 151 c 0,113,114
 60 213 60 213 105 243 c 0,115,116
 168 286 168 286 218 286 c 2,117,-1
 225 286 l 1,118,119
 268 283 268 283 303 280 c 1,120,121
 315 313 315 313 325 360 c 2,122,-1
 332 390 l 1,123,124
 344 453 344 453 356 514 c 1,125,126
 369 587 369 587 379 664 c 1,127,-1
 222 664 l 2,128,129
 185 664 185 664 185 694 c 2,130,-1
 185 701 l 1,131,-1
 202 772 l 2,132,133
 209 804 209 804 245 804 c 2,11,-1
EndSplineSet
Validated: 1
EndChar

StartChar: curren
Encoding: 164 164 101
Width: 1024
GlyphClass: 2
Flags: W
LayerCount: 2
Fore
SplineSet
682 712 m 0,0,1
 585 712 585 712 499 642 c 128,-1,2
 413 572 413 572 391 471 c 1,3,4
 383 441 383 441 383 414 c 0,5,6
 383 352 383 352 420 304 c 0,7,8
 471 239 471 239 564 239 c 0,9,10
 659 239 659 239 745 309 c 128,-1,11
 831 379 831 379 854 478 c 0,12,13
 861 508 861 508 861 534 c 0,14,15
 861 598 861 598 824 647 c 1,16,17
 773 712 773 712 682 712 c 0,0,1
703 842 m 0,18,19
 830 842 830 842 897 780 c 1,20,-1
 1056 909 l 2,21,22
 1070 921 1070 921 1086 921 c 0,23,24
 1107 921 1107 921 1116 905 c 1,25,-1
 1152 859 l 1,26,27
 1157 850 1157 850 1157 843 c 2,28,-1
 1157 839 l 1,29,30
 1154 826 1154 826 1143 816 c 2,31,-1
 975 681 l 1,32,33
 1003 629 1003 629 1003 555 c 0,34,35
 1003 515 1003 515 994 473 c 0,36,37
 965 350 965 350 880 265 c 1,38,-1
 983 132 l 1,39,40
 989 122 989 122 989 114 c 2,41,-1
 989 111 l 1,42,43
 987 99 987 99 977 89 c 1,44,-1
 918 42 l 2,45,46
 904 31 904 31 889 31 c 0,47,48
 869 31 869 31 858 47 c 2,49,-1
 763 171 l 1,50,51
 669 111 669 111 543 111 c 0,52,53
 415 111 415 111 349 172 c 1,54,-1
 191 43 l 2,55,56
 177 31 177 31 161 31 c 0,57,58
 142 31 142 31 131 46 c 2,59,-1
 96 92 l 2,60,61
 89 101 89 101 89 110 c 2,62,-1
 89 113 l 1,63,64
 91 126 91 126 104 137 c 2,65,-1
 270 271 l 1,66,67
 243 322 243 322 243 396 c 0,68,69
 243 436 243 436 253 479 c 0,70,71
 282 600 282 600 366 686 c 1,72,-1
 266 819 l 1,73,74
 257 827 257 827 257 838 c 2,75,-1
 257 841 l 1,76,77
 260 854 260 854 271 864 c 2,78,-1
 328 910 l 2,79,80
 342 921 342 921 357 921 c 0,81,82
 375 921 375 921 388 906 c 1,83,-1
 483 781 l 1,84,85
 578 842 578 842 703 842 c 0,18,19
EndSplineSet
Validated: 1
EndChar

StartChar: yen
Encoding: 165 165 102
Width: 1366
GlyphClass: 2
Flags: W
LayerCount: 2
Fore
SplineSet
695 741 m 1,0,-1
 506 1252 l 1,1,2
 494 1281 494 1281 453 1310 c 1,3,4
 431 1323 431 1323 407.5 1332.5 c 128,-1,5
 384 1342 384 1342 368 1354 c 1,6,7
 353 1362 353 1362 346 1378 c 0,8,9
 344 1385 344 1385 344 1391 c 2,10,-1
 344 1396 l 1,11,-1
 346 1402 l 2,12,13
 353 1424 353 1424 381 1424 c 2,14,-1
 720 1424 l 2,15,16
 740 1424 740 1424 755 1412 c 0,17,18
 768 1402 768 1402 775 1389 c 1,19,20
 777 1382 777 1382 777 1376 c 2,21,-1
 777 1371 l 1,22,23
 773 1357 773 1357 761 1345 c 1,24,25
 750 1336 750 1336 740.5 1327 c 128,-1,26
 731 1318 731 1318 728 1309 c 1,27,-1
 727 1304 l 2,28,29
 725 1299 725 1299 725 1294 c 0,30,31
 725 1283 725 1283 732 1269 c 1,32,-1
 930 771 l 1,33,34
 987 830 987 830 1079 936 c 128,-1,35
 1171 1042 1171 1042 1250 1135 c 0,36,37
 1287 1178 1287 1178 1299 1206 c 1,38,-1
 1301 1215 l 2,39,40
 1303 1223 1303 1223 1303 1234 c 0,41,42
 1303 1255 1303 1255 1296 1284 c 2,43,-1
 1274 1367 l 1,44,-1
 1448 1436 l 2,45,46
 1462 1441 1462 1441 1473 1441 c 0,47,48
 1504 1441 1504 1441 1517 1411 c 1,49,-1
 1554 1309 l 2,50,51
 1559 1296 1559 1296 1559 1282 c 0,52,53
 1559 1271 1559 1271 1557 1261 c 0,54,55
 1547 1222 1547 1222 1502 1183 c 0,56,57
 1438 1126 1438 1126 1356 1042 c 0,58,59
 1284 968 1284 968 1207 881 c 128,-1,60
 1130 794 1130 794 1081 741 c 1,61,-1
 1335 741 l 1,62,-1
 1308 622 l 1,63,-1
 980 622 l 1,64,65
 971 607 971 607 958.5 569.5 c 128,-1,66
 946 532 946 532 943 520 c 1,67,-1
 1284 520 l 1,68,-1
 1257 401 l 1,69,-1
 916 401 l 1,70,-1
 857 142 l 2,71,72
 853 128 853 128 853 117 c 0,73,74
 853 90 853 90 873 82 c 0,75,76
 929 60 929 60 929 27 c 0,77,78
 929 22 929 22 927 17 c 0,79,80
 919 -20 919 -20 877 -20 c 2,81,-1
 538 -20 l 2,82,83
 496 -20 496 -20 496 14 c 0,84,85
 496 19 496 19 497 25 c 0,86,87
 506 60 506 60 560 77.5 c 128,-1,88
 614 95 614 95 626 149 c 0,89,90
 667 328 667 328 670.5 340.5 c 128,-1,91
 674 353 674 353 685 401 c 1,92,-1
 382 401 l 1,93,-1
 409 520 l 1,94,-1
 713 520 l 1,95,-1
 734 622 l 1,96,-1
 433 622 l 1,97,-1
 460 741 l 1,98,-1
 695 741 l 1,0,-1
EndSplineSet
Validated: 1
EndChar

StartChar: brvbar
Encoding: 166 166 103
Width: 1024
GlyphClass: 2
Flags: W
LayerCount: 2
Fore
SplineSet
663 1510 m 1,0,-1
 846 1510 l 1,1,-1
 681 793 l 1,2,-1
 498 793 l 1,3,-1
 663 1510 l 1,0,-1
259 -243 m 1,4,-1
 424 473 l 1,5,-1
 607 473 l 1,6,-1
 442 -243 l 1,7,-1
 259 -243 l 1,4,-1
EndSplineSet
Validated: 1
EndChar

StartChar: sect
Encoding: 167 167 104
Width: 1024
GlyphClass: 2
Flags: W
LayerCount: 2
Fore
SplineSet
413 -345 m 0,0,1
 484 -339 484 -339 556 -307.5 c 128,-1,2
 628 -276 628 -276 681 -213 c 0,3,4
 737 -146 737 -146 759 -55 c 1,5,-1
 761 -44 l 2,6,7
 766 -20 766 -20 766 2 c 0,8,9
 766 62 766 62 726 98 c 1,10,11
 700 120 700 120 658 133 c 0,12,13
 569 159 569 159 468.5 170.5 c 128,-1,14
 368 182 368 182 282 229 c 0,15,16
 201 273 201 273 176 355 c 0,17,18
 162 398 162 398 162 443 c 0,19,20
 162 484 162 484 172 527 c 0,21,22
 213 702 213 702 341 803 c 1,23,24
 283 857 283 857 283 964 c 0,25,26
 283 1006 283 1006 294 1054 c 0,27,28
 336 1234 336 1234 487 1349 c 0,29,30
 646 1470 646 1470 843 1470 c 0,31,32
 858 1470 858 1470 873 1469 c 0,33,34
 1084 1460 1084 1460 1226 1353 c 1,35,-1
 1154 1148 l 2,36,37
 1143 1115 1143 1115 1111 1115 c 0,38,39
 1103 1115 1103 1115 1099 1116 c 0,40,41
 1070 1119 1070 1119 1063 1159 c 1,42,43
 1045 1236 1045 1236 987.5 1289.5 c 128,-1,44
 930 1343 930 1343 855 1346 c 1,45,-1
 841 1346 l 2,46,47
 762 1346 762 1346 695 1317 c 0,48,49
 652 1299 652 1299 620 1272 c 1,50,51
 591 1249 591 1249 567 1213 c 0,52,53
 544 1180 544 1180 530 1146 c 0,54,55
 517 1117 517 1117 512 1091 c 1,56,57
 506 1068 506 1068 506 1048 c 0,58,59
 506 1039 506 1039 507 1030 c 0,60,61
 511 975 511 975 544 946 c 0,62,63
 567 925 567 925 604 915 c 0,64,65
 624 909 624 909 655.5 904 c 128,-1,66
 687 899 687 899 722 893 c 0,67,68
 771 884 771 884 829 874.5 c 128,-1,69
 887 865 887 865 941 849 c 1,70,71
 1036 814 1036 814 1073 761 c 0,72,73
 1100 723 1100 723 1112 671 c 1,74,75
 1116 645 1116 645 1116 618 c 0,76,77
 1116 576 1116 576 1106 531 c 0,78,79
 1067 362 1067 362 939 252 c 1,80,-1
 952 234 l 1,81,82
 979 193 979 193 991 144 c 1,83,84
 995 119 995 119 995 92 c 0,85,86
 995 50 995 50 985 4 c 0,87,88
 938 -198 938 -198 739 -336 c 1,89,90
 639 -404 639 -404 525 -441 c 1,91,92
 439 -467 439 -467 337 -473 c 0,93,94
 317 -474 317 -474 297 -474 c 0,95,96
 162 -474 162 -474 34 -431 c 1,97,-1
 1 -173 l 1,98,-1
 1 -161 l 1,99,100
 6 -144 6 -144 17 -133 c 1,101,102
 32 -113 32 -113 56 -113 c 2,103,-1
 60 -113 l 1,104,105
 90 -116 90 -116 101 -155 c 1,106,107
 130 -275 130 -275 201 -314 c 0,108,109
 260 -347 260 -347 365 -347 c 0,110,111
 388 -347 388 -347 413 -345 c 0,0,1
880 472 m 1,113,-1
 883 482 l 1,114,115
 888 506 888 506 888 527 c 0,116,117
 888 589 888 589 847 624 c 0,118,119
 819 648 819 648 780 660 c 0,120,121
 705 682 705 682 621 692.5 c 128,-1,122
 537 703 537 703 475 725 c 1,123,124
 465 716 465 716 446 687 c 1,125,126
 423 655 423 655 408 619 c 0,127,128
 395 590 395 590 390 564 c 1,129,130
 384 540 384 540 384 519 c 0,131,132
 384 511 384 511 385 504 c 0,133,134
 389 448 389 448 424 420 c 1,135,136
 445 398 445 398 481 389 c 0,137,138
 514 380 514 380 600 366 c 0,139,140
 650 357 650 357 708 347.5 c 128,-1,141
 766 338 766 338 819 322 c 1,142,112
 858 378 858 378 880 472 c 1,113,-1
EndSplineSet
Validated: 1
EndChar

StartChar: uml
Encoding: 168 168 105
Width: 682
GlyphClass: 2
Flags: W
LayerCount: 2
Fore
SplineSet
823 1145 m 0,0,1
 762 1145 762 1145 732 1187 c 1,2,3
 711 1212 711 1212 711 1247 c 0,4,5
 711 1262 711 1262 714 1277 c 0,6,7
 743 1403 743 1403 873 1403 c 0,8,9
 934 1403 934 1403 965 1362 c 0,10,11
 986 1335 986 1335 986 1301 c 0,12,13
 986 1286 986 1286 983 1271 c 0,14,15
 971 1219 971 1219 926 1183 c 0,16,17
 879 1145 879 1145 823 1145 c 0,0,1
399 1145 m 0,18,19
 339 1145 339 1145 307 1187 c 0,20,21
 281 1221 281 1221 281 1256 c 0,22,23
 281 1267 281 1267 283 1277 c 0,24,25
 294 1321 294 1321 346 1365 c 1,26,27
 393 1403 393 1403 449 1403 c 0,28,29
 509 1403 509 1403 540 1362 c 0,30,31
 561 1335 561 1335 561 1301 c 0,32,33
 561 1286 561 1286 558 1271 c 0,34,35
 546 1219 546 1219 501 1183 c 0,36,37
 454 1145 454 1145 399 1145 c 0,18,19
EndSplineSet
Validated: 1
EndChar

StartChar: copy
Encoding: 169 169 106
Width: 1532
GlyphClass: 2
Flags: W
LayerCount: 2
Fore
SplineSet
1102 1472 m 0,0,1
 1425 1472 1425 1472 1601 1244 c 1,2,3
 1724 1087 1724 1087 1724 884 c 0,4,5
 1724 798 1724 798 1702 705 c 0,6,7
 1629 390 1629 390 1353.5 167 c 128,-1,8
 1078 -56 1078 -56 759 -56 c 0,9,10
 436 -56 436 -56 260 172 c 1,11,12
 137 329 137 329 137 533 c 0,13,14
 137 619 137 619 158 711 c 0,15,16
 232 1026 232 1026 507.5 1249 c 128,-1,17
 783 1472 783 1472 1102 1472 c 0,0,1
1084 1352 m 0,18,19
 818 1352 818 1352 584.5 1163 c 128,-1,20
 351 974 351 974 289 705 c 0,21,22
 270 624 270 624 270 552 c 0,23,24
 270 380 270 380 372 248 c 0,25,26
 515 64 515 64 777 64 c 0,27,28
 1043 64 1043 64 1277 252.5 c 128,-1,29
 1511 441 1511 441 1572 711 c 0,30,31
 1591 792 1591 792 1591 865 c 0,32,33
 1591 1036 1591 1036 1490 1168 c 1,34,35
 1346 1352 1346 1352 1084 1352 c 0,18,19
1089 1148 m 1,36,-1
 1104 1148 l 2,37,38
 1256 1148 1256 1148 1376 1059 c 1,39,-1
 1324 905 l 1,40,41
 1317 878 1317 878 1286 878 c 2,42,-1
 1283 878 l 2,43,44
 1255 878 1255 878 1247 912 c 0,45,46
 1232 978 1232 978 1191 1008 c 1,47,48
 1152 1035 1152 1035 1081 1035 c 2,49,-1
 1062 1035 l 1,50,51
 976 1031 976 1031 920 987 c 0,52,53
 870 947 870 947 834 886 c 0,54,55
 799 825 799 825 782 750 c 0,56,57
 776 725 776 725 772 700 c 0,58,59
 765 659 765 659 765 623 c 0,60,61
 765 551 765 551 791 500 c 0,62,63
 842 404 842 404 924 392 c 1,64,65
 937 389 937 389 952 389 c 0,66,67
 1021 389 1021 389 1121 437 c 1,68,69
 1183 468 1183 468 1207 468 c 0,70,71
 1223 468 1223 468 1235 456 c 1,72,73
 1239 448 1239 448 1239 441 c 2,74,-1
 1239 436 l 1,75,76
 1235 419 1235 419 1216 396 c 1,77,78
 1194 366 1194 366 1174 351 c 0,79,80
 1109 303 1109 303 1030 285 c 0,81,82
 955 268 955 268 890 268 c 2,83,-1
 883 268 l 2,84,85
 711 268 711 268 616 365 c 1,86,87
 540 440 540 440 540 564 c 0,88,89
 540 596 540 596 545 631 c 0,90,91
 550 671 550 671 559 708 c 0,92,93
 570 754 570 754 586 798 c 0,94,95
 615 876 615 876 683 954 c 0,96,97
 843 1140 843 1140 1089 1148 c 1,36,-1
EndSplineSet
Validated: 1
EndChar

StartChar: ordf
Encoding: 170 170 107
Width: 686
GlyphClass: 2
Flags: W
LayerCount: 2
Fore
SplineSet
662 867 m 1,0,-1
 524 820 l 2,1,2
 499 811 499 811 483 811 c 0,3,4
 465 811 465 811 456 812 c 0,5,6
 358 816 358 816 306 892 c 1,7,8
 267 947 267 947 267 1021 c 0,9,10
 267 1041 267 1041 270 1063 c 0,11,12
 273 1087 273 1087 278 1109 c 0,13,14
 302 1211 302 1211 364 1282 c 0,15,16
 390 1312 390 1312 434 1341 c 0,17,18
 451 1353 451 1353 475 1361 c 0,19,20
 528 1379 528 1379 580 1397 c 128,-1,21
 632 1415 632 1415 682 1432 c 0,22,23
 698 1438 698 1438 716 1438 c 1,24,25
 761 1435 761 1435 814 1416 c 0,26,27
 826 1412 826 1412 846 1402 c 2,28,-1
 848 1401 l 1,29,30
 883 1429 883 1429 904 1429 c 0,31,32
 918 1429 918 1429 924 1423 c 1,33,34
 941 1413 941 1413 941 1398 c 2,35,-1
 941 1394 l 1,36,37
 932 1356 932 1356 923 1331 c 128,-1,38
 914 1306 914 1306 905 1270 c 0,39,40
 901 1252 901 1252 890 1207 c 2,41,-1
 826 923 l 2,42,43
 824 915 824 915 824 910 c 0,44,45
 824 901 824 901 829 899 c 0,46,47
 868 886 868 886 868 861 c 2,48,-1
 868 856 l 1,49,50
 860 826 860 826 828 826 c 2,51,-1
 693 827 l 2,52,53
 660 827 660 827 660 853 c 2,54,-1
 660 855 l 1,55,-1
 662 867 l 1,0,-1
245 751 m 2,56,-1
 786 751 l 2,57,58
 820 751 820 751 820 724 c 0,59,60
 820 718 820 718 818 715 c 1,61,-1
 807 663 l 1,62,63
 799 635 799 635 768 635 c 2,64,-1
 227 635 l 2,65,66
 192 635 192 635 192 663 c 0,67,68
 192 669 192 669 194 672 c 1,69,-1
 205 724 l 1,70,71
 213 751 213 751 245 751 c 2,56,-1
568 913 m 0,72,73
 580 914 580 914 594 918 c 0,74,75
 639 934 639 934 681 948 c 1,76,-1
 762 1302 l 1,77,78
 723 1346 723 1346 666 1349 c 0,79,80
 659 1349 659 1349 650 1346 c 0,81,82
 625 1338 625 1338 602 1330 c 128,-1,83
 579 1322 579 1322 557 1314 c 0,84,85
 546 1310 546 1310 537 1303 c 0,86,87
 495 1267 495 1267 471 1214 c 1,88,89
 452 1175 452 1175 444 1137 c 0,90,91
 441 1121 441 1121 438 1107 c 0,92,93
 434 1082 434 1082 434 1058 c 0,94,95
 434 1011 434 1011 450 977 c 1,96,97
 474 931 474 931 519 917 c 0,98,99
 536 912 536 912 554 912 c 0,100,101
 561 912 561 912 568 913 c 0,72,73
EndSplineSet
Validated: 1
EndChar

StartChar: laquo
Encoding: 171 171 108
Width: 1024
GlyphClass: 2
Flags: W
LayerCount: 2
Fore
SplineSet
224 605 m 1,0,1
 216 613 216 613 216 624 c 0,2,3
 216 629 216 629 218 632 c 1,4,5
 219 642 219 642 232 653 c 0,6,7
 309 726 309 726 439 825 c 128,-1,8
 569 924 569 924 663 1002 c 0,9,10
 674 1011 674 1011 688 1011 c 0,11,12
 695 1011 695 1011 707 1007 c 1,13,-1
 747 974 l 1,14,15
 750 963 750 963 750 959 c 2,16,-1
 750 953 l 1,17,18
 746 946 746 946 745 943 c 1,19,-1
 422 626 l 1,20,-1
 597 309 l 2,21,22
 600 304 600 304 600 295 c 1,23,24
 596 281 596 281 582 274 c 1,25,-1
 540 249 l 2,26,27
 531 243 531 243 520 243 c 0,28,29
 499 243 499 243 492 258 c 1,30,31
 426 341 426 341 357.5 429 c 128,-1,32
 289 517 289 517 224 605 c 1,0,1
645 605 m 1,33,34
 638 612 638 612 638 622 c 0,35,36
 638 628 638 628 640 631 c 1,37,38
 641 639 641 639 652 652 c 1,39,40
 730 726 730 726 860 825 c 128,-1,41
 990 924 990 924 1083 1002 c 0,42,43
 1096 1012 1096 1012 1109 1012 c 0,44,45
 1124 1012 1124 1012 1133 1003 c 1,46,-1
 1165 976 l 1,47,48
 1172 966 1172 966 1172 959 c 2,49,-1
 1172 953 l 1,50,51
 1168 945 1168 945 1163 941 c 2,52,-1
 844 626 l 1,53,-1
 1021 306 l 1,54,-1
 1021 298 l 1,55,56
 1018 282 1018 282 1003 274 c 2,57,-1
 963 251 l 1,58,59
 956 243 956 243 941 243 c 0,60,61
 924 243 924 243 914 257 c 0,62,63
 848 341 848 341 779 429 c 128,-1,64
 710 517 710 517 645 605 c 1,33,34
EndSplineSet
Validated: 1
EndChar

StartChar: not
Encoding: 172 172 109
Width: 1024
GlyphClass: 2
Flags: W
LayerCount: 2
Fore
SplineSet
1098 321 m 1,0,-1
 930 321 l 1,1,-1
 1030 755 l 1,2,-1
 179 755 l 1,3,-1
 214 907 l 1,4,-1
 1233 907 l 1,5,-1
 1098 321 l 1,0,-1
EndSplineSet
Validated: 1
EndChar

StartChar: shy
Encoding: 173 173 110
Width: 670
GlyphClass: 2
Flags: W
LayerCount: 2
Fore
SplineSet
250 389 m 2,0,1
 191 389 191 389 191 429 c 0,2,3
 191 435 191 435 192 441 c 2,4,-1
 211 523 l 2,5,6
 222 569 222 569 284 569 c 2,7,-1
 640 569 l 2,8,9
 700 569 700 569 700 528 c 0,10,11
 700 522 700 522 699 516 c 2,12,-1
 680 433 l 1,13,14
 668 389 668 389 608 389 c 2,15,-1
 250 389 l 2,0,1
EndSplineSet
Validated: 1
EndChar

StartChar: reg
Encoding: 174 174 111
Width: 1530
GlyphClass: 2
Flags: W
LayerCount: 2
Fore
SplineSet
1040 670 m 1,0,-1
 1211 348 l 1,1,2
 1216 343 1216 343 1232 342 c 1,3,4
 1267 334 1267 334 1267 311 c 2,5,-1
 1267 305 l 1,6,7
 1257 275 1257 275 1227 275 c 2,8,-1
 1070 275 l 2,9,10
 1042 275 1042 275 965 437 c 128,-1,11
 888 599 888 599 850 668 c 1,12,-1
 793 668 l 1,13,-1
 726 378 l 2,14,15
 724 370 724 370 724 364 c 0,16,17
 724 353 724 353 730 351 c 0,18,19
 768 335 768 335 768 311 c 2,20,-1
 768 306 l 1,21,22
 761 275 761 275 727 275 c 2,23,-1
 528 275 l 2,24,25
 493 275 493 275 493 303 c 0,26,27
 493 307 493 307 495 312 c 0,28,29
 500 336 500 336 532 346.5 c 128,-1,30
 564 357 564 357 570 384 c 2,31,-1
 721 1037 l 2,32,33
 723 1045 723 1045 723 1050 c 0,34,35
 723 1062 723 1062 716 1065 c 0,36,37
 678 1079 678 1079 678 1104 c 0,38,39
 678 1110 678 1110 680 1113 c 1,40,41
 687 1140 687 1140 719 1140 c 2,42,-1
 1066 1141 l 2,43,44
 1132 1141 1132 1141 1200.5 1116.5 c 128,-1,45
 1269 1092 1269 1092 1294 1021 c 0,46,47
 1303 993 1303 993 1303 960 c 0,48,49
 1303 930 1303 930 1296 893 c 1,50,51
 1276 821 1276 821 1224 765 c 0,52,53
 1182 719 1182 719 1119.5 695 c 128,-1,54
 1057 671 1057 671 1040 670 c 1,0,-1
1102 1472 m 0,55,56
 1425 1472 1425 1472 1601 1244 c 1,57,58
 1724 1087 1724 1087 1724 884 c 0,59,60
 1724 798 1724 798 1702 705 c 0,61,62
 1629 390 1629 390 1353.5 167 c 128,-1,63
 1078 -56 1078 -56 759 -56 c 0,64,65
 436 -56 436 -56 260 172 c 1,66,67
 137 329 137 329 137 533 c 0,68,69
 137 619 137 619 158 711 c 0,70,71
 232 1026 232 1026 507.5 1249 c 128,-1,72
 783 1472 783 1472 1102 1472 c 0,55,56
881 1052 m 1,73,-1
 811 749 l 1,74,-1
 917 749 l 2,75,76
 1006 749 1006 749 1067 796 c 1,77,78
 1118 837 1118 837 1133 905 c 0,79,80
 1138 926 1138 926 1138 944 c 0,81,82
 1138 983 1138 983 1116 1011 c 0,83,84
 1083 1052 1083 1052 1008 1052 c 2,85,-1
 881 1052 l 1,73,-1
1084 1352 m 0,86,87
 818 1352 818 1352 584.5 1163 c 128,-1,88
 351 974 351 974 289 705 c 0,89,90
 270 624 270 624 270 552 c 0,91,92
 270 380 270 380 372 248 c 0,93,94
 515 64 515 64 777 64 c 0,95,96
 1043 64 1043 64 1277 252.5 c 128,-1,97
 1511 441 1511 441 1572 711 c 0,98,99
 1591 792 1591 792 1591 865 c 0,100,101
 1591 1036 1591 1036 1490 1168 c 1,102,103
 1346 1352 1346 1352 1084 1352 c 0,86,87
EndSplineSet
Validated: 1
EndChar

StartChar: macr
Encoding: 175 175 112
Width: 680
GlyphClass: 2
Flags: W
LayerCount: 2
Fore
SplineSet
362 1367 m 2,0,-1
 961 1367 l 2,1,2
 995 1367 995 1367 995 1340 c 2,3,-1
 995 1335 l 1,4,-1
 975 1247 l 1,5,6
 967 1220 967 1220 936 1220 c 2,7,-1
 337 1220 l 2,8,9
 303 1220 303 1220 303 1247 c 0,10,11
 303 1253 303 1253 305 1256 c 1,12,-1
 324 1340 l 2,13,14
 330 1367 330 1367 362 1367 c 2,0,-1
EndSplineSet
Validated: 1
EndChar

StartChar: deg
Encoding: 176 176 113
Width: 819
GlyphClass: 2
Flags: W
LayerCount: 2
Fore
SplineSet
726 1407 m 0,0,1
 868 1407 868 1407 945 1307 c 0,2,3
 998 1238 998 1238 998 1150 c 0,4,5
 998 1114 998 1114 989 1074 c 0,6,7
 957 941 957 941 839.5 845 c 128,-1,8
 722 749 722 749 584 749 c 0,9,10
 441 749 441 749 365 850 c 1,11,12
 312 917 312 917 312 1004 c 0,13,14
 312 1041 312 1041 321 1081 c 0,15,16
 352 1215 352 1215 469.5 1311 c 128,-1,17
 587 1407 587 1407 726 1407 c 0,0,1
707 1285 m 0,18,19
 623 1285 623 1285 548 1223.5 c 128,-1,20
 473 1162 473 1162 454 1074 c 1,21,22
 447 1048 447 1048 447 1024 c 0,23,24
 447 970 447 970 479 928 c 0,25,26
 523 872 523 872 603 872 c 0,27,28
 686 872 686 872 761 933 c 128,-1,29
 836 994 836 994 856 1081 c 0,30,31
 862 1107 862 1107 862 1130 c 0,32,33
 862 1186 862 1186 830 1228 c 0,34,35
 786 1285 786 1285 707 1285 c 0,18,19
EndSplineSet
Validated: 1
EndChar

StartChar: plusmn
Encoding: 177 177 114
Width: 1024
GlyphClass: 2
Flags: W
LayerCount: 2
Fore
SplineSet
386 826 m 2,0,-1
 644 826 l 1,1,-1
 705 1089 l 2,2,3
 717 1142 717 1142 765 1142 c 2,4,-1
 817 1142 l 2,5,6
 863 1142 863 1142 863 1101 c 0,7,8
 863 1092 863 1092 861 1082 c 2,9,-1
 801 826 l 1,10,-1
 1050 826 l 2,11,12
 1107 826 1107 826 1107 787 c 0,13,14
 1107 782 1107 782 1106 776 c 2,15,-1
 1094 724 l 2,16,17
 1084 681 1084 681 1026 681 c 2,18,-1
 768 681 l 1,19,-1
 707 419 l 2,20,21
 695 365 695 365 647 365 c 2,22,-1
 595 365 l 2,23,24
 549 365 549 365 549 407 c 0,25,26
 549 416 549 416 551 426 c 2,27,-1
 611 681 l 1,28,-1
 362 681 l 2,29,30
 305 681 305 681 305 720 c 0,31,32
 305 725 305 725 306 731 c 2,33,-1
 318 783 l 2,34,35
 328 826 328 826 386 826 c 2,0,-1
255 258 m 2,36,-1
 919 258 l 2,37,38
 976 258 976 258 976 218 c 0,39,40
 976 213 976 213 975 207 c 2,41,-1
 963 155 l 1,42,43
 951 112 951 112 894 112 c 2,44,-1
 230 112 l 2,45,46
 174 112 174 112 174 151 c 0,47,48
 174 157 174 157 175 163 c 2,49,-1
 187 214 l 2,50,51
 197 258 197 258 255 258 c 2,36,-1
EndSplineSet
Validated: 1
EndChar

StartChar: sup2
Encoding: 178 178 115
Width: 735
GlyphClass: 2
Flags: W
LayerCount: 2
Fore
SplineSet
182 431 m 1,0,-1
 199 506 l 1,1,2
 214 566 214 566 260 611 c 0,3,4
 303 653 303 653 394 732 c 1,5,6
 445 773 445 773 497 819 c 128,-1,7
 549 865 549 865 598 910 c 0,8,9
 663 970 663 970 707 1039 c 0,10,11
 735 1083 735 1083 743 1120 c 0,12,13
 747 1137 747 1137 747 1151 c 0,14,15
 747 1168 747 1168 743 1182 c 0,16,17
 726 1237 726 1237 677 1257 c 0,18,19
 649 1269 649 1269 614 1269 c 0,20,21
 587 1269 587 1269 556 1262 c 0,22,23
 482 1245 482 1245 422 1178 c 1,24,25
 397 1153 397 1153 377 1103 c 1,26,-1
 362 1235 l 1,27,28
 371 1254 371 1254 385 1272 c 0,29,30
 477 1381 477 1381 619 1403 c 0,31,32
 648 1407 648 1407 676 1407 c 0,33,34
 771 1407 771 1407 847 1359 c 1,35,36
 922 1308 922 1308 922 1214 c 0,37,38
 922 1184 922 1184 915 1150 c 2,39,-1
 914 1145 l 1,40,41
 871 962 871 962 674 818 c 0,42,43
 482 678 482 678 407 587 c 1,44,-1
 599 587 l 2,45,46
 681 587 681 587 797 627 c 1,47,-1
 760 467 l 1,48,49
 703 434 703 434 656.5 432.5 c 128,-1,50
 610 431 610 431 572 431 c 2,51,-1
 182 431 l 1,0,-1
EndSplineSet
Validated: 1
EndChar

StartChar: sup3
Encoding: 179 179 116
Width: 735
GlyphClass: 2
Flags: W
LayerCount: 2
Fore
SplineSet
600 467 m 1,0,1
 512 413 512 413 398 402 c 0,2,3
 380 400 380 400 363 400 c 0,4,5
 267 400 267 400 203 462 c 1,6,-1
 249 688 l 1,7,8
 295 529 295 529 371 509 c 0,9,10
 400 501 400 501 429 501 c 0,11,12
 476 501 476 501 520 521 c 0,13,14
 588 553 588 553 625 614 c 0,15,16
 645 648 645 648 653 682 c 0,17,18
 658 702 658 702 658 721 c 0,19,20
 658 729 658 729 657 737 c 0,21,22
 652 797 652 797 604 840 c 128,-1,23
 556 883 556 883 428 886 c 1,24,-1
 436 939 l 1,25,26
 498 956 498 956 557.5 980 c 128,-1,27
 617 1004 617 1004 658 1054 c 0,28,29
 689 1092 689 1092 698 1130 c 0,30,31
 701 1142 701 1142 702 1154 c 1,32,-1
 702 1164 l 2,33,34
 702 1207 702 1207 681 1235 c 0,35,36
 656 1270 656 1270 606 1275 c 1,37,-1
 594 1275 l 2,38,39
 546 1275 546 1275 484 1229 c 0,40,41
 449 1203 449 1203 381 1056 c 1,42,-1
 409 1287 l 1,43,44
 544 1404 544 1404 683 1404 c 1,45,46
 852 1402 852 1402 879 1267 c 0,47,48
 882 1250 882 1250 882 1234 c 0,49,50
 882 1213 882 1213 877 1192 c 0,51,52
 856 1102 856 1102 743 1016 c 0,53,54
 723 1000 723 1000 716 995 c 1,55,56
 781 959 781 959 808 879 c 0,57,58
 822 839 822 839 822 797 c 0,59,60
 822 767 822 767 815 737 c 0,61,62
 812 726 812 726 808 715 c 0,63,64
 762 569 762 569 600 467 c 1,0,1
EndSplineSet
Validated: 1
EndChar

StartChar: acute
Encoding: 180 180 117
Width: 682
GlyphClass: 2
Flags: W
LayerCount: 2
Fore
SplineSet
483 1107 m 2,0,1
 428 1077 428 1077 394 1077 c 0,2,3
 386 1077 386 1077 381 1079 c 1,4,5
 356 1082 356 1082 356 1105 c 2,6,-1
 356 1108 l 1,7,8
 361 1128 361 1128 411 1170 c 2,9,-1
 560 1294 l 2,10,11
 589 1319 589 1319 670 1386.5 c 128,-1,12
 751 1454 751 1454 781 1471 c 1,13,14
 810 1486 810 1486 838 1486 c 0,15,16
 862 1486 862 1486 884 1475 c 0,17,18
 924 1456 924 1456 924 1414 c 0,19,20
 924 1402 924 1402 920 1389 c 0,21,22
 912 1357 912 1357 883.5 1333 c 128,-1,23
 855 1309 855 1309 829 1294 c 2,24,-1
 483 1107 l 2,0,1
EndSplineSet
Validated: 1
EndChar

StartChar: micro
Encoding: 181 181 118
Width: 1325
GlyphClass: 2
Flags: W
LayerCount: 2
Fore
SplineSet
1039 755 m 2,0,1
 1042 768 1042 768 1042 779 c 0,2,3
 1042 807 1042 807 1020 815 c 0,4,5
 964 836 964 836 964 871 c 0,6,7
 964 876 964 876 966 881 c 0,8,9
 974 918 974 918 1015 918 c 1,10,11
 1068 920 1068 920 1129 934 c 1,12,13
 1200 949 1200 949 1324 991 c 1,14,-1
 1128 138 l 2,15,16
 1124 125 1124 125 1124 114 c 0,17,18
 1124 87 1124 87 1145 81 c 1,19,20
 1204 61 1204 61 1204 26 c 0,21,22
 1204 22 1204 22 1202 17 c 0,23,24
 1194 -20 1194 -20 1152 -20 c 2,25,-1
 859 -20 l 1,26,-1
 876 53 l 1,27,-1
 693 -12 l 2,28,29
 623 -37 623 -37 559 -37 c 0,30,31
 541 -37 541 -37 524 -35 c 0,32,33
 444 -26 444 -26 391 8 c 1,34,-1
 310 20 l 1,35,-1
 229 -533 l 1,36,-1
 229 -536 l 1,37,38
 219 -573 219 -573 179 -573 c 2,39,-1
 87 -573 l 2,40,41
 46 -573 46 -573 46 -540 c 0,42,43
 46 -534 46 -534 47 -528 c 2,44,-1
 356 807 l 1,45,46
 346 820 346 820 326 829 c 0,47,48
 289 845 289 845 289 872 c 0,49,50
 289 879 289 879 291 882 c 1,51,52
 299 918 299 918 340 918 c 1,53,54
 397 921 397 921 455 935 c 1,55,56
 492 942 492 942 526.5 953.5 c 128,-1,57
 561 965 561 965 642 989 c 1,58,-1
 511 421 l 2,59,60
 494 348 494 348 494 289 c 0,61,62
 494 209 494 209 525 157 c 0,63,64
 566 87 566 87 648 87 c 0,65,66
 694 87 694 87 756 107 c 1,67,-1
 901 157 l 1,68,-1
 1039 755 l 2,0,1
EndSplineSet
Validated: 1
EndChar

StartChar: para
Encoding: 182 182 119
Width: 1266
GlyphClass: 2
Flags: W
LayerCount: 2
Fore
SplineSet
1007 1317 m 1,0,-1
 653 -214 l 1,1,-1
 862 -214 l 1,2,-1
 1216 1317 l 1,3,-1
 1007 1317 l 1,0,-1
680 766 m 1,4,5
 665 761 665 761 613 761 c 0,6,7
 475 761 475 761 402 863 c 0,8,9
 353 931 353 931 353 1017 c 0,10,11
 353 1055 353 1055 362 1096 c 0,12,13
 394 1230 394 1230 508 1326.5 c 128,-1,14
 622 1423 622 1423 756 1424 c 1,15,-1
 1505 1424 l 2,16,17
 1551 1424 1551 1424 1551 1387 c 0,18,19
 1551 1383 1551 1383 1550 1376 c 0,20,21
 1540 1334 1540 1334 1474 1312 c 128,-1,22
 1408 1290 1408 1290 1392 1222 c 2,23,-1
 1082 -125 l 2,24,25
 1078 -143 1078 -143 1078 -157 c 0,26,27
 1078 -193 1078 -193 1106 -204 c 0,28,29
 1170 -230 1170 -230 1170 -268 c 0,30,31
 1170 -274 1170 -274 1168 -279 c 0,32,33
 1159 -320 1159 -320 1112 -320 c 2,34,-1
 364 -320 l 2,35,36
 318 -320 318 -320 318 -283 c 0,37,38
 318 -279 318 -279 319 -272 c 0,39,40
 329 -230 329 -230 395 -208 c 128,-1,41
 461 -186 461 -186 477 -118 c 2,42,-1
 680 766 l 1,4,5
EndSplineSet
Validated: 1
EndChar

StartChar: middot
Encoding: 183 183 120
Width: 512
GlyphClass: 2
Flags: W
LayerCount: 2
Fore
SplineSet
370 476 m 0,0,1
 305 476 305 476 271 521 c 1,2,3
 247 550 247 550 247 588 c 0,4,5
 247 605 247 605 251 622 c 0,6,7
 264 677 264 677 314.5 718.5 c 128,-1,8
 365 760 365 760 426 760 c 0,9,10
 491 760 491 760 526 714 c 1,11,12
 548 683 548 683 548 646 c 0,13,14
 548 630 548 630 545 615 c 0,15,16
 531 558 531 558 481 517 c 128,-1,17
 431 476 431 476 370 476 c 0,0,1
EndSplineSet
Validated: 1
EndChar

StartChar: cedil
Encoding: 184 184 121
Width: 1011
GlyphClass: 2
Flags: W
LayerCount: 2
Fore
SplineSet
371 15 m 1,0,-1
 479 15 l 1,1,2
 453 -33 453 -33 449 -50 c 0,3,4
 447 -57 447 -57 447 -64 c 0,5,6
 447 -78 447 -78 455 -88 c 0,7,8
 482 -121 482 -121 514 -154 c 0,9,10
 552 -193 552 -193 552 -249 c 0,11,12
 552 -270 552 -270 547 -292 c 2,13,-1
 545 -302 l 1,14,15
 517 -399 517 -399 377 -409 c 1,16,-1
 361 -409 l 2,17,18
 298 -409 298 -409 204 -375 c 1,19,-1
 206 -245 l 1,20,21
 281 -308 281 -308 315 -308 c 0,22,23
 341 -308 341 -308 371 -291 c 0,24,25
 397 -276 397 -276 401 -254 c 1,26,27
 403 -249 403 -249 403 -244 c 0,28,29
 403 -218 403 -218 375 -182 c 1,30,31
 347 -150 347 -150 330 -105 c 0,32,33
 325 -92 325 -92 325 -78 c 0,34,35
 325 -68 325 -68 327 -58 c 0,36,37
 334 -27 334 -27 371 15 c 1,0,-1
EndSplineSet
Validated: 1
EndChar

StartChar: sup1
Encoding: 185 185 122
Width: 668
GlyphClass: 2
Flags: W
LayerCount: 2
Fore
SplineSet
336 431 m 2,0,1
 300 431 300 431 300 460 c 0,2,3
 300 466 300 466 302 469 c 1,4,5
 308 494 308 494 342.5 505.5 c 128,-1,6
 377 517 377 517 384 548 c 2,7,-1
 543 1238 l 1,8,-1
 411 1238 l 1,9,-1
 425 1293 l 2,10,11
 434 1331 434 1331 588 1370 c 0,12,13
 623 1379 623 1379 656.5 1387.5 c 128,-1,14
 690 1396 690 1396 751 1413 c 1,15,-1
 551 541 l 2,16,17
 548 532 548 532 548 526 c 0,18,19
 548 513 548 513 557 510 c 0,20,21
 596 493 596 493 596 468 c 2,22,-1
 596 462 l 1,23,24
 589 431 589 431 555 431 c 2,25,-1
 336 431 l 2,0,1
EndSplineSet
Validated: 1
EndChar

StartChar: ordm
Encoding: 186 186 123
Width: 682
GlyphClass: 2
Flags: W
LayerCount: 2
Fore
SplineSet
668 1449 m 0,0,1
 807 1449 807 1449 882 1348 c 0,2,3
 933 1280 933 1280 933 1194 c 0,4,5
 933 1156 933 1156 924 1116 c 0,6,7
 893 981 893 981 776.5 884.5 c 128,-1,8
 660 788 660 788 525 788 c 0,9,10
 385 788 385 788 310 889 c 0,11,12
 258 958 258 958 258 1045 c 0,13,14
 258 1082 258 1082 267 1122 c 0,15,16
 299 1256 299 1256 415.5 1352.5 c 128,-1,17
 532 1449 532 1449 668 1449 c 0,0,1
246 750 m 2,18,-1
 769 750 l 2,19,20
 804 750 804 750 804 722 c 0,21,22
 804 716 804 716 802 713 c 1,23,-1
 789 656 l 2,24,25
 782 627 782 627 749 627 c 2,26,-1
 226 627 l 2,27,28
 191 627 191 627 191 655 c 0,29,30
 191 659 191 659 193 664 c 2,31,-1
 206 722 l 1,32,33
 214 750 214 750 246 750 c 2,18,-1
645 1365 m 0,34,35
 580 1365 580 1365 519 1296 c 1,36,37
 462 1229 462 1229 441 1138 c 0,38,39
 438 1128 438 1128 436 1116 c 0,40,41
 429 1081 429 1081 429 1049 c 0,42,43
 429 986 429 986 455 939 c 1,44,45
 489 873 489 873 550 873 c 0,46,47
 613 873 613 873 675 942 c 0,48,49
 733 1008 733 1008 754 1100 c 0,50,51
 757 1110 757 1110 758 1121 c 1,52,53
 765 1156 765 1156 765 1188 c 0,54,55
 765 1251 765 1251 740 1300 c 1,56,57
 705 1365 705 1365 645 1365 c 0,34,35
EndSplineSet
Validated: 1
EndChar

StartChar: raquo
Encoding: 187 187 124
Width: 1024
GlyphClass: 2
Flags: W
LayerCount: 2
Fore
SplineSet
1081 602 m 1,0,1
 976 513 976 513 866.5 425 c 128,-1,2
 757 337 757 337 653 253 c 0,3,4
 640 243 640 243 627 243 c 0,5,6
 612 243 612 243 603 252 c 1,7,-1
 574 276 l 2,8,9
 563 284 563 284 563 296 c 2,10,-1
 563 297 l 2,11,12
 563 309 563 309 573 316 c 1,13,-1
 893 632 l 1,14,-1
 720 943 l 1,15,16
 716 947 716 947 716 956 c 2,17,-1
 716 959 l 1,18,19
 720 970 720 970 731 979 c 1,20,-1
 776 1007 l 1,21,22
 785 1011 785 1011 795 1011 c 0,23,24
 810 1011 810 1011 822 999 c 1,25,26
 879 920 879 920 963 821 c 128,-1,27
 1047 722 1047 722 1093 648 c 1,28,29
 1098 638 1098 638 1098 629 c 2,30,-1
 1098 625 l 1,31,32
 1093 610 1093 610 1081 602 c 1,0,1
660 601 m 0,33,34
 555 513 555 513 445.5 425 c 128,-1,35
 336 337 336 337 232 253 c 0,36,37
 219 243 219 243 206 243 c 0,38,39
 191 243 191 243 182 252 c 1,40,-1
 153 276 l 2,41,42
 142 284 142 284 142 297 c 2,43,-1
 142 298 l 2,44,45
 142 307 142 307 150 314 c 2,46,-1
 472 632 l 1,47,-1
 299 943 l 1,48,49
 295 947 295 947 295 956 c 2,50,-1
 295 959 l 1,51,52
 299 970 299 970 310 979 c 1,53,-1
 352 1004 l 1,54,55
 359 1012 359 1012 374 1012 c 0,56,57
 391 1012 391 1012 402 998 c 0,58,59
 458 920 458 920 542 821 c 128,-1,60
 626 722 626 722 673 647 c 1,61,62
 676 636 676 636 676 629 c 2,63,-1
 676 624 l 1,64,65
 671 609 671 609 660 601 c 0,33,34
EndSplineSet
Validated: 1
EndChar

StartChar: frac14
Encoding: 188 188 125
Width: 1350
GlyphClass: 2
Flags: W
LayerCount: 2
Fore
SplineSet
1487 1420 m 1,0,-1
 1663 1420 l 1,1,-1
 143 -20 l 1,2,-1
 -34 -20 l 1,3,-1
 1487 1420 l 1,0,-1
1374 683 m 1,4,-1
 1281 282 l 1,5,-1
 1375 282 l 1,6,-1
 1351 175 l 1,7,-1
 1257 175 l 1,8,-1
 1236 83 l 2,9,10
 1235 80 1235 80 1235 76 c 0,11,12
 1235 63 1235 63 1256 57 c 1,13,14
 1313 37 1313 37 1313 12 c 2,15,-1
 1313 9 l 1,16,17
 1307 -20 1307 -20 1275 -20 c 2,18,-1
 1015 -20 l 2,19,20
 982 -20 982 -20 982 7 c 2,21,-1
 982 12 l 1,22,23
 988 38 988 38 1039.5 52 c 128,-1,24
 1091 66 1091 66 1095 87 c 1,25,-1
 1117 175 l 1,26,-1
 846 175 l 1,27,-1
 865 258 l 1,28,-1
 1242 683 l 1,29,-1
 1374 683 l 1,4,-1
1143 282 m 1,30,-1
 1195 504 l 1,31,-1
 1006 282 l 1,32,-1
 1143 282 l 1,30,-1
747 1429 m 5,33,-1
 605 811 l 6,34,35
 604 808 604 808 604 804 c 4,36,37
 604 791 604 791 625 784 c 4,38,39
 681 765 681 765 681 740 c 6,40,-1
 681 737 l 5,41,42
 676 707 676 707 643 707 c 6,43,-1
 383 707 l 6,44,45
 350 707 350 707 350 735 c 6,46,-1
 350 740 l 5,47,48
 356 766 356 766 406.5 780.5 c 132,-1,49
 457 795 457 795 462 817 c 6,50,-1
 573 1295 l 5,51,-1
 573 1297 l 6,52,53
 573 1302 573 1302 540 1305 c 4,54,55
 477 1310 477 1310 477 1337 c 5,56,57
 484 1363 484 1363 508 1368 c 5,58,-1
 747 1429 l 5,33,-1
EndSplineSet
Validated: 1
EndChar

StartChar: frac12
Encoding: 189 189 126
Width: 1312
GlyphClass: 2
Flags: HW
LayerCount: 2
Fore
SplineSet
747 1429 m 1,0,-1
 605 811 l 2,1,2
 604 808 604 808 604 804 c 0,3,4
 604 791 604 791 625 784 c 0,5,6
 681 765 681 765 681 740 c 2,7,-1
 681 737 l 1,8,9
 676 707 676 707 643 707 c 2,10,-1
 383 707 l 2,11,12
 350 707 350 707 350 735 c 2,13,-1
 350 740 l 1,14,15
 356 766 356 766 406.5 780.5 c 128,-1,16
 457 795 457 795 462 817 c 2,17,-1
 573 1295 l 1,18,-1
 573 1297 l 2,19,20
 573 1302 573 1302 540 1305 c 0,21,22
 477 1310 477 1310 477 1337 c 1,23,24
 484 1363 484 1363 508 1368 c 1,25,-1
 747 1429 l 1,0,-1
1445 1382 m 1,26,-1
 1618 1382 l 1,27,-1
 139 -20 l 1,28,-1
 -35 -20 l 1,29,-1
 1445 1382 l 1,26,-1
836 -14 m 5,30,-1
 849 44 l 5,31,32
 861 90 861 90 894 122 c 132,-1,33
 927 154 927 154 992 211 c 5,34,35
 1060 265 1060 265 1138 339 c 5,36,37
 1183 380 1183 380 1215 430 c 4,38,39
 1237 466 1237 466 1244 496 c 4,40,41
 1247 507 1247 507 1247 517 c 4,42,43
 1247 560 1247 560 1199 579 c 5,44,45
 1171 589 1171 589 1145 589 c 4,46,47
 1082 589 1082 589 1023 525 c 5,48,49
 1005 503 1005 503 1001 479 c 5,50,-1
 964 556 l 5,51,-1
 983 596 l 5,52,53
 1051 677 1051 677 1157 694 c 4,54,55
 1179 697 1179 697 1199 697 c 4,56,57
 1270 697 1270 697 1327 661 c 5,58,59
 1383 623 1383 623 1383 552 c 4,60,61
 1383 530 1383 530 1377 504 c 5,62,-1
 1376 502 l 5,63,64
 1346 370 1346 370 1203 265 c 5,65,66
 1065 165 1065 165 1020 109 c 5,67,-1
 1145 109 l 6,68,69
 1201 109 1201 109 1295 143 c 5,70,-1
 1266 14 l 5,71,72
 1221 -12 1221 -12 1186 -13 c 132,-1,73
 1151 -14 1151 -14 1125 -14 c 6,74,-1
 836 -14 l 5,30,-1
EndSplineSet
Validated: 1
EndChar

StartChar: frac34
Encoding: 190 190 127
Width: 1312
GlyphClass: 2
Flags: W
LayerCount: 2
Fore
SplineSet
1445 1382 m 1,0,-1
 1618 1382 l 1,1,-1
 139 -20 l 1,2,-1
 -35 -20 l 1,3,-1
 1445 1382 l 1,0,-1
578 718 m 1,4,5
 512 678 512 678 429 670 c 0,6,7
 415 668 415 668 403 668 c 0,8,9
 329 668 329 668 277 719 c 1,10,-1
 318 909 l 1,11,12
 358 771 358 771 410 758 c 0,13,14
 429 753 429 753 449 753 c 0,15,16
 482 753 482 753 513 767 c 0,17,18
 561 789 561 789 586 832 c 0,19,20
 600 856 600 856 605 880 c 1,21,22
 609 894 609 894 609 907 c 0,23,24
 609 913 609 913 608 918 c 0,25,26
 605 960 605 960 572 990 c 128,-1,27
 539 1020 539 1020 440 1023 c 1,28,-1
 451 1070 l 1,29,30
 497 1083 497 1083 540 1100.5 c 128,-1,31
 583 1118 583 1118 611 1153 c 0,32,33
 637 1184 637 1184 643 1213 c 1,34,35
 646 1222 646 1222 646 1231 c 0,36,37
 646 1256 646 1256 629 1279 c 1,38,39
 611 1301 611 1301 574 1305 c 0,40,41
 571 1306 571 1306 569 1306 c 0,42,43
 536 1306 536 1306 494 1274 c 1,44,45
 470 1254 470 1254 438 1187 c 1,46,-1
 429 1322 l 1,47,48
 530 1410 530 1410 635 1410 c 1,49,50
 763 1408 763 1408 784 1305 c 0,51,52
 786 1293 786 1293 786 1282 c 0,53,54
 786 1265 786 1265 782 1249 c 0,55,56
 766 1182 766 1182 683 1117 c 0,57,58
 674 1111 674 1111 665 1104 c 2,59,-1
 661 1101 l 2,60,61
 662 1101 662 1101 671 1106 c 1,62,63
 744 1065 744 1065 744 969 c 0,64,65
 744 947 744 947 739 923 c 0,66,67
 736 912 736 912 732 902 c 0,68,69
 698 794 698 794 578 718 c 1,4,5
1337 664 m 1,70,-1
 1247 275 l 1,71,-1
 1339 275 l 1,72,-1
 1315 170 l 1,73,-1
 1223 170 l 1,74,-1
 1202 80 l 2,75,76
 1201 77 1201 77 1201 74 c 0,77,78
 1201 61 1201 61 1222 55 c 1,79,80
 1277 36 1277 36 1277 12 c 2,81,-1
 1277 9 l 1,82,83
 1271 -20 1271 -20 1240 -20 c 2,84,-1
 987 -20 l 2,85,86
 954 -20 954 -20 954 7 c 2,87,-1
 954 12 l 1,88,89
 960 37 960 37 1010 50.5 c 128,-1,90
 1060 64 1060 64 1065 86 c 2,91,-1
 1085 170 l 1,92,-1
 822 170 l 1,93,-1
 840 251 l 1,94,-1
 1207 664 l 1,95,-1
 1337 664 l 1,70,-1
1111 275 m 1,96,-1
 1161 488 l 1,97,-1
 972 275 l 1,98,-1
 1111 275 l 1,96,-1
EndSplineSet
Validated: 1
EndChar

StartChar: iquest
Encoding: 191 191 128
Width: 800
GlyphClass: 2
Flags: W
LayerCount: 2
Fore
SplineSet
527 392 m 1,0,-1
 492 226 l 2,1,2
 483 187 483 187 483 161 c 0,3,4
 483 144 483 144 487 132 c 0,5,6
 495 104 495 104 540 72 c 1,7,8
 546 66 546 66 554 60.5 c 128,-1,9
 562 55 562 55 573 47 c 0,10,11
 693 -37 693 -37 693 -162 c 0,12,13
 693 -194 693 -194 685 -228 c 0,14,15
 654 -363 654 -363 545 -440 c 1,16,17
 437 -518 437 -518 278 -518 c 0,18,19
 120 -518 120 -518 46 -434 c 0,20,21
 -5 -377 -5 -377 -5 -293 c 0,22,23
 -5 -256 -5 -256 4 -215 c 1,24,25
 13 -180 13 -180 38 -162 c 0,26,27
 63 -145 63 -145 106 -145 c 0,28,29
 148 -145 148 -145 171 -163 c 0,30,31
 190 -179 190 -179 190 -204 c 0,32,33
 190 -209 190 -209 189 -214 c 0,34,35
 180 -269 180 -269 180 -310 c 0,36,37
 180 -357 180 -357 191 -381 c 1,38,39
 210 -416 210 -416 269 -416 c 0,40,41
 345 -416 345 -416 393 -371 c 0,42,43
 444 -323 444 -323 467 -222 c 0,44,45
 477 -180 477 -180 477 -144 c 0,46,47
 477 -99 477 -99 462 -62 c 0,48,49
 435 3 435 3 330 91 c 1,50,-1
 401 398 l 2,51,52
 414 450 414 450 432 482 c 0,53,54
 454 520 454 520 487 520 c 0,55,56
 528 520 528 520 535 476 c 1,57,-1
 535 465 l 2,58,59
 535 437 535 437 527 392 c 1,0,-1
501 604 m 2,60,61
 416 604 416 604 416 673 c 0,62,63
 416 686 416 686 419 701 c 2,64,-1
 434 764 l 2,65,66
 455 855 455 855 550 855 c 2,67,-1
 613 855 l 2,68,69
 698 855 698 855 698 786 c 0,70,71
 698 773 698 773 695 758 c 2,72,-1
 680 695 l 2,73,74
 659 604 659 604 564 604 c 2,75,-1
 501 604 l 2,60,61
EndSplineSet
Validated: 1
EndChar

StartChar: Agrave
Encoding: 192 192 129
Width: 1593
GlyphClass: 2
Flags: W
LayerCount: 2
Fore
SplineSet
1188 1447 m 1,0,1
 1215 1312 1215 1312 1249 1141 c 128,-1,2
 1283 970 1283 970 1320 789 c 128,-1,3
 1357 608 1357 608 1391 437 c 128,-1,4
 1425 266 1425 266 1449 149 c 1,5,6
 1454 118 1454 118 1484 93 c 1,7,8
 1502 80 1502 80 1522 70 c 128,-1,9
 1542 60 1542 60 1557 49 c 1,10,11
 1570 37 1570 37 1573 27 c 0,12,13
 1575 23 1575 23 1575 17 c 256,14,15
 1575 11 1575 11 1573 7 c 0,16,17
 1571 2 1571 2 1567 -4 c 0,18,19
 1556 -20 1556 -20 1532 -20 c 2,20,-1
 1194 -20 l 2,21,22
 1175 -20 1175 -20 1159 -8 c 1,23,24
 1144 5 1144 5 1144 19 c 1,25,26
 1143 22 1143 22 1143 29 c 1,27,28
 1147 47 1147 47 1168 61 c 1,29,30
 1179 70 1179 70 1192.5 78.5 c 128,-1,31
 1206 87 1206 87 1213 100 c 0,32,33
 1217 106 1217 106 1218 114 c 1,34,35
 1220 121 1220 121 1220 130 c 0,36,37
 1220 137 1220 137 1219 145 c 2,38,-1
 1154 469 l 1,39,-1
 607 469 l 1,40,41
 558 394 558 394 503 308.5 c 128,-1,42
 448 223 448 223 392 138 c 0,43,44
 380 120 380 120 376 106 c 0,45,46
 373 99 373 99 372 94 c 256,47,48
 371 89 371 89 371 84 c 2,49,-1
 371 78 l 2,50,51
 371 69 371 69 376 61 c 128,-1,52
 381 53 381 53 382 39 c 1,53,54
 381 28 381 28 380 26 c 1,55,56
 380 20 380 20 374 12 c 1,57,58
 356 -20 356 -20 325 -20 c 2,59,-1
 67 -20 l 2,60,61
 40 -20 40 -20 34.5 -7 c 128,-1,62
 29 6 29 6 29 7 c 0,63,64
 29 17 29 17 35 29 c 1,65,66
 49 49 49 49 86 65 c 0,67,68
 102 72 102 72 121 80 c 128,-1,69
 140 88 140 88 159 99 c 0,70,71
 198 122 198 122 221 155 c 2,72,-1
 1090 1447 l 1,73,-1
 1188 1447 l 1,0,1
1288 1566 m 2,74,-1
 1031 1752 l 2,75,76
 1008 1768 1008 1768 992 1792 c 1,77,78
 976 1811 976 1811 976 1836 c 0,79,80
 976 1845 976 1845 978 1855 c 0,81,82
 992 1913 992 1913 1048 1934 c 0,83,84
 1072 1943 1072 1943 1094 1943 c 0,85,86
 1124 1943 1124 1943 1148 1926 c 0,87,88
 1173 1909 1173 1909 1222.5 1840.5 c 128,-1,89
 1272 1772 1272 1772 1290 1747 c 2,90,-1
 1382 1623 l 2,91,92
 1409 1585 1409 1585 1409 1566 c 2,93,-1
 1409 1561 l 1,94,95
 1403 1538 1403 1538 1381 1536 c 1,96,97
 1376 1534 1376 1534 1368 1534 c 0,98,99
 1333 1534 1333 1534 1288 1566 c 2,74,-1
1130 590 m 1,100,-1
 1025 1116 l 1,101,102
 961 1017 961 1017 862.5 865 c 128,-1,103
 764 713 764 713 685 590 c 1,104,-1
 1130 590 l 1,100,-1
EndSplineSet
Validated: 1
EndChar

StartChar: Aacute
Encoding: 193 193 130
Width: 1593
GlyphClass: 2
Flags: W
LayerCount: 2
Fore
SplineSet
1188 1447 m 1,0,1
 1215 1312 1215 1312 1249 1141 c 128,-1,2
 1283 970 1283 970 1320 789 c 128,-1,3
 1357 608 1357 608 1391 437 c 128,-1,4
 1425 266 1425 266 1449 149 c 1,5,6
 1454 118 1454 118 1484 93 c 1,7,8
 1502 80 1502 80 1522 70 c 128,-1,9
 1542 60 1542 60 1557 49 c 1,10,11
 1570 37 1570 37 1573 27 c 0,12,13
 1575 23 1575 23 1575 17 c 256,14,15
 1575 11 1575 11 1573 7 c 0,16,17
 1571 2 1571 2 1567 -4 c 0,18,19
 1556 -20 1556 -20 1532 -20 c 2,20,-1
 1194 -20 l 2,21,22
 1175 -20 1175 -20 1159 -8 c 1,23,24
 1144 5 1144 5 1144 19 c 1,25,26
 1143 22 1143 22 1143 29 c 1,27,28
 1147 47 1147 47 1168 61 c 1,29,30
 1179 70 1179 70 1192.5 78.5 c 128,-1,31
 1206 87 1206 87 1213 100 c 0,32,33
 1217 106 1217 106 1218 114 c 1,34,35
 1220 121 1220 121 1220 130 c 0,36,37
 1220 137 1220 137 1219 145 c 2,38,-1
 1154 469 l 1,39,-1
 607 469 l 1,40,41
 558 394 558 394 503 308.5 c 128,-1,42
 448 223 448 223 392 138 c 0,43,44
 380 120 380 120 376 106 c 0,45,46
 373 99 373 99 372 94 c 256,47,48
 371 89 371 89 371 84 c 2,49,-1
 371 78 l 2,50,51
 371 69 371 69 376 61 c 128,-1,52
 381 53 381 53 382 39 c 1,53,54
 381 28 381 28 380 26 c 1,55,56
 380 20 380 20 374 12 c 1,57,58
 356 -20 356 -20 325 -20 c 2,59,-1
 67 -20 l 2,60,61
 40 -20 40 -20 34.5 -7 c 128,-1,62
 29 6 29 6 29 7 c 0,63,64
 29 17 29 17 35 29 c 1,65,66
 49 49 49 49 86 65 c 0,67,68
 102 72 102 72 121 80 c 128,-1,69
 140 88 140 88 159 99 c 0,70,71
 198 122 198 122 221 155 c 2,72,-1
 1090 1447 l 1,73,-1
 1188 1447 l 1,0,1
1036 1564 m 2,74,75
 981 1534 981 1534 947 1534 c 0,76,77
 939 1534 939 1534 934 1536 c 1,78,79
 909 1539 909 1539 909 1561 c 2,80,-1
 909 1565 l 1,81,82
 914 1585 914 1585 963 1627 c 2,83,-1
 1112 1751 l 2,84,85
 1142 1776 1142 1776 1223 1843.5 c 128,-1,86
 1304 1911 1304 1911 1333 1928 c 1,87,88
 1363 1943 1363 1943 1391 1943 c 0,89,90
 1414 1943 1414 1943 1436 1933 c 0,91,92
 1476 1914 1476 1914 1476 1872 c 0,93,94
 1476 1860 1476 1860 1473 1847 c 0,95,96
 1465 1814 1465 1814 1436 1790 c 128,-1,97
 1407 1766 1407 1766 1381 1751 c 2,98,-1
 1036 1564 l 2,74,75
1130 590 m 1,99,-1
 1025 1116 l 1,100,101
 961 1017 961 1017 862.5 865 c 128,-1,102
 764 713 764 713 685 590 c 1,103,-1
 1130 590 l 1,99,-1
EndSplineSet
Validated: 1
EndChar

StartChar: Acirc
Encoding: 194 194 131
Width: 1593
GlyphClass: 2
Flags: W
LayerCount: 2
Fore
SplineSet
1188 1447 m 1,0,1
 1215 1312 1215 1312 1249 1141 c 128,-1,2
 1283 970 1283 970 1320 789 c 128,-1,3
 1357 608 1357 608 1391 437 c 128,-1,4
 1425 266 1425 266 1449 149 c 1,5,6
 1454 118 1454 118 1484 93 c 1,7,8
 1502 80 1502 80 1522 70 c 128,-1,9
 1542 60 1542 60 1557 49 c 1,10,11
 1570 37 1570 37 1573 27 c 0,12,13
 1575 23 1575 23 1575 17 c 256,14,15
 1575 11 1575 11 1573 7 c 0,16,17
 1571 2 1571 2 1567 -4 c 0,18,19
 1556 -20 1556 -20 1532 -20 c 2,20,-1
 1194 -20 l 2,21,22
 1175 -20 1175 -20 1159 -8 c 1,23,24
 1144 5 1144 5 1144 19 c 1,25,26
 1143 22 1143 22 1143 29 c 1,27,28
 1147 47 1147 47 1168 61 c 1,29,30
 1179 70 1179 70 1192.5 78.5 c 128,-1,31
 1206 87 1206 87 1213 100 c 0,32,33
 1217 106 1217 106 1218 114 c 1,34,35
 1220 121 1220 121 1220 130 c 0,36,37
 1220 137 1220 137 1219 145 c 2,38,-1
 1154 469 l 1,39,-1
 607 469 l 1,40,41
 558 394 558 394 503 308.5 c 128,-1,42
 448 223 448 223 392 138 c 0,43,44
 380 120 380 120 376 106 c 0,45,46
 373 99 373 99 372 94 c 256,47,48
 371 89 371 89 371 84 c 2,49,-1
 371 78 l 2,50,51
 371 69 371 69 376 61 c 128,-1,52
 381 53 381 53 382 39 c 1,53,54
 381 28 381 28 380 26 c 1,55,56
 380 20 380 20 374 12 c 1,57,58
 356 -20 356 -20 325 -20 c 2,59,-1
 67 -20 l 1,60,61
 30 -14 30 -14 30 9 c 0,62,63
 30 18 30 18 35 29 c 1,64,65
 49 49 49 49 86 65 c 0,66,67
 102 72 102 72 121 80 c 128,-1,68
 140 88 140 88 159 99 c 0,69,70
 198 122 198 122 221 155 c 2,71,-1
 1090 1447 l 1,72,-1
 1188 1447 l 1,0,1
837 1536 m 1,73,-1
 1181 1923 l 1,74,-1
 1328 1923 l 1,75,-1
 1495 1536 l 1,76,-1
 1390 1536 l 1,77,-1
 1217 1734 l 1,78,-1
 952 1536 l 1,79,-1
 837 1536 l 1,73,-1
1130 590 m 1,80,-1
 1025 1116 l 1,81,82
 961 1017 961 1017 862.5 865 c 128,-1,83
 764 713 764 713 685 590 c 1,84,-1
 1130 590 l 1,80,-1
EndSplineSet
Validated: 1
EndChar

StartChar: Atilde
Encoding: 195 195 132
Width: 1593
GlyphClass: 2
Flags: W
LayerCount: 2
Fore
SplineSet
1188 1447 m 1,0,1
 1215 1312 1215 1312 1249 1141 c 128,-1,2
 1283 970 1283 970 1320 789 c 128,-1,3
 1357 608 1357 608 1391 437 c 128,-1,4
 1425 266 1425 266 1449 149 c 1,5,6
 1454 118 1454 118 1484 93 c 1,7,8
 1502 80 1502 80 1522 70 c 128,-1,9
 1542 60 1542 60 1557 49 c 1,10,11
 1570 37 1570 37 1573 27 c 0,12,13
 1575 23 1575 23 1575 17 c 256,14,15
 1575 11 1575 11 1573 7 c 0,16,17
 1571 2 1571 2 1567 -4 c 0,18,19
 1556 -20 1556 -20 1532 -20 c 2,20,-1
 1194 -20 l 2,21,22
 1175 -20 1175 -20 1159 -8 c 1,23,24
 1144 5 1144 5 1144 19 c 1,25,26
 1143 22 1143 22 1143 29 c 1,27,28
 1147 47 1147 47 1168 61 c 1,29,30
 1179 70 1179 70 1192.5 78.5 c 128,-1,31
 1206 87 1206 87 1213 100 c 0,32,33
 1217 106 1217 106 1218 114 c 1,34,35
 1220 121 1220 121 1220 130 c 0,36,37
 1220 137 1220 137 1219 145 c 2,38,-1
 1154 469 l 1,39,-1
 607 469 l 1,40,41
 558 394 558 394 503 308.5 c 128,-1,42
 448 223 448 223 392 138 c 0,43,44
 380 120 380 120 376 106 c 0,45,46
 373 99 373 99 372 94 c 256,47,48
 371 89 371 89 371 84 c 2,49,-1
 371 78 l 2,50,51
 371 69 371 69 376 61 c 128,-1,52
 381 53 381 53 382 39 c 1,53,54
 381 28 381 28 380 26 c 1,55,56
 380 20 380 20 374 12 c 1,57,58
 356 -20 356 -20 325 -20 c 2,59,-1
 67 -20 l 1,60,61
 29 -18 29 -18 29 6 c 0,62,63
 29 16 29 16 35 29 c 1,64,65
 49 49 49 49 86 65 c 0,66,67
 102 72 102 72 121 80 c 128,-1,68
 140 88 140 88 159 99 c 0,69,70
 198 122 198 122 221 155 c 2,71,-1
 1090 1447 l 1,72,-1
 1188 1447 l 1,0,1
1554 1803 m 1,73,74
 1483 1686 1483 1686 1431 1633 c 0,75,76
 1369 1571 1369 1571 1311 1571 c 0,77,78
 1220 1571 1220 1571 1139 1663 c 1,79,80
 1104 1701 1104 1701 1070 1701 c 0,81,82
 1043 1701 1043 1701 1011 1677 c 0,83,84
 1000 1669 1000 1669 986.5 1659 c 128,-1,85
 973 1649 973 1649 957 1633 c 0,86,87
 924 1599 924 1599 899 1563 c 0,88,89
 885 1542 885 1542 862 1542 c 0,90,91
 845 1542 845 1542 833 1554 c 256,92,93
 821 1566 821 1566 821 1582 c 2,94,-1
 821 1589 l 1,95,96
 825 1604 825 1604 836 1619 c 0,97,98
 885 1691 885 1691 940 1772.5 c 128,-1,99
 995 1854 995 1854 1082 1854 c 0,100,101
 1182 1854 1182 1854 1260 1758 c 0,102,103
 1290 1720 1290 1720 1324 1720 c 0,104,105
 1356 1720 1356 1720 1398 1750 c 1,106,107
 1440 1778 1440 1778 1484 1851 c 0,108,109
 1499 1874 1499 1874 1523 1874 c 0,110,111
 1530 1874 1530 1874 1537 1872 c 0,112,113
 1563 1864 1563 1864 1563 1835 c 2,114,-1
 1563 1831 l 1,115,-1
 1562 1824 l 1,116,117
 1559 1814 1559 1814 1554 1803 c 1,73,74
1130 590 m 1,118,-1
 1025 1116 l 1,119,120
 961 1017 961 1017 862.5 865 c 128,-1,121
 764 713 764 713 685 590 c 1,122,-1
 1130 590 l 1,118,-1
EndSplineSet
Validated: 1
EndChar

StartChar: Auml
Encoding: 196 196 133
Width: 1593
GlyphClass: 2
Flags: W
LayerCount: 2
Fore
SplineSet
1188 1447 m 1,0,1
 1215 1312 1215 1312 1249 1141 c 128,-1,2
 1283 970 1283 970 1320 789 c 128,-1,3
 1357 608 1357 608 1391 437 c 128,-1,4
 1425 266 1425 266 1449 149 c 1,5,6
 1454 118 1454 118 1484 93 c 1,7,8
 1502 80 1502 80 1522 70 c 128,-1,9
 1542 60 1542 60 1557 49 c 1,10,11
 1570 37 1570 37 1573 27 c 0,12,13
 1575 23 1575 23 1575 17 c 256,14,15
 1575 11 1575 11 1573 7 c 0,16,17
 1571 2 1571 2 1567 -4 c 0,18,19
 1556 -20 1556 -20 1532 -20 c 2,20,-1
 1194 -20 l 2,21,22
 1175 -20 1175 -20 1159 -8 c 1,23,24
 1144 5 1144 5 1144 19 c 1,25,26
 1143 22 1143 22 1143 29 c 1,27,28
 1147 47 1147 47 1168 61 c 1,29,30
 1179 70 1179 70 1192.5 78.5 c 128,-1,31
 1206 87 1206 87 1213 100 c 0,32,33
 1217 106 1217 106 1218 114 c 1,34,35
 1220 121 1220 121 1220 130 c 0,36,37
 1220 137 1220 137 1219 145 c 2,38,-1
 1154 469 l 1,39,-1
 607 469 l 1,40,41
 558 394 558 394 503 308.5 c 128,-1,42
 448 223 448 223 392 138 c 0,43,44
 380 120 380 120 376 106 c 0,45,46
 373 99 373 99 372 94 c 256,47,48
 371 89 371 89 371 84 c 2,49,-1
 371 78 l 2,50,51
 371 69 371 69 376 61 c 128,-1,52
 381 53 381 53 382 39 c 1,53,54
 381 28 381 28 380 26 c 1,55,56
 380 20 380 20 374 12 c 1,57,58
 356 -20 356 -20 325 -20 c 2,59,-1
 67 -20 l 1,60,61
 27 -19 27 -19 27 3 c 0,62,63
 27 14 27 14 35 29 c 1,64,65
 49 49 49 49 86 65 c 0,66,67
 102 72 102 72 121 80 c 128,-1,68
 140 88 140 88 159 99 c 0,69,70
 198 122 198 122 221 155 c 2,71,-1
 1090 1447 l 1,72,-1
 1188 1447 l 1,0,1
1260 1711 m 0,73,74
 1271 1756 1271 1756 1313 1792 c 128,-1,75
 1355 1828 1355 1828 1406 1828 c 0,76,77
 1493 1828 1493 1828 1510 1749 c 0,78,79
 1512 1737 1512 1737 1512 1726 c 0,80,81
 1512 1712 1512 1712 1509 1698 c 0,82,83
 1499 1657 1499 1657 1457 1622 c 1,84,85
 1413 1587 1413 1587 1373 1587 c 1,86,87
 1372 1586 1372 1586 1359 1586 c 0,88,89
 1303 1586 1303 1586 1276 1626 c 1,90,91
 1257 1649 1257 1649 1257 1682 c 0,92,93
 1257 1696 1257 1696 1260 1711 c 0,73,74
906 1711 m 0,94,95
 925 1788 925 1788 1003 1818 c 0,96,97
 1031 1829 1031 1829 1056 1829 c 0,98,99
 1107 1829 1107 1829 1137 1788 c 1,100,101
 1159 1761 1159 1761 1159 1728 c 0,102,103
 1159 1717 1159 1717 1157 1706 c 0,104,105
 1151 1684 1151 1684 1136 1660 c 0,106,107
 1089 1587 1089 1587 1007 1587 c 0,108,109
 902 1587 902 1587 902 1674 c 0,110,111
 902 1691 902 1691 906 1711 c 0,94,95
1130 590 m 1,112,-1
 1025 1116 l 1,113,114
 961 1017 961 1017 862.5 865 c 128,-1,115
 764 713 764 713 685 590 c 1,116,-1
 1130 590 l 1,112,-1
EndSplineSet
Validated: 1
EndChar

StartChar: Aring
Encoding: 197 197 134
Width: 1593
GlyphClass: 2
Flags: W
LayerCount: 2
Fore
SplineSet
1188 1447 m 1,0,1
 1215 1312 1215 1312 1249 1141 c 128,-1,2
 1283 970 1283 970 1320 789 c 128,-1,3
 1357 608 1357 608 1391 437 c 128,-1,4
 1425 266 1425 266 1449 149 c 1,5,6
 1454 118 1454 118 1484 93 c 1,7,8
 1502 80 1502 80 1522 70 c 128,-1,9
 1542 60 1542 60 1557 49 c 1,10,11
 1570 37 1570 37 1573 27 c 0,12,13
 1575 23 1575 23 1575 17 c 256,14,15
 1575 11 1575 11 1573 7 c 0,16,17
 1571 2 1571 2 1567 -4 c 0,18,19
 1556 -20 1556 -20 1532 -20 c 2,20,-1
 1194 -20 l 2,21,22
 1175 -20 1175 -20 1159 -8 c 1,23,24
 1144 5 1144 5 1144 19 c 1,25,26
 1143 22 1143 22 1143 29 c 1,27,28
 1147 47 1147 47 1168 61 c 1,29,30
 1179 70 1179 70 1192.5 78.5 c 128,-1,31
 1206 87 1206 87 1213 100 c 0,32,33
 1217 106 1217 106 1218 114 c 1,34,35
 1220 121 1220 121 1220 130 c 0,36,37
 1220 137 1220 137 1219 145 c 2,38,-1
 1154 469 l 1,39,-1
 607 469 l 1,40,41
 558 394 558 394 503 308.5 c 128,-1,42
 448 223 448 223 392 138 c 0,43,44
 380 120 380 120 376 106 c 0,45,46
 373 99 373 99 372 94 c 256,47,48
 371 89 371 89 371 84 c 2,49,-1
 371 78 l 2,50,51
 371 69 371 69 376 61 c 128,-1,52
 381 53 381 53 382 39 c 1,53,54
 381 28 381 28 380 26 c 1,55,56
 380 20 380 20 374 12 c 1,57,58
 356 -20 356 -20 325 -20 c 2,59,-1
 67 -20 l 2,60,61
 27 -20 27 -20 27 3 c 0,62,63
 27 14 27 14 35 29 c 1,64,65
 49 49 49 49 86 65 c 0,66,67
 102 72 102 72 121 80 c 128,-1,68
 140 88 140 88 159 99 c 0,69,70
 198 122 198 122 221 155 c 2,71,-1
 1090 1447 l 1,72,-1
 1188 1447 l 1,0,1
1242 1940 m 0,73,74
 1336 1940 1336 1940 1387 1871 c 0,75,76
 1422 1825 1422 1825 1422 1767 c 0,77,78
 1422 1743 1422 1743 1416 1717 c 0,79,80
 1395 1628 1395 1628 1317.5 1564.5 c 128,-1,81
 1240 1501 1240 1501 1150 1501 c 0,82,83
 1055 1501 1055 1501 1004 1569 c 0,84,85
 969 1615 969 1615 969 1672 c 0,86,87
 969 1697 969 1697 975 1724 c 0,88,89
 996 1811 996 1811 1073.5 1875.5 c 128,-1,90
 1151 1940 1151 1940 1242 1940 c 0,73,74
1228 1872 m 0,91,92
 1190 1872 1190 1872 1154 1831 c 0,93,94
 1119 1790 1119 1790 1106 1732 c 1,95,-1
 1102 1717 l 1,96,97
 1098 1695 1098 1695 1098 1675 c 0,98,99
 1098 1636 1098 1636 1113 1606 c 1,100,101
 1133 1569 1133 1569 1166 1569 c 0,102,103
 1202 1569 1202 1569 1239 1610 c 1,104,105
 1275 1653 1275 1653 1288 1712 c 1,106,-1
 1291 1723 l 1,107,108
 1295 1744 1295 1744 1295 1763 c 0,109,110
 1295 1803 1295 1803 1280 1835 c 1,111,112
 1260 1872 1260 1872 1228 1872 c 0,91,92
1130 590 m 1,113,-1
 1025 1116 l 1,114,115
 961 1017 961 1017 862.5 865 c 128,-1,116
 764 713 764 713 685 590 c 1,117,-1
 1130 590 l 1,113,-1
EndSplineSet
Validated: 1
EndChar

StartChar: AElig
Encoding: 198 198 135
Width: 1933
GlyphClass: 2
Flags: W
LayerCount: 2
Fore
SplineSet
1141 114 m 1,0,-1
 1539 114 l 2,1,2
 1620 114 1620 114 1697 182 c 128,-1,3
 1774 250 1774 250 1816 290 c 0,4,5
 1847 319 1847 319 1868 319 c 0,6,7
 1910 319 1910 319 1910 285 c 0,8,9
 1910 280 1910 280 1909 274 c 0,10,11
 1905 260 1905 260 1900 250 c 2,12,-1
 1762 -20 l 1,13,-1
 826 -20 l 2,14,15
 787 -20 787 -20 787 13 c 0,16,17
 787 17 787 17 788 24 c 0,18,19
 797 60 797 60 851 77.5 c 128,-1,20
 905 95 905 95 917 149 c 2,21,-1
 991 469 l 1,22,-1
 530 469 l 1,23,24
 469 392 469 392 401 306.5 c 128,-1,25
 333 221 333 221 265 136 c 0,26,27
 253 122 253 122 244 103 c 1,28,29
 238 94 238 94 236 85 c 0,30,31
 235 82 235 82 235 78 c 2,32,-1
 235 72 l 2,33,34
 235 65 235 65 236 63 c 0,35,36
 240 50 240 50 240 39 c 2,37,-1
 240 29 l 1,38,39
 237 23 237 23 235 20 c 2,40,-1
 233 17 l 1,41,-1
 233 16 l 1,42,43
 206 -20 206 -20 178 -20 c 2,44,-1
 -79 -20 l 2,45,46
 -109 -20 -109 -20 -118 6 c 1,47,-1
 -115 14 l 1,48,49
 -115 21 -115 21 -105 32 c 0,50,51
 -92 47 -92 47 -53 65 c 1,52,53
 -35 72 -35 72 -15.5 80 c 128,-1,54
 4 88 4 88 25 99 c 0,55,56
 67 123 67 123 96 157 c 2,57,-1
 1053 1325 l 1,58,59
 1048 1326 1048 1326 1017 1337 c 0,60,61
 975 1351 975 1351 975 1379 c 2,62,-1
 975 1385 l 1,63,64
 984 1424 984 1424 1026 1424 c 2,65,-1
 2111 1424 l 1,66,-1
 2047 1144 l 2,67,68
 2038 1106 2038 1106 1996 1106 c 0,69,70
 1969 1106 1969 1106 1945 1159 c 1,71,72
 1911 1227 1911 1227 1888 1259 c 128,-1,73
 1865 1291 1865 1291 1820 1291 c 2,74,-1
 1413 1291 l 1,75,-1
 1296 788 l 1,76,-1
 1495 788 l 2,77,78
 1544 788 1544 788 1576 839.5 c 128,-1,79
 1608 891 1608 891 1649 891 c 256,80,81
 1690 891 1690 891 1690 858 c 0,82,83
 1690 852 1690 852 1689 846 c 2,84,-1
 1631 593 l 2,85,86
 1622 555 1622 555 1581 555 c 0,87,88
 1534 555 1534 555 1522.5 606 c 128,-1,89
 1511 657 1511 657 1468 657 c 2,90,-1
 1266 657 l 1,91,-1
 1141 114 l 1,0,-1
1022 590 m 1,92,-1
 1179 1278 l 1,93,94
 1086 1162 1086 1162 904 936.5 c 128,-1,95
 722 711 722 711 626 590 c 1,96,-1
 1022 590 l 1,92,-1
EndSplineSet
Validated: 1
EndChar

StartChar: Ccedil
Encoding: 199 199 136
Width: 1400
GlyphClass: 2
Flags: W
LayerCount: 2
Fore
SplineSet
504 -34 m 2,0,-1
 612 -34 l 1,1,2
 614 -85 614 -85 622 -95 c 0,3,4
 648 -128 648 -128 680 -161 c 0,5,6
 719 -201 719 -201 719 -258 c 0,7,8
 719 -278 719 -278 714 -300 c 2,9,-1
 712 -309 l 1,10,11
 684 -406 684 -406 544 -416 c 1,12,-1
 528 -416 l 2,13,14
 465 -416 465 -416 371 -382 c 1,15,-1
 373 -252 l 1,16,17
 448 -315 448 -315 482 -315 c 0,18,19
 508 -315 508 -315 537 -298 c 0,20,21
 563 -283 563 -283 568 -262 c 0,22,23
 569 -258 569 -258 569 -252 c 0,24,25
 569 -225 569 -225 541 -189 c 1,26,27
 514 -156 514 -156 497 -112 c 1,28,29
 491 -100 491 -100 491 -83 c 0,30,31
 491 -74 491 -74 493 -64 c 0,32,33
 500 -34 500 -34 504 -34 c 2,0,-1
839 -57 m 0,34,35
 520 -57 520 -57 321 147 c 1,36,37
 180 290 180 290 180 510 c 0,38,39
 180 601 180 601 204 704 c 0,40,41
 284 1048 284 1048 568 1256.5 c 128,-1,42
 852 1465 852 1465 1182 1465 c 0,43,44
 1300 1465 1300 1465 1428 1438.5 c 128,-1,45
 1556 1412 1556 1412 1672 1325 c 1,46,-1
 1595 1103 l 1,47,48
 1581 1071 1581 1071 1547 1071 c 2,49,-1
 1543 1071 l 1,50,51
 1512 1074 1512 1074 1500 1115 c 1,52,53
 1468 1246 1468 1246 1390.5 1288 c 128,-1,54
 1313 1330 1313 1330 1160 1330 c 0,55,56
 947 1330 947 1330 743.5 1180 c 128,-1,57
 540 1030 540 1030 464 698 c 0,58,59
 449 633 449 633 449 571 c 0,60,61
 449 426 449 426 528 288 c 1,62,63
 636 96 636 96 864 85 c 0,64,65
 888 84 888 84 909 84 c 0,66,67
 1031 84 1031 84 1117 121 c 0,68,69
 1217 164 1217 164 1310 298 c 1,70,71
 1337 332 1337 332 1363 336 c 1,72,-1
 1370 336 l 2,73,74
 1409 336 1409 336 1409 300 c 2,75,-1
 1409 297 l 1,76,-1
 1405 269 l 1,77,-1
 1257 16 l 1,78,79
 1140 -28 1140 -28 1035 -42.5 c 128,-1,80
 930 -57 930 -57 839 -57 c 0,34,35
EndSplineSet
Validated: 1
EndChar

StartChar: Egrave
Encoding: 200 200 137
Width: 1251
GlyphClass: 2
Flags: W
LayerCount: 2
Fore
SplineSet
488 114 m 1,0,-1
 885 114 l 2,1,2
 967 114 967 114 1044 182 c 128,-1,3
 1121 250 1121 250 1163 290 c 0,4,5
 1194 319 1194 319 1215 319 c 0,6,7
 1257 319 1257 319 1257 285 c 0,8,9
 1257 280 1257 280 1256 274 c 0,10,11
 1252 260 1252 260 1247 250 c 2,12,-1
 1109 -20 l 1,13,-1
 173 -20 l 2,14,15
 134 -20 134 -20 134 13 c 0,16,17
 134 17 134 17 135 24 c 0,18,19
 144 60 144 60 198 77.5 c 128,-1,20
 252 95 252 95 264 149 c 2,21,-1
 520 1261 l 2,22,23
 524 1275 524 1275 524 1286 c 0,24,25
 524 1314 524 1314 504 1322 c 0,26,27
 448 1342 448 1342 448 1377 c 0,28,29
 448 1382 448 1382 450 1387 c 0,30,31
 458 1424 458 1424 500 1424 c 2,32,-1
 1458 1424 l 1,33,-1
 1394 1144 l 2,34,35
 1385 1106 1385 1106 1343 1106 c 0,36,37
 1316 1106 1316 1106 1292 1159 c 1,38,39
 1258 1227 1258 1227 1235 1259 c 128,-1,40
 1212 1291 1212 1291 1166 1291 c 2,41,-1
 760 1291 l 1,42,-1
 643 788 l 1,43,-1
 842 788 l 2,44,45
 891 788 891 788 923 839.5 c 128,-1,46
 955 891 955 891 996 891 c 256,47,48
 1037 891 1037 891 1037 858 c 0,49,50
 1037 852 1037 852 1036 846 c 2,51,-1
 978 593 l 2,52,53
 969 555 969 555 928 555 c 0,54,55
 881 555 881 555 869.5 606 c 128,-1,56
 858 657 858 657 815 657 c 2,57,-1
 613 657 l 1,58,-1
 488 114 l 1,0,-1
1151 1566 m 2,59,-1
 894 1752 l 2,60,61
 872 1768 872 1768 854 1792 c 1,62,63
 838 1811 838 1811 838 1836 c 0,64,65
 838 1845 838 1845 840 1855 c 0,66,67
 854 1913 854 1913 910 1934 c 0,68,69
 934 1943 934 1943 956 1943 c 0,70,71
 986 1943 986 1943 1010 1926 c 0,72,73
 1035 1909 1035 1909 1084.5 1840.5 c 128,-1,74
 1134 1772 1134 1772 1153 1747 c 2,75,-1
 1244 1623 l 2,76,77
 1272 1585 1272 1585 1272 1565 c 2,78,-1
 1272 1560 l 1,79,80
 1265 1538 1265 1538 1242 1536 c 1,81,82
 1238 1534 1238 1534 1230 1534 c 0,83,84
 1196 1534 1196 1534 1151 1566 c 2,59,-1
EndSplineSet
Validated: 1
EndChar

StartChar: Eacute
Encoding: 201 201 138
Width: 1251
GlyphClass: 2
Flags: W
LayerCount: 2
Fore
SplineSet
488 114 m 1,0,-1
 885 114 l 2,1,2
 967 114 967 114 1044 182 c 128,-1,3
 1121 250 1121 250 1163 290 c 0,4,5
 1194 319 1194 319 1215 319 c 0,6,7
 1257 319 1257 319 1257 285 c 0,8,9
 1257 280 1257 280 1256 274 c 0,10,11
 1252 260 1252 260 1247 250 c 2,12,-1
 1109 -20 l 1,13,-1
 173 -20 l 2,14,15
 134 -20 134 -20 134 13 c 0,16,17
 134 17 134 17 135 24 c 0,18,19
 144 60 144 60 198 77.5 c 128,-1,20
 252 95 252 95 264 149 c 2,21,-1
 520 1261 l 2,22,23
 524 1275 524 1275 524 1286 c 0,24,25
 524 1314 524 1314 504 1322 c 0,26,27
 448 1342 448 1342 448 1377 c 0,28,29
 448 1382 448 1382 450 1387 c 0,30,31
 458 1424 458 1424 500 1424 c 2,32,-1
 1458 1424 l 1,33,-1
 1394 1144 l 2,34,35
 1385 1106 1385 1106 1343 1106 c 0,36,37
 1316 1106 1316 1106 1292 1159 c 1,38,39
 1258 1227 1258 1227 1235 1259 c 128,-1,40
 1212 1291 1212 1291 1166 1291 c 2,41,-1
 760 1291 l 1,42,-1
 643 788 l 1,43,-1
 842 788 l 2,44,45
 891 788 891 788 923 839.5 c 128,-1,46
 955 891 955 891 996 891 c 256,47,48
 1037 891 1037 891 1037 858 c 0,49,50
 1037 852 1037 852 1036 846 c 2,51,-1
 978 593 l 2,52,53
 969 555 969 555 928 555 c 0,54,55
 881 555 881 555 869.5 606 c 128,-1,56
 858 657 858 657 815 657 c 2,57,-1
 613 657 l 1,58,-1
 488 114 l 1,0,-1
898 1564 m 2,59,60
 843 1534 843 1534 809 1534 c 0,61,62
 799 1534 799 1534 795 1536 c 1,63,64
 772 1539 772 1539 772 1560 c 2,65,-1
 772 1564 l 1,66,67
 777 1585 777 1585 826 1627 c 2,68,-1
 974 1751 l 2,69,70
 1004 1776 1004 1776 1085 1843.5 c 128,-1,71
 1166 1911 1166 1911 1195 1928 c 1,72,73
 1225 1943 1225 1943 1254 1943 c 0,74,75
 1276 1943 1276 1943 1298 1933 c 0,76,77
 1339 1914 1339 1914 1339 1872 c 0,78,79
 1339 1860 1339 1860 1336 1847 c 0,80,81
 1328 1814 1328 1814 1298.5 1790 c 128,-1,82
 1269 1766 1269 1766 1243 1751 c 2,83,-1
 898 1564 l 2,59,60
EndSplineSet
Validated: 1
EndChar

StartChar: Ecirc
Encoding: 202 202 139
Width: 1251
GlyphClass: 2
Flags: W
LayerCount: 2
Fore
SplineSet
488 114 m 1,0,-1
 885 114 l 2,1,2
 967 114 967 114 1044 182 c 128,-1,3
 1121 250 1121 250 1163 290 c 0,4,5
 1194 319 1194 319 1215 319 c 0,6,7
 1257 319 1257 319 1257 285 c 0,8,9
 1257 280 1257 280 1256 274 c 0,10,11
 1252 260 1252 260 1247 250 c 2,12,-1
 1109 -20 l 1,13,-1
 173 -20 l 2,14,15
 134 -20 134 -20 134 13 c 0,16,17
 134 17 134 17 135 24 c 0,18,19
 144 60 144 60 198 77.5 c 128,-1,20
 252 95 252 95 264 149 c 2,21,-1
 520 1261 l 2,22,23
 524 1275 524 1275 524 1286 c 0,24,25
 524 1314 524 1314 504 1322 c 0,26,27
 448 1342 448 1342 448 1377 c 0,28,29
 448 1382 448 1382 450 1387 c 0,30,31
 458 1424 458 1424 500 1424 c 2,32,-1
 1458 1424 l 1,33,-1
 1394 1144 l 2,34,35
 1385 1106 1385 1106 1343 1106 c 0,36,37
 1316 1106 1316 1106 1292 1159 c 1,38,39
 1258 1227 1258 1227 1235 1259 c 128,-1,40
 1212 1291 1212 1291 1166 1291 c 2,41,-1
 760 1291 l 1,42,-1
 643 788 l 1,43,-1
 842 788 l 2,44,45
 891 788 891 788 923 839.5 c 128,-1,46
 955 891 955 891 996 891 c 256,47,48
 1037 891 1037 891 1037 858 c 0,49,50
 1037 852 1037 852 1036 846 c 2,51,-1
 978 593 l 2,52,53
 969 555 969 555 928 555 c 0,54,55
 881 555 881 555 869.5 606 c 128,-1,56
 858 657 858 657 815 657 c 2,57,-1
 613 657 l 1,58,-1
 488 114 l 1,0,-1
684 1536 m 1,59,-1
 1029 1923 l 1,60,-1
 1176 1923 l 1,61,-1
 1342 1536 l 1,62,-1
 1237 1536 l 1,63,-1
 1064 1734 l 1,64,-1
 800 1536 l 1,65,-1
 684 1536 l 1,59,-1
EndSplineSet
Validated: 1
EndChar

StartChar: Euml
Encoding: 203 203 140
Width: 1251
GlyphClass: 2
Flags: W
LayerCount: 2
Fore
SplineSet
488 114 m 1,0,-1
 885 114 l 2,1,2
 967 114 967 114 1044 182 c 128,-1,3
 1121 250 1121 250 1163 290 c 0,4,5
 1194 319 1194 319 1215 319 c 0,6,7
 1257 319 1257 319 1257 285 c 0,8,9
 1257 280 1257 280 1256 274 c 0,10,11
 1252 260 1252 260 1247 250 c 2,12,-1
 1109 -20 l 1,13,-1
 173 -20 l 2,14,15
 134 -20 134 -20 134 13 c 0,16,17
 134 17 134 17 135 24 c 0,18,19
 144 60 144 60 198 77.5 c 128,-1,20
 252 95 252 95 264 149 c 2,21,-1
 520 1261 l 2,22,23
 524 1275 524 1275 524 1286 c 0,24,25
 524 1314 524 1314 504 1322 c 0,26,27
 448 1342 448 1342 448 1377 c 0,28,29
 448 1382 448 1382 450 1387 c 0,30,31
 458 1424 458 1424 500 1424 c 2,32,-1
 1458 1424 l 1,33,-1
 1394 1144 l 2,34,35
 1385 1106 1385 1106 1343 1106 c 0,36,37
 1316 1106 1316 1106 1292 1159 c 1,38,39
 1258 1227 1258 1227 1235 1259 c 128,-1,40
 1212 1291 1212 1291 1166 1291 c 2,41,-1
 760 1291 l 1,42,-1
 643 788 l 1,43,-1
 842 788 l 2,44,45
 891 788 891 788 923 839.5 c 128,-1,46
 955 891 955 891 996 891 c 256,47,48
 1037 891 1037 891 1037 858 c 0,49,50
 1037 852 1037 852 1036 846 c 2,51,-1
 978 593 l 2,52,53
 969 555 969 555 928 555 c 0,54,55
 881 555 881 555 869.5 606 c 128,-1,56
 858 657 858 657 815 657 c 2,57,-1
 613 657 l 1,58,-1
 488 114 l 1,0,-1
1107 1711 m 0,59,60
 1118 1756 1118 1756 1160 1792 c 128,-1,61
 1202 1828 1202 1828 1254 1828 c 0,62,63
 1341 1828 1341 1828 1357 1749 c 0,64,65
 1359 1737 1359 1737 1359 1726 c 0,66,67
 1359 1712 1359 1712 1356 1698 c 0,68,69
 1346 1657 1346 1657 1305 1622 c 1,70,71
 1253 1581 1253 1581 1207 1581 c 0,72,73
 1157 1581 1157 1581 1123 1626 c 1,74,75
 1104 1649 1104 1649 1104 1682 c 0,76,77
 1104 1696 1104 1696 1107 1711 c 0,59,60
753 1711 m 0,78,79
 772 1788 772 1788 850 1818 c 0,80,81
 878 1829 878 1829 904 1829 c 0,82,83
 955 1829 955 1829 985 1788 c 1,84,85
 1007 1761 1007 1761 1007 1728 c 0,86,87
 1007 1717 1007 1717 1005 1706 c 0,88,89
 999 1683 999 1683 983 1660 c 1,90,91
 937 1587 937 1587 854 1587 c 0,92,93
 749 1587 749 1587 749 1674 c 0,94,95
 749 1691 749 1691 753 1711 c 0,78,79
EndSplineSet
Validated: 1
EndChar

StartChar: Igrave
Encoding: 204 204 141
Width: 690
GlyphClass: 2
Flags: W
LayerCount: 2
Fore
SplineSet
749 1253 m 2,0,-1
 494 143 l 2,1,2
 490 129 490 129 490 117 c 0,3,4
 490 90 490 90 510 82 c 0,5,6
 566 60 566 60 566 27 c 0,7,8
 566 22 566 22 564 17 c 0,9,10
 556 -20 556 -20 514 -20 c 2,11,-1
 175 -20 l 2,12,13
 134 -20 134 -20 134 13 c 0,14,15
 134 19 134 19 135 25 c 0,16,17
 144 60 144 60 198 77.5 c 128,-1,18
 252 95 252 95 264 149 c 2,19,-1
 520 1261 l 2,20,21
 524 1275 524 1275 524 1286 c 0,22,23
 524 1314 524 1314 504 1322 c 0,24,25
 448 1342 448 1342 448 1377 c 0,26,27
 448 1382 448 1382 450 1387 c 0,28,29
 458 1424 458 1424 500 1424 c 2,30,-1
 838 1424 l 2,31,32
 880 1424 880 1424 880 1390 c 0,33,34
 880 1385 880 1385 879 1379 c 0,35,36
 870 1343 870 1343 816 1325.5 c 128,-1,37
 762 1308 762 1308 749 1253 c 2,0,-1
835 1566 m 2,38,-1
 578 1752 l 2,39,40
 556 1768 556 1768 538 1792 c 1,41,42
 522 1811 522 1811 522 1836 c 0,43,44
 522 1845 522 1845 524 1855 c 0,45,46
 538 1913 538 1913 594 1934 c 0,47,48
 618 1943 618 1943 640 1943 c 0,49,50
 670 1943 670 1943 694 1926 c 0,51,52
 719 1909 719 1909 768.5 1840.5 c 128,-1,53
 818 1772 818 1772 837 1747 c 2,54,-1
 928 1623 l 2,55,56
 956 1585 956 1585 956 1565 c 2,57,-1
 956 1560 l 1,58,59
 949 1538 949 1538 926 1536 c 1,60,61
 922 1534 922 1534 914 1534 c 0,62,63
 880 1534 880 1534 835 1566 c 2,38,-1
EndSplineSet
Validated: 1
EndChar

StartChar: Iacute
Encoding: 205 205 142
Width: 690
GlyphClass: 2
Flags: W
LayerCount: 2
Fore
SplineSet
749 1253 m 2,0,-1
 494 143 l 2,1,2
 490 129 490 129 490 117 c 0,3,4
 490 90 490 90 510 82 c 0,5,6
 566 60 566 60 566 27 c 0,7,8
 566 22 566 22 564 17 c 0,9,10
 556 -20 556 -20 514 -20 c 2,11,-1
 175 -20 l 2,12,13
 134 -20 134 -20 134 13 c 0,14,15
 134 19 134 19 135 25 c 0,16,17
 144 60 144 60 198 77.5 c 128,-1,18
 252 95 252 95 264 149 c 2,19,-1
 520 1261 l 2,20,21
 524 1275 524 1275 524 1286 c 0,22,23
 524 1314 524 1314 504 1322 c 0,24,25
 448 1342 448 1342 448 1377 c 0,26,27
 448 1382 448 1382 450 1387 c 0,28,29
 458 1424 458 1424 500 1424 c 2,30,-1
 838 1424 l 2,31,32
 880 1424 880 1424 880 1390 c 0,33,34
 880 1385 880 1385 879 1379 c 0,35,36
 870 1343 870 1343 816 1325.5 c 128,-1,37
 762 1308 762 1308 749 1253 c 2,0,-1
582 1564 m 2,38,39
 527 1534 527 1534 493 1534 c 0,40,41
 483 1534 483 1534 479 1536 c 1,42,43
 456 1539 456 1539 456 1561 c 2,44,-1
 456 1565 l 1,45,46
 461 1585 461 1585 509 1627 c 1,47,-1
 658 1751 l 2,48,49
 688 1776 688 1776 769 1843.5 c 128,-1,50
 850 1911 850 1911 879 1928 c 1,51,52
 909 1943 909 1943 938 1943 c 0,53,54
 960 1943 960 1943 982 1933 c 0,55,56
 1023 1914 1023 1914 1023 1872 c 0,57,58
 1023 1860 1023 1860 1020 1847 c 0,59,60
 1012 1814 1012 1814 982.5 1790 c 128,-1,61
 953 1766 953 1766 927 1751 c 2,62,-1
 582 1564 l 2,38,39
EndSplineSet
Validated: 1
EndChar

StartChar: Icirc
Encoding: 206 206 143
Width: 690
GlyphClass: 2
Flags: W
LayerCount: 2
Fore
SplineSet
749 1253 m 2,0,-1
 494 143 l 2,1,2
 490 129 490 129 490 117 c 0,3,4
 490 90 490 90 510 82 c 0,5,6
 566 60 566 60 566 27 c 0,7,8
 566 22 566 22 564 17 c 0,9,10
 556 -20 556 -20 514 -20 c 2,11,-1
 175 -20 l 2,12,13
 134 -20 134 -20 134 13 c 0,14,15
 134 19 134 19 135 25 c 0,16,17
 144 60 144 60 198 77.5 c 128,-1,18
 252 95 252 95 264 149 c 2,19,-1
 520 1261 l 2,20,21
 524 1275 524 1275 524 1286 c 0,22,23
 524 1314 524 1314 504 1322 c 0,24,25
 448 1342 448 1342 448 1377 c 0,26,27
 448 1382 448 1382 450 1387 c 0,28,29
 458 1424 458 1424 500 1424 c 2,30,-1
 838 1424 l 2,31,32
 880 1424 880 1424 880 1390 c 0,33,34
 880 1385 880 1385 879 1379 c 0,35,36
 870 1343 870 1343 816 1325.5 c 128,-1,37
 762 1308 762 1308 749 1253 c 2,0,-1
369 1536 m 1,38,-1
 713 1923 l 1,39,-1
 860 1923 l 1,40,-1
 1026 1536 l 1,41,-1
 921 1536 l 1,42,-1
 748 1734 l 1,43,-1
 484 1536 l 1,44,-1
 369 1536 l 1,38,-1
EndSplineSet
Validated: 1
EndChar

